<svg xmlns="http://www.w3.org/2000/svg" width="1102" height="1102" viewBox="0 0 1102 1102">
  <path fill="#FFF" d="M551,1102.5 C551.994219,1102.5 552.988133,1102.49737 553.981738,1102.49211 C554.810153,1102.48772 555.478162,1101.8126 555.473776,1100.98419 C555.46939,1100.15577 554.794271,1099.48776 553.965856,1099.49215 C552.977545,1099.49738 551.988924,1099.5 551,1099.5 C550.171573,1099.5 549.5,1100.17157 549.5,1101 C549.5,1101.82843 550.171573,1102.5 551,1102.5 Z M578.084196,1101.84654 C579.090826,1101.79786 580.097058,1101.74646 581.102885,1101.69235 C581.930116,1101.64785 582.564645,1100.94118 582.520144,1100.11394 C582.475644,1099.28671 581.768966,1098.65219 580.941735,1098.69669 C579.94132,1098.7505 578.940499,1098.80162 577.939281,1098.85004 C577.111821,1098.89006 576.473473,1099.59329 576.51349,1100.42075 C576.553506,1101.24821 577.256736,1101.88656 578.084196,1101.84654 Z M605.07606,1099.88242 C606.07267,1099.78543 607.068798,1099.68575 608.064435,1099.5834 C608.888519,1099.49868 609.487895,1098.76196 609.403178,1097.93787 C609.318462,1097.11379 608.581733,1096.51441 607.757649,1096.59913 C606.767408,1096.70093 605.776678,1096.80006 604.785467,1096.89653 C603.960936,1096.97677 603.357572,1097.71024 603.437817,1098.53477 C603.518062,1099.3593 604.251528,1099.96266 605.07606,1099.88242 Z M631.961449,1096.59912 C632.9604,1096.45216 633.958764,1096.30248 634.956535,1096.15008 C635.775464,1096.02499 636.337937,1095.25972 636.212852,1094.44079 C636.087768,1093.62186 635.322494,1093.05939 634.503564,1093.18447 C633.511231,1093.33604 632.518306,1093.48491 631.524797,1093.63107 C630.705192,1093.75165 630.138518,1094.51382 630.259097,1095.33342 C630.379675,1096.15303 631.141844,1096.7197 631.961449,1096.59912 Z M658.643616,1092.0001 C659.624131,1091.8061 660.603974,1091.60945 661.583138,1091.41015 C662.39492,1091.24492 662.919053,1090.45289 662.753823,1089.64111 C662.588592,1088.82933 661.796566,1088.3052 660.984784,1088.47043 C660.010975,1088.66864 659.03649,1088.86421 658.061336,1089.05715 C657.248663,1089.21794 656.72021,1090.00709 656.881002,1090.81977 C657.041794,1091.63244 657.830943,1092.16089 658.643616,1092.0001 Z M685.027545,1086.10038 C686.000687,1085.85742 686.973052,1085.61181 687.944632,1085.36356 C688.747272,1085.15847 689.231685,1084.34155 689.026599,1083.53891 C688.821513,1082.73627 688.004589,1082.25185 687.201949,1082.45694 C686.235693,1082.70383 685.268655,1082.9481 684.300845,1083.18973 C683.497091,1083.3904 683.008196,1084.20465 683.208868,1085.00841 C683.409541,1085.81216 684.22379,1086.30106 685.027545,1086.10038 Z M711.172897,1078.88002 C712.133362,1078.58897 713.092947,1078.2953 714.051642,1077.99902 C714.843133,1077.75441 715.28647,1076.91449 715.041863,1076.123 C714.797256,1075.33151 713.957332,1074.88817 713.165841,1075.13278 C712.212402,1075.42743 711.258079,1075.71949 710.30288,1076.00894 C709.510055,1076.24919 709.062102,1077.08666 709.302351,1077.87949 C709.542599,1078.67231 710.380071,1079.12027 711.172897,1078.88002 Z M736.831419,1070.40759 C737.774462,1070.07015 738.716524,1069.73015 739.657594,1069.38758 C740.436049,1069.10421 740.837393,1068.24343 740.55402,1067.46497 C740.270648,1066.68652 739.409868,1066.28518 738.631413,1066.56855 C737.6955,1066.90924 736.758602,1067.24738 735.820727,1067.58296 C735.040729,1067.86206 734.634666,1068.72062 734.913761,1069.50062 C735.192855,1070.28062 736.05142,1070.68668 736.831419,1070.40759 Z M762.110835,1060.65008 C763.031534,1060.26827 763.951154,1059.88397 764.869688,1059.49718 C765.633183,1059.17567 765.991485,1058.2961 765.669978,1057.53261 C765.348471,1056.76911 764.468903,1056.41081 763.705408,1056.73232 C762.791902,1057.11699 761.877315,1057.49919 760.961657,1057.87891 C760.19642,1058.19624 759.833324,1059.07384 760.150661,1059.83908 C760.467997,1060.60432 761.345597,1060.96741 762.110835,1060.65008 Z M786.867342,1049.65948 C787.772576,1049.23055 788.676616,1048.79915 789.57945,1048.36528 C790.326134,1048.00646 790.640557,1047.11027 790.281733,1046.36359 C789.922909,1045.6169 789.026718,1045.30248 788.280034,1045.6613 C787.382133,1046.09279 786.483034,1046.52184 785.582746,1046.94843 C784.834109,1047.30316 784.514786,1048.19762 784.869517,1048.94625 C785.224248,1049.69489 786.118705,1050.01421 786.867342,1049.65948 Z M811.057808,1037.45781 C811.941703,1036.98429 812.824293,1036.50837 813.705568,1036.03004 C814.433661,1035.63486 814.703535,1034.72426 814.308349,1033.99616 C813.913163,1033.26807 813.002565,1032.9982 812.274472,1033.39338 C811.398002,1033.86911 810.520225,1034.34243 809.641149,1034.81336 C808.910906,1035.20456 808.636057,1036.11367 809.027257,1036.84392 C809.418456,1037.57416 810.327565,1037.84901 811.057808,1037.45781 Z M834.593697,1024.09462 C835.450799,1023.57973 836.306496,1023.06251 837.16078,1022.54297 C837.86859,1022.11251 838.093426,1021.18976 837.662966,1020.48195 C837.232506,1019.77414 836.309755,1019.54931 835.601945,1019.97977 C834.752309,1020.49648 833.901267,1021.01088 833.048829,1021.52297 C832.338687,1021.94957 832.108835,1022.87109 832.535438,1023.58123 C832.962042,1024.29137 833.883556,1024.52122 834.593697,1024.09462 Z M857.477668,1009.57089 C858.311743,1009.01235 859.144296,1008.45154 859.975317,1007.88845 C860.661137,1007.42376 860.840392,1006.49108 860.375695,1005.80526 C859.910999,1005.11944 858.978321,1004.94018 858.292501,1005.40488 C857.465992,1005.96491 856.637959,1006.52268 855.808413,1007.07819 C855.120071,1007.53914 854.935735,1008.47083 855.396687,1009.15917 C855.857639,1009.84751 856.789326,1010.03185 857.477668,1009.57089 Z M879.58112,993.972588 C880.386043,993.374547 881.189343,992.774318 881.99101,992.171907 C882.653291,991.674237 882.786735,990.733911 882.289065,990.07163 C881.791396,989.409349 880.85107,989.275905 880.188788,989.773574 C879.391466,990.372721 878.592519,990.969698 877.791959,991.564497 C877.126983,992.05856 876.988431,992.998147 877.482494,993.663123 C877.976557,994.328099 878.916144,994.466651 879.58112,993.972588 Z M900.90733,977.303572 C901.684829,976.664662 902.460591,976.023633 903.234605,975.380494 C903.871777,974.851058 903.959115,973.905335 903.429679,973.268162 C902.900243,972.630989 901.95452,972.543651 901.317347,973.073087 C900.547522,973.712746 899.775959,974.350306 899.002667,974.985758 C898.362621,975.511716 898.270134,976.456949 898.796092,977.096996 C899.32205,977.737042 900.267283,977.829529 900.90733,977.303572 Z M921.376294,959.629626 C922.119811,958.955306 922.861499,958.278967 923.601348,957.600617 C924.211964,957.04076 924.253111,956.091904 923.693253,955.481289 C923.133395,954.870674 922.18454,954.829526 921.573925,955.389384 C920.838076,956.064065 920.100399,956.736747 919.360902,957.407421 C918.747257,957.963957 918.70096,958.912575 919.257496,959.52622 C919.814031,960.139865 920.762649,960.186161 921.376294,959.629626 Z M940.987663,940.951115 C941.697227,940.241486 942.404864,939.529933 943.110567,938.816465 C943.69314,938.227482 943.687944,937.277749 943.098961,936.695176 C942.509978,936.112603 941.560245,936.1178 940.977672,936.706783 C940.275784,937.416394 939.571972,938.124101 938.866244,938.829894 C938.280485,939.415708 938.280529,940.365455 938.866343,940.951214 C939.452157,941.536973 940.401904,941.536929 940.987663,940.951115 Z M959.664355,921.337998 C960.338825,920.594177 961.011272,919.848528 961.68169,919.10106 C962.234828,918.484351 962.183293,917.536003 961.566584,916.982865 C960.949874,916.429727 960.001526,916.481262 959.448389,917.097972 C958.781596,917.841398 958.112785,918.583014 957.441963,919.322813 C956.885484,919.93651 956.931869,920.885124 957.545566,921.441602 C958.159263,921.99808 959.107877,921.951695 959.664355,921.337998 Z M977.336414,900.867359 C977.973721,900.091662 978.608918,899.314238 979.241996,898.535095 C979.764409,897.892151 979.666698,896.947443 979.023754,896.425031 C978.380811,895.902618 977.436103,896.000329 976.91369,896.643273 C976.284039,897.418198 975.65228,898.191415 975.018422,898.962913 C974.492524,899.603009 974.5851,900.548234 975.225195,901.074132 C975.865291,901.60003 976.810516,901.507455 977.336414,900.867359 Z M994.034356,879.497968 C994.631274,878.694243 995.226008,877.888901 995.818552,877.081954 C996.308874,876.414215 996.16505,875.475421 995.497311,874.985098 C994.829572,874.494776 993.890777,874.638601 993.400455,875.30634 C992.811123,876.108913 992.219613,876.909888 991.62593,877.709258 C991.131991,878.374326 991.270719,879.313887 991.935788,879.807826 C992.600856,880.301765 993.540417,880.163037 994.034356,879.497968 Z M1009.62862,857.391456 C1010.18542,856.559645 1010.73996,855.726322 1011.29223,854.891499 C1011.7493,854.200576 1011.55973,853.26994 1010.8688,852.812866 C1010.17788,852.355792 1009.24724,852.545365 1008.79017,853.236288 C1008.2409,854.066578 1007.68937,854.895375 1007.1356,855.722669 C1006.67477,856.411098 1006.85928,857.34275 1007.54771,857.803573 C1008.23614,858.264396 1009.16779,858.079885 1009.62862,857.391456 Z M1024.14815,834.504565 C1024.66287,833.647375 1025.17526,832.788784 1025.68531,831.9288 C1026.10791,831.216268 1025.87287,830.296063 1025.16034,829.873464 C1024.44781,829.450865 1023.5276,829.685902 1023.105,830.398434 C1022.59773,831.253738 1022.08813,832.107657 1021.57621,832.960182 C1021.14974,833.670404 1021.37977,834.591875 1022.08999,835.018344 C1022.80021,835.444814 1023.72168,835.214787 1024.14815,834.504565 Z M1037.50703,810.965907 C1037.9792,810.084109 1038.44898,809.201015 1038.91634,808.316634 C1039.30341,807.584195 1039.02344,806.676652 1038.291,806.289581 C1037.55856,805.90251 1036.65102,806.182487 1036.26395,806.914926 C1035.79913,807.794483 1035.33192,808.672761 1034.86232,809.549749 C1034.47126,810.280066 1034.74628,811.189123 1035.47659,811.580184 C1036.20691,811.971245 1037.11597,811.696224 1037.50703,810.965907 Z M1049.70426,786.772817 C1050.13313,785.867269 1050.55953,784.960529 1050.98345,784.052604 C1051.33394,783.301969 1051.00955,782.409336 1050.25891,782.058853 C1049.50828,781.70837 1048.61565,782.032757 1048.26516,782.783392 C1047.84356,783.686354 1047.41949,784.588139 1046.99296,785.488737 C1046.63837,786.237442 1046.95787,787.131837 1047.70657,787.486426 C1048.45527,787.841015 1049.34967,787.521521 1049.70426,786.772817 Z M1060.69029,762.013834 C1061.07433,761.08726 1061.45583,760.159597 1061.8348,759.230855 C1062.14778,758.463826 1061.7797,757.588304 1061.01267,757.275322 C1060.24564,756.962339 1059.37012,757.330417 1059.05714,758.097446 C1058.68025,759.021103 1058.30083,759.943686 1057.9189,760.865187 C1057.60171,761.630486 1057.96497,762.508016 1058.73027,762.825206 C1059.49557,763.142396 1060.3731,762.779133 1060.69029,762.013834 Z M1070.44312,736.732089 C1070.78077,735.787872 1071.11584,734.842674 1071.44833,733.896503 C1071.72299,733.11493 1071.31204,732.258689 1070.53047,731.984037 C1069.7489,731.709385 1068.89266,732.120326 1068.618,732.9019 C1068.28733,733.842884 1067.9541,734.782901 1067.6183,735.721942 C1067.33935,736.501994 1067.74558,737.36048 1068.52564,737.639425 C1069.30569,737.918369 1070.16417,737.512141 1070.44312,736.732089 Z M1078.92613,711.020635 C1079.21675,710.060577 1079.50476,709.099641 1079.79014,708.137837 C1080.02579,707.343633 1079.573,706.508769 1078.77879,706.273116 C1077.98459,706.037463 1077.14973,706.490258 1076.91407,707.284461 C1076.63026,708.240992 1076.34383,709.196659 1076.0548,710.151454 C1075.81479,710.944349 1076.26298,711.781691 1077.05588,712.021708 C1077.84877,712.261726 1078.68611,711.813531 1078.92613,711.020635 Z M1086.12622,684.924003 C1086.36881,683.951549 1086.60876,682.978322 1086.84606,682.004331 C1087.04216,681.199448 1086.54864,680.387992 1085.74376,680.191893 C1084.93888,679.995794 1084.12742,680.489311 1083.93132,681.294194 C1083.69532,682.262849 1083.45669,683.230745 1083.21543,684.197871 C1083.01491,685.001665 1083.50397,685.815819 1084.30776,686.016335 C1085.11155,686.216851 1085.92571,685.727797 1086.12622,684.924003 Z M1092.02095,658.538191 C1092.21549,657.553927 1092.40736,656.568989 1092.59656,655.583386 C1092.75273,654.769813 1092.2198,653.983678 1091.40623,653.827505 C1090.59266,653.671332 1089.80652,654.204261 1089.65035,655.017834 C1089.46219,655.99805 1089.27137,656.977604 1089.07789,657.956487 C1088.91725,658.769192 1089.44586,659.558238 1090.25857,659.718871 C1091.07127,659.879504 1091.86032,659.350896 1092.02095,658.538191 Z M1096.607,631.907866 C1096.7529,630.915523 1096.8961,629.922604 1097.03662,628.929116 C1097.15264,628.108854 1096.58174,627.349848 1095.76147,627.233829 C1094.94121,627.117811 1094.1822,627.688714 1094.06619,628.508977 C1093.92643,629.497055 1093.78401,630.484568 1093.63891,631.471506 C1093.51841,632.291123 1094.08516,633.053236 1094.90478,633.173734 C1095.72439,633.294231 1096.48651,632.727483 1096.607,631.907866 Z M1099.88771,605.021678 C1099.98472,604.023871 1100.07904,603.025582 1100.17067,602.02682 C1100.24635,601.201857 1099.63895,600.471737 1098.81398,600.396052 C1097.98902,600.320366 1097.2589,600.927775 1097.18322,601.752738 C1097.09208,602.746093 1096.99827,603.738977 1096.90179,604.73138 C1096.82162,605.555919 1097.42506,606.289326 1098.2496,606.36949 C1099.07414,606.449653 1099.80754,605.846218 1099.88771,605.021678 Z M1101.8492,578.029086 C1101.89753,577.027688 1101.94317,576.025899 1101.98613,575.023724 C1102.02161,574.196057 1101.37941,573.496341 1100.55174,573.460865 C1099.72407,573.425389 1099.02436,574.067587 1098.98888,574.895254 C1098.94616,575.892045 1098.90076,576.888452 1098.85269,577.884468 C1098.81275,578.711932 1099.45117,579.415098 1100.27864,579.455033 C1101.1061,579.494968 1101.80927,578.85655 1101.8492,578.029086 Z M1102.5,550.972116 C1102.49995,549.977939 1102.49727,548.984066 1102.49196,547.990504 C1102.48753,547.162088 1101.81238,546.494114 1100.98397,546.49854 C1100.15555,546.502967 1099.48758,547.178119 1099.492,548.006534 C1099.49728,548.994803 1099.49995,549.983382 1099.5,550.972265 C1099.50004,551.800692 1100.17165,552.472231 1101.00007,552.47219 C1101.8285,552.472149 1102.50004,551.800543 1102.5,550.972116 Z M1101.84654,523.915804 C1101.79786,522.909174 1101.74646,521.902942 1101.69235,520.897115 C1101.64785,520.069884 1100.94118,519.435355 1100.11394,519.479856 C1099.28671,519.524356 1098.65219,520.231034 1098.69669,521.058265 C1098.7505,522.05868 1098.80162,523.059501 1098.85004,524.060719 C1098.89006,524.888179 1099.59329,525.526527 1100.42075,525.48651 C1101.24821,525.446494 1101.88656,524.743264 1101.84654,523.915804 Z M1099.88242,496.92394 C1099.78543,495.92733 1099.68575,494.931202 1099.5834,493.935565 C1099.49868,493.111481 1098.76196,492.512105 1097.93787,492.596822 C1097.11379,492.681538 1096.51441,493.418267 1096.59913,494.242351 C1096.70093,495.232592 1096.80006,496.223322 1096.89653,497.214533 C1096.97677,498.039064 1097.71024,498.642428 1098.53477,498.562183 C1099.3593,498.481938 1099.96266,497.748472 1099.88242,496.92394 Z M1096.59912,470.038551 C1096.45216,469.0396 1096.30248,468.041236 1096.15008,467.043465 C1096.02499,466.224536 1095.25972,465.662063 1094.44079,465.787148 C1093.62186,465.912232 1093.05939,466.677506 1093.18447,467.496436 C1093.33604,468.488769 1093.48491,469.481694 1093.63107,470.475203 C1093.75165,471.294808 1094.51382,471.861482 1095.33342,471.740903 C1096.15303,471.620325 1096.7197,470.858156 1096.59912,470.038551 Z M1092.0001,443.356384 C1091.8061,442.375869 1091.60945,441.396026 1091.41015,440.416862 C1091.24492,439.60508 1090.45289,439.080947 1089.64111,439.246177 C1088.82933,439.411408 1088.3052,440.203434 1088.47043,441.015216 C1088.66864,441.989025 1088.86421,442.96351 1089.05715,443.938664 C1089.21794,444.751337 1090.00709,445.27979 1090.81977,445.118998 C1091.63244,444.958206 1092.16089,444.169057 1092.0001,443.356384 Z M1086.08746,416.920687 C1085.84442,415.947651 1085.59873,414.975393 1085.35041,414.003919 C1085.14524,413.201299 1084.32827,412.716965 1083.52565,412.922129 C1082.72303,413.127293 1082.2387,413.944264 1082.44386,414.746884 C1082.69083,415.713034 1082.93517,416.679966 1083.17687,417.64767 C1083.37762,418.451406 1084.19192,418.940221 1084.99566,418.73947 C1085.79939,418.538719 1086.28821,417.724422 1086.08746,416.920687 Z M1078.88002,390.827103 C1078.58897,389.866638 1078.2953,388.907053 1077.99902,387.948358 C1077.75441,387.156867 1076.91449,386.71353 1076.123,386.958137 C1075.33151,387.202744 1074.88817,388.042668 1075.13278,388.834159 C1075.42743,389.787598 1075.71949,390.741921 1076.00894,391.69712 C1076.24919,392.489945 1077.08666,392.937898 1077.87949,392.697649 C1078.67231,392.457401 1079.12027,391.619929 1078.88002,390.827103 Z M1070.38981,365.11892 C1070.05232,364.175991 1069.71225,363.234044 1069.36963,362.293089 C1069.08618,361.514661 1068.22536,361.1134 1067.44693,361.396847 C1066.66851,361.680294 1066.26724,362.541113 1066.55069,363.31954 C1066.89144,364.255339 1067.22964,365.192123 1067.56529,366.129883 C1067.84446,366.909855 1068.70306,367.315835 1069.48303,367.036665 C1070.263,366.757495 1070.66898,365.898891 1070.38981,365.11892 Z M1060.65008,339.889165 C1060.26827,338.968466 1059.88397,338.048846 1059.49718,337.130312 C1059.17567,336.366817 1058.2961,336.008515 1057.53261,336.330022 C1056.76911,336.651529 1056.41081,337.531097 1056.73232,338.294592 C1057.11699,339.208098 1057.49919,340.122685 1057.87891,341.038343 C1058.19624,341.80358 1059.07384,342.166676 1059.83908,341.849339 C1060.60432,341.532003 1060.96741,340.654403 1060.65008,339.889165 Z M1049.65948,315.132658 C1049.23055,314.227424 1048.79915,313.323384 1048.36528,312.42055 C1048.00646,311.673866 1047.11027,311.359443 1046.36359,311.718267 C1045.6169,312.077091 1045.30248,312.973282 1045.6613,313.719966 C1046.09279,314.617867 1046.52184,315.516966 1046.94843,316.417254 C1047.30316,317.165891 1048.19762,317.485214 1048.94625,317.130483 C1049.69489,316.775752 1050.01421,315.881295 1049.65948,315.132658 Z M1037.45781,290.942192 C1036.98429,290.058297 1036.50837,289.175707 1036.03004,288.294432 C1035.63486,287.566339 1034.72426,287.296465 1033.99616,287.691651 C1033.26807,288.086837 1032.9982,288.997435 1033.39338,289.725528 C1033.86911,290.601998 1034.34243,291.479775 1034.81336,292.358851 C1035.20456,293.089094 1036.11367,293.363943 1036.84392,292.972743 C1037.57416,292.581544 1037.84901,291.672435 1037.45781,290.942192 Z M1024.06784,267.361741 C1023.55293,266.504771 1023.03568,265.649206 1022.51611,264.795054 C1022.08558,264.087284 1021.16281,263.862534 1020.45504,264.29306 C1019.74727,264.723587 1019.52252,265.646359 1019.95305,266.354129 C1020.46979,267.203634 1020.98422,268.054545 1021.49634,268.906852 C1021.92301,269.616953 1022.84455,269.846719 1023.55465,269.420048 C1024.26475,268.993378 1024.49452,268.071842 1024.06784,267.361741 Z M1009.57089,244.522332 C1009.01235,243.688257 1008.45154,242.855704 1007.88845,242.024683 C1007.42376,241.338863 1006.49108,241.159608 1005.80526,241.624305 C1005.11944,242.089001 1004.94018,243.021679 1005.40488,243.707499 C1005.96491,244.534008 1006.52268,245.362041 1007.07819,246.191587 C1007.53914,246.879929 1008.47083,247.064265 1009.15917,246.603313 C1009.84751,246.142361 1010.03185,245.210674 1009.57089,244.522332 Z M993.941699,222.377309 C993.343645,221.572526 992.743404,220.769367 992.140981,219.96784 C991.64325,219.305605 990.702912,219.172249 990.040677,219.66998 C989.378442,220.167711 989.245085,221.10805 989.742817,221.770284 C990.341974,222.567468 990.938963,223.366275 991.533775,224.166695 C992.027901,224.831625 992.9675,224.970089 993.63243,224.475964 C994.29736,223.981839 994.435824,223.042239 993.941699,222.377309 Z M977.303572,201.09267 C976.664662,200.315171 976.023633,199.539409 975.380494,198.765395 C974.851058,198.128223 973.905335,198.040885 973.268162,198.570321 C972.630989,199.099757 972.543651,200.04548 973.073087,200.682653 C973.712746,201.452478 974.350306,202.224041 974.985758,202.997333 C975.511716,203.637379 976.456949,203.729866 977.096996,203.203908 C977.737042,202.67795 977.829529,201.732717 977.303572,201.09267 Z M959.629626,180.623706 C958.955306,179.880189 958.278967,179.138501 957.600617,178.398652 C957.04076,177.788036 956.091904,177.746889 955.481289,178.306747 C954.870674,178.866605 954.829526,179.81546 955.389384,180.426075 C956.064065,181.161924 956.736747,181.899601 957.407421,182.639098 C957.963957,183.252743 958.912575,183.29904 959.52622,182.742504 C960.139865,182.185969 960.186161,181.237351 959.629626,180.623706 Z M940.951115,161.012337 C940.241486,160.302773 939.529933,159.595136 938.816465,158.889433 C938.227482,158.30686 937.277749,158.312056 936.695176,158.901039 C936.112603,159.490022 936.1178,160.439755 936.706783,161.022328 C937.416394,161.724216 938.124101,162.428028 938.829894,163.133756 C939.415708,163.719515 940.365455,163.719471 940.951214,163.133657 C941.536973,162.547843 941.536929,161.598096 940.951115,161.012337 Z M921.337998,142.335645 C920.594177,141.661175 919.848528,140.988728 919.10106,140.31831 C918.484351,139.765172 917.536003,139.816707 916.982865,140.433416 C916.429727,141.050126 916.481262,141.998474 917.097972,142.551611 C917.841398,143.218404 918.583014,143.887215 919.322813,144.558037 C919.93651,145.114516 920.885124,145.068131 921.441602,144.454434 C921.99808,143.840737 921.951695,142.892123 921.337998,142.335645 Z M900.827386,124.630747 C900.051736,123.9936 899.27436,123.358563 898.495266,122.725645 C897.852274,122.203292 896.907575,122.30109 896.385222,122.944082 C895.86287,123.587074 895.960667,124.531773 896.60366,125.054126 C897.378536,125.683619 898.151705,126.315218 898.923156,126.948916 C899.563301,127.474755 900.508517,127.382091 901.034356,126.741947 C901.560194,126.101802 901.46753,125.156585 900.827386,124.630747 Z M879.497968,107.965644 C878.694243,107.368726 877.888901,106.773992 877.081954,106.181448 C876.414215,105.691126 875.475421,105.83495 874.985098,106.502689 C874.494776,107.170428 874.638601,108.109223 875.30634,108.599545 C876.108913,109.188877 876.909888,109.780387 877.709258,110.37407 C878.374326,110.868009 879.313887,110.729281 879.807826,110.064212 C880.301765,109.399144 880.163037,108.459583 879.497968,107.965644 Z M857.348346,92.34253 C856.516615,91.7858962 855.683375,91.2315242 854.848634,90.6794207 C854.157668,90.2224111 853.22705,90.4120701 852.770041,91.1030359 C852.313031,91.7940017 852.50269,92.7246197 853.193656,93.1816292 C854.023864,93.7307343 854.852579,94.2820958 855.679793,94.835707 C856.368265,95.2964651 857.2999,95.1118667 857.760658,94.4233949 C858.221416,93.7349231 858.036818,92.8032882 857.348346,92.34253 Z M834.504565,77.8518499 C833.647375,77.3371298 832.788784,76.8247407 831.9288,76.3146891 C831.216268,75.8920903 830.296063,76.1271275 829.873464,76.8396595 C829.450865,77.5521914 829.685902,78.4723967 830.398434,78.8949955 C831.253738,79.4022712 832.107657,79.9118718 832.960182,80.4237909 C833.670404,80.8502605 834.591875,80.6202339 835.018344,79.9100119 C835.444814,79.19979 835.214787,78.2783195 834.504565,77.8518499 Z M810.919953,64.4683668 C810.038279,63.9963668 809.155311,63.5267666 808.271056,63.059572 C807.53858,62.6725697 806.631064,62.9526312 806.244062,63.6851069 C805.857059,64.4175827 806.137121,65.3250989 806.869596,65.7121013 C807.749028,66.1767475 808.627181,66.6437865 809.504046,67.1132123 C810.2344,67.5042042 811.14343,67.2290969 811.534422,66.498743 C811.925414,65.7683891 811.650306,64.8593587 810.919953,64.4683668 Z M786.72555,52.2733578 C785.820155,51.8446656 784.913568,51.4184426 784.005797,50.9946943 C783.255129,50.6442818 782.362527,50.968753 782.012114,51.7194211 C781.661702,52.4700891 781.986173,53.3626913 782.736841,53.7131039 C783.63965,54.134536 784.541283,54.5584294 785.441729,54.9847787 C786.190467,55.3392961 787.084833,55.0197171 787.43935,54.2709789 C787.793868,53.5222406 787.474289,52.6278753 786.72555,52.2733578 Z M761.96533,41.2896068 C761.038942,40.9057547 760.111466,40.5244314 759.182912,40.1456417 C758.415853,39.8327318 757.540366,40.200892 757.227456,40.9679506 C756.914546,41.7350092 757.282706,42.6104966 758.049765,42.9234066 C758.973235,43.3001222 759.895633,43.6793578 760.816949,44.0611083 C761.582278,44.3782251 762.459773,44.0148772 762.77689,43.2495482 C763.094007,42.4842192 762.730659,41.6067235 761.96533,41.2896068 Z M736.68242,31.5391234 C735.738431,31.2016584 734.793462,30.8667679 733.84752,30.5344563 C733.06592,30.2598782 732.209719,30.6709006 731.935141,31.4525005 C731.660563,32.2341004 732.071585,33.0903018 732.853185,33.3648798 C733.793941,33.6953699 734.733731,34.0284248 735.672546,34.3640399 C736.452625,34.6429091 737.311072,34.2365981 737.589941,33.4565189 C737.86881,32.6764397 737.462499,31.8179925 736.68242,31.5391234 Z M710.969878,23.058505 C710.010101,22.7680717 709.049447,22.4802534 708.087926,22.195054 C707.293701,21.9594765 706.45888,22.4123505 706.223302,23.2065763 C705.987725,24.0008022 706.440599,24.8356228 707.234825,25.0712003 C708.191073,25.3548359 709.14646,25.6410762 710.100974,25.929917 C710.893893,26.1698581 711.731191,25.7215813 711.971132,24.9286627 C712.211073,24.1357442 711.762796,23.2984461 710.969878,23.058505 Z M684.87223,15.8608635 C683.900131,15.6184626 682.92726,15.3787031 681.953625,15.1415885 C681.148724,14.9455662 680.337314,15.4391606 680.141292,16.2440623 C679.94527,17.048964 680.438864,17.8603732 681.243766,18.0563955 C682.212067,18.2922111 683.179608,18.5306571 684.146381,18.77173 C684.950195,18.9721676 685.764301,18.4830347 685.964739,17.6792211 C686.165176,16.8754075 685.676043,16.0613011 684.87223,15.8608635 Z M658.538191,9.97904987 C657.553927,9.78450768 656.568989,9.59263727 655.583386,9.40344177 C654.769813,9.24726899 653.983678,9.78019743 653.827505,10.5937708 C653.671332,11.4073441 654.204261,12.1934786 655.017834,12.3496514 C655.99805,12.5378128 656.977604,12.7286344 657.956487,12.9221131 C658.769192,13.0827461 659.558238,12.5541377 659.718871,11.7414333 C659.879504,10.9287288 659.350896,10.1396829 658.538191,9.97904987 Z M631.907866,5.39299603 C630.915523,5.24710488 629.922604,5.10389836 628.929116,4.96337916 C628.108854,4.84736089 627.349848,5.41826398 627.233829,6.23852691 C627.117811,7.05878983 627.688714,7.8177957 628.508977,7.93381397 C629.497055,8.07356807 630.484568,8.21599477 631.471506,8.36109137 C632.291123,8.48158886 633.053236,7.9148406 633.173734,7.09522371 C633.294231,6.27560681 632.727483,5.51349352 631.907866,5.39299603 Z M605.021678,2.11229209 C604.023871,2.01528304 603.025582,1.92096193 602.02682,1.82933109 C601.201857,1.75364544 600.471737,2.36105436 600.396052,3.1860169 C600.320366,4.01097943 600.927775,4.74109905 601.752738,4.81678469 C602.746093,4.90791948 603.738977,5.00172988 604.73138,5.09821356 C605.555919,5.17837715 606.289326,4.57494129 606.36949,3.75040184 C606.449653,2.92586239 605.846218,2.19245567 605.021678,2.11229209 Z M578.029086,0.15079844 C577.027688,0.102468921 576.025899,0.0568252436 575.023724,0.0138693906 C574.196057,-0.021606614 573.496341,0.620591217 573.460865,1.44825839 C573.425389,2.27592557 574.067587,2.97564137 574.895254,3.01111737 C575.892045,3.05384248 576.888452,3.09924091 577.884468,3.14731069 C578.711932,3.18724581 579.415098,2.54882751 579.455033,1.7213635 C579.494968,0.893899486 578.85655,0.190733559 578.029086,0.15079844 Z M550.972116,-0.49999931 C549.977939,-0.49995012 548.984066,-0.497270144 547.990504,-0.491961041 C547.162088,-0.487534403 546.494114,0.187617385 546.49854,1.01603268 C546.502967,1.84444798 547.178119,2.51242277 548.006534,2.50799613 C548.994803,2.50271531 549.983382,2.50004961 550.972265,2.50000069 C551.800692,2.4999597 552.472231,1.82835359 552.47219,0.99992647 C552.472149,0.171499346 551.800543,-0.5000403 550.972116,-0.49999931 Z M523.860696,0.156128703 C522.854155,0.204905966 521.848012,0.256396706 520.842274,0.310598874 C520.015048,0.355180581 519.380589,1.06192091 519.42517,1.88914759 C519.469752,2.71637427 520.176492,3.35083337 521.003719,3.30625166 C522.004046,3.25234108 523.004777,3.20112728 524.005907,3.1526123 C524.833363,3.11251357 525.471642,2.40922142 525.431543,1.58176532 C525.391444,0.754309224 524.688152,0.116029969 523.860696,0.156128703 Z M496.86956,2.12287701 C495.873042,2.21995917 494.877008,2.3197222 493.881464,2.42216374 C493.057388,2.5069612 492.458085,3.24374854 492.542882,4.06782432 C492.62768,4.8919001 493.364467,5.49120359 494.188543,5.40640613 C495.178691,5.30451978 496.169328,5.20529734 497.160447,5.10874115 C497.984971,5.02841488 498.588262,4.29488912 498.507936,3.4703655 C498.427609,2.64584189 497.694084,2.04255074 496.86956,2.12287701 Z M469.98497,5.40876163 C468.986118,5.55581051 467.987851,5.70557913 466.990179,5.85806466 C466.171262,5.98322907 465.608864,6.74855843 465.734029,7.56747563 C465.859193,8.38639282 466.624522,8.94879057 467.44344,8.82362615 C468.435675,8.67197152 469.428503,8.5230189 470.421914,8.37677109 C471.241507,8.25611242 471.808106,7.49388768 471.687447,6.6742945 C471.566788,5.85470132 470.804564,5.28810295 469.98497,5.40876163 Z M443.303674,10.0103298 C442.32326,10.2044102 441.343519,10.4011412 440.364457,10.6005197 C439.552691,10.7658297 439.028635,11.5579063 439.193945,12.3696723 C439.359255,13.1814384 440.151331,13.7054946 440.963097,13.5401846 C441.936805,13.3418964 442.911189,13.1462412 443.886242,12.953222 C444.698899,12.7923502 445.227276,12.003149 445.066404,11.1904918 C444.905532,10.3778346 444.116331,9.84945807 443.303674,10.0103298 Z M416.920687,15.9125444 C415.947651,16.1555817 414.975393,16.4012653 414.003919,16.6495914 C413.201299,16.8547555 412.716965,17.6717262 412.922129,18.4743464 C413.127293,19.2769666 413.944264,19.7613004 414.746884,19.5561362 C415.713034,19.3091708 416.679966,19.0648334 417.64767,18.8231277 C418.451406,18.6223768 418.940221,17.8080798 418.73947,17.0043444 C418.538719,16.200609 417.724422,15.7117935 416.920687,15.9125444 Z M390.776354,23.1353638 C389.815999,23.42648 388.856525,23.720214 387.897941,24.0165618 C387.106473,24.2612453 386.663217,25.1012121 386.9079,25.89268 C387.152584,26.6841479 387.992551,27.1274042 388.784019,26.8827206 C389.737347,26.5879978 390.691559,26.2958744 391.646649,26.0063543 C392.439451,25.7660291 392.887322,24.9285138 392.646996,24.1357116 C392.406671,23.3429095 391.569156,22.8950385 390.776354,23.1353638 Z M365.11892,31.6101852 C364.175991,31.9476812 363.234044,32.2877452 362.293089,32.6303728 C361.514661,32.9138195 361.1134,33.7746387 361.396847,34.5530662 C361.680294,35.3314938 362.541113,35.732755 363.31954,35.4493083 C364.255339,35.1085585 365.192123,34.7703584 366.129883,34.4347123 C366.909855,34.1555425 367.315835,33.2969387 367.036665,32.5169671 C366.757495,31.7369955 365.898891,31.3310154 365.11892,31.6101852 Z M339.840668,41.3700359 C338.920088,41.7518947 338.000586,42.1362501 337.082171,42.523097 C336.318706,42.8446769 335.960488,43.7242791 336.282068,44.4877435 C336.603648,45.2512078 337.48325,45.609426 338.246714,45.2878462 C339.160102,44.9031168 340.074571,44.5208655 340.990111,44.1410971 C341.755319,43.8236871 342.11833,42.9460522 341.80092,42.1808448 C341.48351,41.4156374 340.605875,41.0526259 339.840668,41.3700359 Z M315.085399,52.3629147 C314.180288,52.7918949 313.276373,53.2233421 312.373662,53.6572508 C311.627012,54.0161453 311.312674,54.9123662 311.671568,55.6590162 C312.030463,56.4056662 312.926684,56.7200042 313.673334,56.3611096 C314.571112,55.9295718 315.470089,55.5004822 316.370254,55.0738462 C317.118857,54.7190435 317.438095,53.8245564 317.083292,53.0759533 C316.728489,52.3273502 315.834002,52.008112 315.085399,52.3629147 Z M290.896246,64.5668091 C290.012478,65.0403614 289.130016,65.516324 288.248869,65.994691 C287.520813,66.3899459 287.251025,67.3005691 287.64628,68.0286247 C288.041535,68.7566804 288.952158,69.0264687 289.680213,68.6312138 C290.556556,68.1554551 291.434207,67.6820877 292.313155,67.2111177 C293.043361,66.819849 293.318123,65.9107145 292.926855,65.1805088 C292.535586,64.4503031 291.626452,64.1755404 290.896246,64.5668091 Z M267.361741,77.9321552 C266.504771,78.4470729 265.649206,78.9643195 264.795054,79.4838884 C264.087284,79.9144151 263.862534,80.8371868 264.29306,81.5449567 C264.723587,82.2527266 265.646359,82.4774767 266.354129,82.04695 C267.203634,81.5302077 268.054545,81.0157754 268.906852,80.5036593 C269.616953,80.0769888 269.846719,79.1554532 269.420048,78.4453519 C268.993378,77.7352507 268.071842,77.5054847 267.361741,77.9321552 Z M244.47923,92.4579712 C243.645292,93.0165359 242.812876,93.5773733 241.981991,94.1404764 C241.296214,94.605237 241.117046,95.5379315 241.581806,96.2237077 C242.046567,96.9094839 242.979262,97.0886524 243.665038,96.6238918 C244.491412,96.0638458 245.319309,95.5060533 246.148719,94.9505214 C246.837018,94.4895047 247.021266,93.5578005 246.56025,92.8695017 C246.099233,92.181203 245.167529,91.9969545 244.47923,92.4579712 Z M222.377309,108.058301 C221.572526,108.656355 220.769367,109.256596 219.96784,109.859019 C219.305605,110.35675 219.172249,111.297088 219.66998,111.959323 C220.167711,112.621558 221.10805,112.754915 221.770284,112.257183 C222.567468,111.658026 223.366275,111.061037 224.166695,110.466225 C224.831625,109.972099 224.970089,109.0325 224.475964,108.36757 C223.981839,107.70264 223.042239,107.564176 222.377309,108.058301 Z M201.052703,124.729275 C200.275349,125.368187 199.499732,126.009217 198.725863,126.652358 C198.088739,127.181853 198.001489,128.127584 198.530984,128.764708 C199.060479,129.401831 200.006211,129.489081 200.643334,128.959586 C201.413015,128.319926 202.184434,127.682365 202.957582,127.046911 C203.597579,126.520893 203.689978,125.575651 203.16396,124.935654 C202.637943,124.295656 201.692701,124.203257 201.052703,124.729275 Z M180.585413,142.405106 C179.842045,143.079418 179.100505,143.755748 178.360804,144.434087 C177.750241,144.994001 177.709182,145.942861 178.269096,146.553424 C178.82901,147.163988 179.777869,147.205047 180.388433,146.645133 C181.124134,145.970462 181.861664,145.297789 182.601012,144.627123 C183.214605,144.070531 183.260813,143.121908 182.704221,142.508315 C182.147629,141.894722 181.199006,141.848514 180.585413,142.405106 Z M160.975792,161.085436 C160.266381,161.795045 159.558896,162.506577 158.853345,163.220023 C158.270827,163.80906 158.276111,164.758793 158.865148,165.341311 C159.454185,165.923829 160.403917,165.918544 160.986435,165.329508 C161.688172,164.619918 162.391833,163.912233 163.097409,163.20646 C163.683113,162.620592 163.682981,161.670844 163.097112,161.08514 C162.511244,160.499435 161.561497,160.499568 160.975792,161.085436 Z M142.30092,180.700301 C141.626607,181.444089 140.954315,182.189703 140.284053,182.937137 C139.730973,183.553897 139.782595,184.502241 140.399356,185.055321 C141.016116,185.608402 141.96446,185.556779 142.51754,184.940019 C143.184178,184.196627 143.852833,183.455045 144.5235,182.71528 C145.079921,182.101531 145.033447,181.152921 144.419699,180.5965 C143.80595,180.040079 142.85734,180.086553 142.30092,180.700301 Z M124.630747,201.172614 C123.9936,201.948264 123.358563,202.72564 122.725645,203.504734 C122.203292,204.147726 122.30109,205.092425 122.944082,205.614778 C123.587074,206.13713 124.531773,206.039333 125.054126,205.39634 C125.683619,204.621464 126.315218,203.848295 126.948916,203.076844 C127.474755,202.436699 127.382091,201.491483 126.741947,200.965644 C126.101802,200.439806 125.156585,200.53247 124.630747,201.172614 Z M107.934766,222.543612 C107.338012,223.347274 106.743441,224.152551 106.15106,224.959434 C105.660799,225.627218 105.804711,226.565999 106.472496,227.05626 C107.14028,227.54652 108.079061,227.402608 108.569322,226.734824 C109.158491,225.932315 109.749839,225.131403 110.343359,224.332097 C110.837236,223.666982 110.69842,222.727434 110.033305,222.233558 C109.36819,221.739681 108.428642,221.878497 107.934766,222.543612 Z M92.34253,244.651654 C91.7858962,245.483385 91.2315242,246.316625 90.6794207,247.151366 C90.2224111,247.842332 90.4120701,248.77295 91.1030359,249.229959 C91.7940017,249.686969 92.7246197,249.49731 93.1816292,248.806344 C93.7307343,247.976136 94.2820958,247.147421 94.835707,246.320207 C95.2964651,245.631735 95.1118667,244.7001 94.4233949,244.239342 C93.7349231,243.778584 92.8032882,243.963182 92.34253,244.651654 Z M77.8250896,267.540005 C77.3075041,268.402151 76.7922766,269.265714 76.2794135,270.130686 C75.8569041,270.843271 76.0920568,271.763446 76.8046418,272.185956 C77.5172267,272.608465 78.4374025,272.373312 78.8599119,271.660727 C79.3699838,270.800464 79.8824074,269.9416 80.3971763,269.084145 C80.8235789,268.373883 80.5934653,267.452434 79.8832032,267.026032 C79.1729411,266.599629 78.2514922,266.829743 77.8250896,267.540005 Z M64.4683668,291.080047 C63.9963668,291.961721 63.5267666,292.844689 63.059572,293.728944 C62.6725697,294.46142 62.9526312,295.368936 63.6851069,295.755938 C64.4175827,296.142941 65.3250989,295.862879 65.7121013,295.130404 C66.1767475,294.250972 66.6437865,293.372819 67.1132123,292.495954 C67.5042042,291.7656 67.2290969,290.85657 66.498743,290.465578 C65.7683891,290.074586 64.8593587,290.349694 64.4683668,291.080047 Z M52.2733578,315.27445 C51.8446656,316.179845 51.4184426,317.086432 50.9946943,317.994203 C50.6442818,318.744871 50.968753,319.637473 51.7194211,319.987886 C52.4700891,320.338298 53.3626913,320.013827 53.7131039,319.263159 C54.134536,318.36035 54.5584294,317.458717 54.9847787,316.558271 C55.3392961,315.809533 55.0197171,314.915167 54.2709789,314.56065 C53.5222406,314.206132 52.6278753,314.525711 52.2733578,315.27445 Z M41.2896068,340.03467 C40.9057547,340.961058 40.5244314,341.888534 40.1456417,342.817088 C39.8327318,343.584147 40.200892,344.459634 40.9679506,344.772544 C41.7350092,345.085454 42.6104966,344.717294 42.9234066,343.950235 C43.3001222,343.026765 43.6793578,342.104367 44.0611083,341.183051 C44.3782251,340.417722 44.0148772,339.540227 43.2495482,339.22311 C42.4842192,338.905993 41.6067235,339.269341 41.2896068,340.03467 Z M31.5391234,365.31758 C31.2016584,366.261569 30.8667679,367.206538 30.5344563,368.15248 C30.2598782,368.93408 30.6709006,369.790281 31.4525005,370.064859 C32.2341004,370.339437 33.0903018,369.928415 33.3648798,369.146815 C33.6953699,368.206059 34.0284248,367.266269 34.3640399,366.327454 C34.6429091,365.547375 34.2365981,364.688928 33.4565189,364.410059 C32.6764397,364.13119 31.8179925,364.537501 31.5391234,365.31758 Z M23.058505,391.030122 C22.7680717,391.989899 22.4802534,392.950553 22.195054,393.912074 C21.9594765,394.706299 22.4123505,395.54112 23.2065763,395.776698 C24.0008022,396.012275 24.8356228,395.559401 25.0712003,394.765175 C25.3548359,393.808927 25.6410762,392.85354 25.929917,391.899026 C26.1698581,391.106107 25.7215813,390.268809 24.9286627,390.028868 C24.1357442,389.788927 23.2984461,390.237204 23.058505,391.030122 Z M15.8608635,417.12777 C15.6184626,418.099869 15.3787031,419.07274 15.1415885,420.046375 C14.9455662,420.851276 15.4391606,421.662686 16.2440623,421.858708 C17.048964,422.05473 17.8603732,421.561136 18.0563955,420.756234 C18.2922111,419.787933 18.5306571,418.820392 18.77173,417.853619 C18.9721676,417.049805 18.4830347,416.235699 17.6792211,416.035261 C16.8754075,415.834824 16.0613011,416.323957 15.8608635,417.12777 Z M9.96863323,443.514524 C9.77428281,444.498325 9.58260158,445.482798 9.39359267,446.467936 C9.23749734,447.281524 9.77050063,448.067608 10.5840888,448.223703 C11.397677,448.379798 12.1837608,447.846795 12.3398561,447.033207 C12.527832,446.053454 12.7184654,445.074362 12.9117534,444.09594 C13.0723068,443.28322 12.5436212,442.494225 11.730901,442.333672 C10.9181808,442.173119 10.1291867,442.701804 9.96863323,443.514524 Z M5.38512095,470.145718 C5.23942358,471.137421 5.09640731,472.129698 4.95607484,473.122544 C4.84013424,473.942817 5.41110919,474.701769 6.23138309,474.81771 C7.05165699,474.93365 7.81060881,474.362676 7.92654942,473.542402 C8.06611781,472.554962 8.2083553,471.568088 8.35325918,470.581786 C8.47367607,469.762157 7.90685287,469.0001 7.08722413,468.879683 C6.26759539,468.759266 5.50553784,469.326089 5.38512095,470.145718 Z M2.10700753,497.032705 C2.01008864,498.030607 1.91585816,499.02899 1.82431841,500.027848 C1.74871447,500.852818 2.35619571,501.582877 3.18116574,501.658481 C4.00613576,501.734085 4.73619521,501.126604 4.81179915,500.301634 C4.90284335,499.308184 4.99656361,498.315206 5.09295763,497.322709 C5.17303987,496.498161 4.56953165,495.764814 3.7449843,495.684732 C2.92043695,495.60465 2.18708977,496.208158 2.10700753,497.032705 Z M0.148141398,524.026025 C0.0999299778,525.027031 0.0544022599,526.028429 0.0115602238,527.030211 C-0.0238357971,527.857881 0.61842965,528.557535 1.44610025,528.592931 C2.27377085,528.628327 2.97342459,527.986062 3.00882061,527.158391 C3.05143251,526.16199 3.09671561,525.165973 3.14466793,524.170347 C3.18452124,523.342879 2.54603342,522.639776 1.71856547,522.599923 C0.891097514,522.560069 0.187994709,523.198557 0.148141398,524.026025 Z M-0.499993792,551.08365 C-0.499846232,552.077744 -0.497068301,553.071533 -0.491661656,554.065012 C-0.48715331,554.893427 0.188064357,555.561335 1.01647921,555.556827 C1.84489407,555.552318 2.51280227,554.877101 2.50829392,554.048686 C2.50291608,553.0605 2.50015295,552.072005 2.50000618,551.083205 C2.49988321,550.254778 1.82821065,549.583305 0.999783537,549.583428 C0.171356422,549.583551 -0.50011676,550.255223 -0.499993792,551.08365 Z M0.156128703,578.139304 C0.204905966,579.145845 0.256396706,580.151988 0.310598874,581.157726 C0.355180581,581.984952 1.06192091,582.619411 1.88914759,582.57483 C2.71637427,582.530248 3.35083337,581.823508 3.30625166,580.996281 C3.25234108,579.995954 3.20112728,578.995223 3.1526123,577.994093 C3.11251357,577.166637 2.40922142,576.528358 1.58176532,576.568457 C0.754309224,576.608556 0.116029969,577.311848 0.156128703,578.139304 Z M2.12287701,605.13044 C2.21995917,606.126958 2.3197222,607.122992 2.42216374,608.118536 C2.5069612,608.942612 3.24374854,609.541915 4.06782432,609.457118 C4.8919001,609.37232 5.49120359,608.635533 5.40640613,607.811457 C5.30451978,606.821309 5.20529734,605.830672 5.10874115,604.839553 C5.02841488,604.015029 4.29488912,603.411738 3.4703655,603.492064 C2.64584189,603.572391 2.04255074,604.305916 2.12287701,605.13044 Z M5.40876163,632.01503 C5.55581051,633.013882 5.70557913,634.012149 5.85806466,635.009821 C5.98322907,635.828738 6.74855843,636.391136 7.56747563,636.265971 C8.38639282,636.140807 8.94879057,635.375478 8.82362615,634.55656 C8.67197152,633.564325 8.5230189,632.571497 8.37677109,631.578086 C8.25611242,630.758493 7.49388768,630.191894 6.6742945,630.312553 C5.85470132,630.433212 5.28810295,631.195436 5.40876163,632.01503 Z M10.0103298,658.696326 C10.2044102,659.67674 10.4011412,660.656481 10.6005197,661.635543 C10.7658297,662.447309 11.5579063,662.971365 12.3696723,662.806055 C13.1814384,662.640745 13.7054946,661.848669 13.5401846,661.036903 C13.3418964,660.063195 13.1462412,659.088811 12.953222,658.113758 C12.7923502,657.301101 12.003149,656.772724 11.1904918,656.933596 C10.3778346,657.094468 9.84945807,657.883669 10.0103298,658.696326 Z M15.9254768,685.131079 C16.1685883,686.104008 16.4143455,687.076161 16.6627448,688.047528 C16.8679868,688.850128 17.6850044,689.334383 18.4876047,689.129141 C19.290205,688.923899 19.7744596,688.106881 19.5692176,687.304281 C19.3221794,686.338236 19.0777688,685.371411 18.8359893,684.403812 C18.6351601,683.600096 17.8208154,683.11136 17.0170996,683.312189 C16.2133838,683.513019 15.7246476,684.327363 15.9254768,685.131079 Z M23.1353638,711.223646 C23.42648,712.184001 23.720214,713.143475 24.0165618,714.102059 C24.2612453,714.893527 25.1012121,715.336783 25.89268,715.0921 C26.6841479,714.847416 27.1274042,714.007449 26.8827206,713.215981 C26.5879978,712.262653 26.2958744,711.308441 26.0063543,710.353351 C25.7660291,709.560549 24.9285138,709.112678 24.1357116,709.353004 C23.3429095,709.593329 22.8950385,710.430844 23.1353638,711.223646 Z M31.6279622,736.93074 C31.9655195,737.873554 32.3056444,738.815385 32.6483323,739.756226 C32.9318537,740.534626 33.7927114,740.935805 34.5711117,740.652284 C35.3495121,740.368762 35.7506908,739.507905 35.4671694,738.729504 C35.1263597,737.79382 34.788099,736.857151 34.4523919,735.919504 C34.1731469,735.13956 33.314504,734.733662 32.5345593,735.012907 C31.7546146,735.292152 31.3487173,736.150795 31.6279622,736.93074 Z M41.3901543,762.207827 C41.7720674,763.128288 42.1564763,764.047671 42.5433763,764.965968 C42.865029,765.729402 43.7446653,766.087536 44.508099,765.765884 C45.2715328,765.444231 45.6296671,764.564595 45.3080145,763.801161 C44.9232323,762.887891 44.5409277,761.97354 44.1611054,761.058118 C43.8436221,760.292941 42.9659525,759.930014 42.2007755,760.247497 C41.4355985,760.56498 41.072671,761.44265 41.3901543,762.207827 Z M52.3629147,786.914601 C52.7918949,787.819712 53.2233421,788.723627 53.6572508,789.626338 C54.0161453,790.372988 54.9123662,790.687326 55.6590162,790.328432 C56.4056662,789.969537 56.7200042,789.073316 56.3611096,788.326666 C55.9295718,787.428888 55.5004822,786.529911 55.0738462,785.629746 C54.7190435,784.881143 53.8245564,784.561905 53.0759533,784.916708 C52.3273502,785.271511 52.008112,786.165998 52.3629147,786.914601 Z M64.5668091,811.103754 C65.0403614,811.987522 65.516324,812.869984 65.994691,813.751131 C66.3899459,814.479187 67.3005691,814.748975 68.0286247,814.35372 C68.7566804,813.958465 69.0264687,813.047842 68.6312138,812.319787 C68.1554551,811.443444 67.6820877,810.565793 67.2111177,809.686845 C66.819849,808.956639 65.9107145,808.681877 65.1805088,809.073145 C64.4503031,809.464414 64.1755404,810.373548 64.5668091,811.103754 Z M77.9589318,834.682818 C78.4738803,835.539656 78.9911571,836.39509 79.5107556,837.24911 C79.9413486,837.95684 80.8641414,838.181503 81.571871,837.75091 C82.2796005,837.320317 82.5042641,836.397525 82.073671,835.689795 C81.5568993,834.840421 81.0424369,833.989641 80.5302902,833.137465 C80.1035527,832.427404 79.1819955,832.197725 78.4719344,832.624462 C77.7618734,833.0512 77.5321943,833.972757 77.9589318,834.682818 Z M92.4579712,857.52077 C93.0165359,858.354708 93.5773733,859.187124 94.1404764,860.018009 C94.605237,860.703786 95.5379315,860.882954 96.2237077,860.418194 C96.9094839,859.953433 97.0886524,859.020738 96.6238918,858.334962 C96.0638458,857.508588 95.5060533,856.680691 94.9505214,855.851281 C94.4895047,855.162982 93.5578005,854.978734 92.8695017,855.43975 C92.181203,855.900767 91.9969545,856.832471 92.4579712,857.52077 Z M108.089195,879.664259 C108.687261,880.468901 109.287514,881.27192 109.889948,882.073307 C110.387741,882.735496 111.328091,882.868765 111.99028,882.370972 C112.652469,881.873179 112.785738,880.932828 112.287945,880.27064 C111.688776,879.473596 111.091775,878.674929 110.496951,877.874648 C110.002763,877.209764 109.06315,877.071388 108.398267,877.565575 C107.733383,878.059763 107.595007,878.999376 108.089195,879.664259 Z M124.729275,900.947297 C125.368187,901.724651 126.009217,902.500268 126.652358,903.274137 C127.181853,903.911261 128.127584,903.998511 128.764708,903.469016 C129.401831,902.939521 129.489081,901.993789 128.959586,901.356666 C128.319926,900.586985 127.682365,899.815566 127.046911,899.042418 C126.520893,898.402421 125.575651,898.310022 124.935654,898.83604 C124.295656,899.362057 124.203257,900.307299 124.729275,900.947297 Z M142.405106,921.414587 C143.079418,922.157955 143.755748,922.899495 144.434087,923.639196 C144.994001,924.249759 145.942861,924.290818 146.553424,923.730904 C147.163988,923.17099 147.205047,922.222131 146.645133,921.611567 C145.970462,920.875866 145.297789,920.138336 144.627123,919.398988 C144.070531,918.785395 143.121908,918.739187 142.508315,919.295779 C141.894722,919.852371 141.848514,920.800994 142.405106,921.414587 Z M161.085436,941.024208 C161.795045,941.733619 162.506577,942.441104 163.220023,943.146655 C163.80906,943.729173 164.758793,943.723889 165.341311,943.134852 C165.923829,942.545815 165.918544,941.596083 165.329508,941.013565 C164.619918,940.311828 163.912233,939.608167 163.20646,938.902591 C162.620592,938.316887 161.670844,938.317019 161.08514,938.902888 C160.499435,939.488756 160.499568,940.438503 161.085436,941.024208 Z M180.700301,959.69908 C181.444089,960.373393 182.189703,961.045685 182.937137,961.715947 C183.553897,962.269027 184.502241,962.217405 185.055321,961.600644 C185.608402,960.983884 185.556779,960.03554 184.940019,959.48246 C184.196627,958.815822 183.455045,958.147167 182.71528,957.4765 C182.101531,956.920079 181.152921,956.966553 180.5965,957.580301 C180.040079,958.19405 180.086553,959.14266 180.700301,959.69908 Z M201.212591,977.402088 C201.988193,978.039075 202.76552,978.673951 203.544565,979.30671 C204.187606,979.829003 205.132296,979.731118 205.654589,979.088078 C206.176882,978.445037 206.078997,977.500347 205.435956,976.978054 C204.661128,976.34872 203.888008,975.71728 203.116604,975.083741 C202.47641,974.557962 201.531203,974.650714 201.005424,975.290908 C200.479645,975.931102 200.572397,976.87631 201.212591,977.402088 Z M222.543612,994.065234 C223.347274,994.661988 224.152551,995.256559 224.959434,995.84894 C225.627218,996.339201 226.565999,996.195289 227.05626,995.527504 C227.54652,994.85972 227.402608,993.920939 226.734824,993.430678 C225.932315,992.841509 225.131403,992.250161 224.332097,991.656641 C223.666982,991.162764 222.727434,991.30158 222.233558,991.966695 C221.739681,992.63181 221.878497,993.571358 222.543612,994.065234 Z M244.694767,1009.68632 C245.526417,1010.24279 246.359575,1010.79699 247.194234,1011.34893 C247.885242,1011.80587 248.815842,1011.61613 249.272788,1010.92512 C249.729733,1010.23411 249.539987,1009.30351 248.848979,1008.84657 C248.018853,1008.29763 247.190219,1007.74643 246.363086,1007.19299 C245.674571,1006.73229 244.742953,1006.91698 244.28226,1007.60549 C243.821566,1008.29401 244.006252,1009.22563 244.694767,1009.68632 Z M267.540005,1024.17491 C268.402151,1024.6925 269.265714,1025.20772 270.130686,1025.72059 C270.843271,1026.1431 271.763446,1025.90794 272.185956,1025.19536 C272.608465,1024.48277 272.373312,1023.5626 271.660727,1023.14009 C270.800464,1022.63002 269.9416,1022.11759 269.084145,1021.60282 C268.373883,1021.17642 267.452434,1021.40653 267.026032,1022.1168 C266.599629,1022.82706 266.829743,1023.74851 267.540005,1024.17491 Z M291.126004,1037.55623 C292.012281,1038.03059 292.899865,1038.50252 293.788749,1038.97202 C294.521273,1039.35893 295.428754,1039.07876 295.815667,1038.34624 C296.202579,1037.61371 295.922406,1036.70623 295.189882,1036.31932 C294.305847,1035.85238 293.423103,1035.38302 292.541661,1034.91125 C291.81127,1034.52033 290.902265,1034.79552 290.511343,1035.52592 C290.12042,1036.25631 290.395613,1037.16531 291.126004,1037.55623 Z M315.321718,1049.74902 C316.226961,1050.17754 317.133395,1050.60358 318.041012,1051.02715 C318.791713,1051.3775 319.684285,1051.05294 320.034627,1050.30224 C320.384969,1049.55154 320.060413,1048.65897 319.309712,1048.30862 C318.407056,1047.88737 317.505576,1047.46365 316.605281,1047.03748 C315.856509,1046.68303 314.962174,1047.0027 314.607728,1047.75147 C314.253282,1048.50024 314.572946,1049.39457 315.321718,1049.74902 Z M340.083176,1060.73049 C341.009378,1061.11416 341.936667,1061.4953 342.865034,1061.87391 C343.632123,1062.18675 344.507575,1061.81851 344.820413,1061.05142 C345.13325,1060.28433 344.765007,1059.40888 343.997919,1059.09604 C343.074635,1058.7195 342.152423,1058.34045 341.231292,1057.95888 C340.465933,1057.64183 339.588472,1058.00527 339.271428,1058.77063 C338.954385,1059.53599 339.317817,1060.41345 340.083176,1060.73049 Z M365.36725,1070.47863 C366.311012,1070.81591 367.255753,1071.15062 368.201465,1071.48275 C368.983091,1071.75725 369.839253,1071.34615 370.113757,1070.56452 C370.388261,1069.7829 369.977157,1068.92674 369.195532,1068.65223 C368.255003,1068.32192 367.315441,1067.98905 366.376853,1067.65362 C365.596746,1067.37482 364.738338,1067.78122 364.459544,1068.56132 C364.180751,1069.34143 364.587144,1070.19984 365.36725,1070.47863 Z M391.080882,1078.95685 C392.040378,1079.2471 393.000748,1079.53473 393.961986,1079.81975 C394.756234,1080.05525 395.591012,1079.6023 395.826514,1078.80805 C396.062016,1078.0138 395.609062,1077.17902 394.814814,1076.94352 C393.858847,1076.66007 392.903742,1076.37401 391.949507,1076.08536 C391.156566,1075.84549 390.319311,1076.29385 390.079447,1077.08679 C389.839583,1077.87973 390.287941,1078.71699 391.080882,1078.95685 Z M417.179546,1086.15204 C418.15129,1086.39426 419.123805,1086.63383 420.097082,1086.87076 C420.902003,1087.0667 421.713365,1086.57303 421.90931,1085.76811 C422.105256,1084.96319 421.611584,1084.15183 420.806664,1083.95588 C419.838718,1083.72025 418.871531,1083.48199 417.905111,1083.24111 C417.101278,1083.04075 416.287219,1083.52996 416.08686,1084.33379 C415.886501,1085.13763 416.375713,1085.95169 417.179546,1086.15204 Z M443.514524,1092.03137 C444.498325,1092.22572 445.482798,1092.4174 446.467936,1092.60641 C447.281524,1092.7625 448.067608,1092.2295 448.223703,1091.41591 C448.379798,1090.60232 447.846795,1089.81624 447.033207,1089.66014 C446.053454,1089.47217 445.074362,1089.28153 444.09594,1089.08825 C443.28322,1088.92769 442.494225,1089.45638 442.333672,1090.2691 C442.173119,1091.08182 442.701804,1091.87081 443.514524,1092.03137 Z M470.145718,1096.61488 C471.137421,1096.76058 472.129698,1096.90359 473.122544,1097.04393 C473.942817,1097.15987 474.701769,1096.58889 474.81771,1095.76862 C474.93365,1094.94834 474.362676,1094.18939 473.542402,1094.07345 C472.554962,1093.93388 471.568088,1093.79164 470.581786,1093.64674 C469.762157,1093.52632 469.0001,1094.09315 468.879683,1094.91278 C468.759266,1095.7324 469.326089,1096.49446 470.145718,1096.61488 Z M497.032705,1099.89299 C498.030607,1099.98991 499.02899,1100.08414 500.027848,1100.17568 C500.852818,1100.25129 501.582877,1099.6438 501.658481,1098.81883 C501.734085,1097.99386 501.126604,1097.2638 500.301634,1097.1882 C499.308184,1097.09716 498.315206,1097.00344 497.322709,1096.90704 C496.498161,1096.82696 495.764814,1097.43047 495.684732,1098.25502 C495.60465,1099.07956 496.208158,1099.81291 497.032705,1099.89299 Z M524.026025,1101.85186 C525.027031,1101.90007 526.028429,1101.9456 527.030211,1101.98844 C527.857881,1102.02384 528.557535,1101.38157 528.592931,1100.5539 C528.628327,1099.72623 527.986062,1099.02658 527.158391,1098.99118 C526.16199,1098.94857 525.165973,1098.90328 524.170347,1098.85533 C523.342879,1098.81548 522.639776,1099.45397 522.599923,1100.28143 C522.560069,1101.1089 523.198557,1101.81201 524.026025,1101.85186 Z" opacity=".45"/>
</svg>
