<svg xmlns="http://www.w3.org/2000/svg" width="1502" height="1502" viewBox="0 0 1502 1502">
  <path fill="#FFF" d="M751,1501.5 C752.000347,1501.5 753.000468,1501.49805 754.00036,1501.49414 C754.828781,1501.4909 755.497724,1500.81671 755.494486,1499.98829 C755.491248,1499.15986 754.817055,1498.49092 753.988634,1498.49416 C752.992651,1498.49805 751.996438,1498.5 751,1498.5 C750.171573,1498.5 749.5,1499.17157 749.5,1500 C749.5,1500.82843 750.171573,1501.5 751,1501.5 Z M778.052853,1501.02212 C779.047579,1500.98692 780.042036,1500.94978 781.03622,1500.9107 C781.864008,1500.87816 782.508685,1500.18073 782.476147,1499.35294 C782.443608,1498.52515 781.746176,1497.88048 780.918388,1497.91302 C779.928118,1497.95194 778.937576,1497.98893 777.946767,1498.02399 C777.118858,1498.05329 776.471453,1498.74819 776.500748,1499.5761 C776.530043,1500.40401 777.224944,1501.05141 778.052853,1501.02212 Z M805.052126,1499.58592 C806.063054,1499.51407 807.073655,1499.44021 808.083926,1499.36433 C808.910026,1499.30228 809.529413,1498.58229 809.467365,1497.75619 C809.405317,1496.93009 808.685331,1496.31071 807.859231,1496.37275 C806.852963,1496.44833 805.846365,1496.52191 804.839441,1496.59347 C804.013099,1496.6522 803.390827,1497.3697 803.449558,1498.19604 C803.508289,1499.02238 804.225783,1499.64466 805.052126,1499.58592 Z M832.013035,1497.18406 C833.013604,1497.07681 834.013802,1496.96758 835.013624,1496.85636 C835.836973,1496.76477 836.43018,1496.02306 836.33859,1495.19971 C836.246999,1494.37637 835.505295,1493.78316 834.681946,1493.87475 C833.686105,1493.98553 832.689889,1494.09433 831.693303,1494.20115 C830.869594,1494.28944 830.273421,1495.02876 830.361713,1495.85247 C830.450004,1496.67618 831.189327,1497.27235 832.013035,1497.18406 Z M858.838833,1493.82032 C859.827145,1493.6783 860.815041,1493.53432 861.802517,1493.38839 C862.622044,1493.26729 863.188224,1492.50475 863.067116,1491.68522 C862.946008,1490.8657 862.183473,1490.29952 861.363946,1490.42062 C860.380417,1490.56597 859.39647,1490.70937 858.412108,1490.85082 C857.592104,1490.96866 857.022886,1491.72893 857.140722,1492.54894 C857.258559,1493.36894 858.018829,1493.93816 858.838833,1493.82032 Z M885.579768,1489.48324 C886.575253,1489.30326 887.570258,1489.12127 888.564778,1488.93729 C889.379384,1488.7866 889.917589,1488.00407 889.766893,1487.18946 C889.616197,1486.37486 888.833666,1485.83665 888.01906,1485.98735 C887.028527,1486.17059 886.037511,1486.35184 885.046016,1486.53111 C884.230806,1486.6785 883.689433,1487.45884 883.836824,1488.27405 C883.984216,1489.08926 884.764558,1489.63063 885.579768,1489.48324 Z M912.067893,1484.19851 C913.046594,1483.98479 914.024772,1483.76912 915.002421,1483.5515 C915.811057,1483.37151 916.320671,1482.57006 916.140675,1481.76143 C915.960679,1480.95279 915.159234,1480.44318 914.350598,1480.62317 C913.376876,1480.83992 912.402628,1481.05472 911.427857,1481.26758 C910.618503,1481.44432 910.105669,1482.24371 910.28241,1483.05307 C910.459151,1483.86242 911.258539,1484.37525 912.067893,1484.19851 Z M938.423491,1477.94015 C939.403279,1477.68862 940.382477,1477.43512 941.361081,1477.17965 C942.162644,1476.97039 942.642805,1476.15096 942.433551,1475.3494 C942.224296,1474.54784 941.404866,1474.06768 940.603303,1474.27693 C939.628634,1474.53138 938.653374,1474.78386 937.677527,1475.03437 C936.875119,1475.24037 936.391628,1476.05784 936.59762,1476.86025 C936.803613,1477.66265 937.621083,1478.14614 938.423491,1477.94015 Z M964.481047,1470.74492 C965.439652,1470.46142 966.397626,1470.17601 967.354965,1469.8887 C968.148429,1469.65057 968.598614,1468.81429 968.360481,1468.02083 C968.122349,1467.22737 967.286075,1466.77718 966.492612,1467.01531 C965.539125,1467.30147 964.585006,1467.58573 963.630258,1467.86808 C962.835843,1468.10302 962.382298,1468.93748 962.617237,1469.73189 C962.852176,1470.52631 963.686632,1470.97985 964.481047,1470.74492 Z M990.287505,1462.60082 C991.241368,1462.28065 992.194534,1461.95856 993.147001,1461.63456 C993.931293,1461.36777 994.350811,1460.5157 994.08402,1459.73141 C993.817229,1458.94712 992.965158,1458.5276 992.180866,1458.79439 C991.232232,1459.11709 990.2829,1459.43788 989.332875,1459.75676 C988.54751,1460.02037 988.124546,1460.87074 988.38816,1461.6561 C988.651773,1462.44147 989.502139,1462.86443 990.287505,1462.60082 Z M1015.81786,1453.51197 C1016.76369,1453.15576 1017.70875,1452.79765 1018.65305,1452.43763 C1019.42713,1452.14251 1019.8154,1451.27576 1019.52028,1450.50168 C1019.22516,1449.7276 1018.3584,1449.33933 1017.58432,1449.63445 C1016.64382,1449.99302 1015.70256,1450.3497 1014.76054,1450.70447 C1013.98527,1450.99644 1013.59348,1451.86161 1013.88545,1452.63688 C1014.17742,1453.41215 1015.04259,1453.80394 1015.81786,1453.51197 Z M1040.91455,1443.53823 C1041.8328,1443.15393 1042.75025,1442.76781 1043.66691,1442.37986 C1044.42983,1442.05698 1044.78655,1441.17677 1044.46367,1440.41385 C1044.14079,1439.65094 1043.26057,1439.29422 1042.49766,1439.6171 C1041.58468,1440.00349 1040.67091,1440.38806 1039.75635,1440.77082 C1038.99215,1441.09064 1038.63191,1441.96942 1038.95174,1442.73362 C1039.27157,1443.49782 1040.15035,1443.85806 1040.91455,1443.53823 Z M1065.68819,1432.63868 C1066.59307,1432.22085 1067.4971,1431.80122 1068.40028,1431.37978 C1069.151,1431.02949 1069.47561,1430.13693 1069.12531,1429.38621 C1068.77501,1428.63549 1067.88246,1428.31088 1067.13174,1428.66118 C1066.23219,1429.08092 1065.33178,1429.49887 1064.43053,1429.91503 C1063.67841,1430.26232 1063.35024,1431.15357 1063.69753,1431.90569 C1064.04482,1432.6578 1064.93607,1432.98598 1065.68819,1432.63868 Z M1090.04877,1420.85093 C1090.93735,1420.40095 1091.82503,1419.94921 1092.71179,1419.4957 C1093.44936,1419.11849 1093.74149,1418.21479 1093.36428,1417.47722 C1092.98707,1416.73965 1092.08337,1416.44752 1091.3458,1416.82473 C1090.46259,1417.27642 1089.57847,1417.72636 1088.69345,1418.17453 C1087.95438,1418.54879 1087.65865,1419.45133 1088.03291,1420.19039 C1088.40717,1420.92946 1089.30971,1421.22519 1090.04877,1420.85093 Z M1113.97313,1408.18756 C1114.85672,1407.69924 1115.73932,1407.20915 1116.62092,1406.71728 C1117.34436,1406.31364 1117.60362,1405.39997 1117.19999,1404.67652 C1116.79636,1403.95308 1115.88268,1403.69382 1115.15924,1404.09745 C1114.28116,1404.58736 1113.4021,1405.07549 1112.52204,1405.56185 C1111.79697,1405.96256 1111.53403,1406.87518 1111.93473,1407.60025 C1112.33544,1408.32532 1113.24806,1408.58826 1113.97313,1408.18756 Z M1137.43779,1394.66145 C1138.29875,1394.14425 1139.15867,1393.62532 1140.01754,1393.10467 C1140.72597,1392.67522 1140.95212,1391.75279 1140.52268,1391.04437 C1140.09323,1390.33594 1139.1708,1390.10979 1138.46237,1390.53923 C1137.60693,1391.05781 1136.75044,1391.57466 1135.89292,1392.0898 C1135.18278,1392.5164 1134.95293,1393.43792 1135.37953,1394.14806 C1135.80614,1394.8582 1136.72765,1395.08805 1137.43779,1394.66145 Z M1160.35968,1380.32436 C1161.19557,1379.78039 1162.03038,1379.23475 1162.8641,1378.68746 C1163.55664,1378.23285 1163.74952,1377.30289 1163.2949,1376.61035 C1162.84028,1375.9178 1161.91033,1375.72493 1161.21778,1376.17954 C1160.38739,1376.72465 1159.55591,1377.26811 1158.72336,1377.80992 C1158.02901,1378.26178 1157.83244,1379.19096 1158.2843,1379.8853 C1158.73616,1380.57965 1159.66534,1380.77622 1160.35968,1380.32436 Z M1182.7192,1365.1959 C1183.53953,1364.61916 1184.35871,1364.04079 1185.17673,1363.46079 C1185.85252,1362.98163 1186.01192,1362.04535 1185.53276,1361.36956 C1185.0536,1360.69377 1184.11733,1360.53436 1183.44154,1361.01352 C1182.62677,1361.59122 1181.81085,1362.16729 1180.99379,1362.74172 C1180.31609,1363.21818 1180.15295,1364.15381 1180.62941,1364.83151 C1181.10587,1365.50922 1182.0415,1365.67235 1182.7192,1365.1959 Z M1204.6092,1349.21043 C1205.41004,1348.60324 1206.20967,1347.99445 1207.00808,1347.38406 C1207.66622,1346.88092 1207.79186,1345.93952 1207.28872,1345.28139 C1206.78558,1344.62325 1205.84418,1344.49761 1205.18604,1345.00075 C1204.3908,1345.60871 1203.59436,1346.21508 1202.7967,1346.81985 C1202.13656,1347.32036 1202.00716,1348.26125 1202.50766,1348.92139 C1203.00817,1349.58153 1203.94906,1349.71093 1204.6092,1349.21043 Z M1225.8366,1332.50958 C1226.61465,1331.87459 1227.39144,1331.23804 1228.16695,1330.59994 C1228.80667,1330.07358 1228.89856,1329.12829 1228.3722,1328.48857 C1227.84584,1327.84886 1226.90055,1327.75696 1226.26083,1328.28332 C1225.4884,1328.91889 1224.7147,1329.55291 1223.93973,1330.18538 C1223.29792,1330.70919 1223.20226,1331.6541 1223.72607,1332.29591 C1224.24987,1332.93773 1225.19479,1333.03339 1225.8366,1332.50958 Z M1246.49237,1315.02603 C1247.24428,1314.36613 1247.99487,1313.70474 1248.74415,1313.04186 C1249.36461,1312.49294 1249.42261,1311.54497 1248.87369,1310.9245 C1248.32477,1310.30404 1247.3768,1310.24604 1246.75633,1310.79496 C1246.01003,1311.45521 1245.26241,1312.11397 1244.51349,1312.77125 C1243.89085,1313.3177 1243.82909,1314.26544 1244.37554,1314.88808 C1244.922,1315.51072 1245.86973,1315.57248 1246.49237,1315.02603 Z M1266.5004,1296.82231 C1267.23204,1296.13232 1267.96231,1295.44088 1268.69119,1294.74798 C1269.29161,1294.1772 1269.31564,1293.22775 1268.74486,1292.62733 C1268.17408,1292.02692 1267.22464,1292.00289 1266.62422,1292.57366 C1265.89823,1293.26381 1265.17086,1293.95252 1264.44212,1294.63976 C1263.83943,1295.20814 1263.81161,1296.15748 1264.37999,1296.76017 C1264.94837,1297.36287 1265.89771,1297.39068 1266.5004,1296.82231 Z M1285.89025,1277.86819 C1286.59737,1277.15172 1287.30305,1276.43385 1288.00731,1275.71456 C1288.58687,1275.12262 1288.57684,1274.17293 1287.98491,1273.59336 C1287.39297,1273.01379 1286.44327,1273.02382 1285.8637,1273.61576 C1285.16225,1274.33219 1284.45936,1275.04722 1283.75505,1275.76084 C1283.17312,1276.35046 1283.17935,1277.30019 1283.76898,1277.88212 C1284.3586,1278.46404 1285.30832,1278.45781 1285.89025,1277.86819 Z M1304.54124,1258.28209 C1305.22021,1257.54306 1305.8977,1256.80267 1306.57372,1256.06094 C1307.13175,1255.44866 1307.08778,1254.49993 1306.4755,1253.9419 C1305.86322,1253.38386 1304.91449,1253.42784 1304.35645,1254.04012 C1303.68312,1254.77891 1303.00831,1255.51635 1302.33204,1256.25246 C1301.77157,1256.86251 1301.81177,1257.81141 1302.42182,1258.37188 C1303.03188,1258.93235 1303.98077,1258.89215 1304.54124,1258.28209 Z M1322.48471,1238.0356 C1323.13895,1237.27023 1323.79165,1236.50355 1324.44282,1235.73557 C1324.97857,1235.1037 1324.90066,1234.15715 1324.26879,1233.6214 C1323.63693,1233.08564 1322.69038,1233.16355 1322.15462,1233.79542 C1321.50604,1234.56035 1320.85593,1235.32399 1320.20429,1236.08632 C1319.66601,1236.71605 1319.74014,1237.6629 1320.36986,1238.20117 C1320.99958,1238.73945 1321.94643,1238.66532 1322.48471,1238.0356 Z M1339.70075,1217.14862 C1340.32593,1216.36182 1340.94953,1215.57378 1341.57156,1214.78449 C1342.08433,1214.13384 1341.97256,1213.19069 1341.32191,1212.67791 C1340.67125,1212.16514 1339.7281,1212.27691 1339.21533,1212.92757 C1338.59577,1213.71372 1337.97464,1214.49863 1337.35195,1215.2823 C1336.83658,1215.9309 1336.94459,1216.87449 1337.59319,1217.38986 C1338.24179,1217.90523 1339.18538,1217.79722 1339.70075,1217.14862 Z M1356.16944,1195.64105 C1356.76169,1194.83812 1357.35235,1194.03403 1357.9414,1193.22876 C1358.43051,1192.56013 1358.28498,1191.6216 1357.61635,1191.13249 C1356.94772,1190.64339 1356.00919,1190.78892 1355.52008,1191.45755 C1354.93337,1192.25961 1354.34506,1193.06051 1353.75516,1193.86024 C1353.26341,1194.52692 1353.40521,1195.46602 1354.07189,1195.95778 C1354.73858,1196.44954 1355.67768,1196.30773 1356.16944,1195.64105 Z M1371.83099,1173.59114 C1372.39716,1172.76294 1372.96167,1171.93361 1373.52452,1171.10315 C1373.9893,1170.41739 1373.81017,1169.48469 1373.12441,1169.01991 C1372.43865,1168.55512 1371.50595,1168.73426 1371.04116,1169.42002 C1370.48055,1170.24717 1369.91829,1171.07319 1369.35438,1171.8981 C1368.88686,1172.58199 1369.06226,1173.5154 1369.74616,1173.98292 C1370.43006,1174.45044 1371.36347,1174.27504 1371.83099,1173.59114 Z M1386.70951,1150.96342 C1387.24448,1150.11702 1387.77777,1149.26955 1388.30935,1148.42101 C1388.74917,1147.71898 1388.53659,1146.79332 1387.83455,1146.35351 C1387.13251,1145.9137 1386.20686,1146.12628 1385.76705,1146.82831 C1385.23758,1147.67346 1384.70643,1148.51755 1384.17359,1149.36058 C1383.73097,1150.06086 1383.93985,1150.98735 1384.64013,1151.42996 C1385.3404,1151.87257 1386.26689,1151.6637 1386.70951,1150.96342 Z M1400.74954,1127.83891 C1401.25301,1126.97497 1401.75477,1126.11003 1402.25479,1125.24408 C1402.66904,1124.52666 1402.42328,1123.60926 1401.70587,1123.19501 C1400.98845,1122.78075 1400.07105,1123.02651 1399.6568,1123.74393 C1399.15877,1124.60641 1398.65903,1125.4679 1398.15757,1126.32839 C1397.74045,1127.04414 1397.98254,1127.96252 1398.69829,1128.37963 C1399.41405,1128.79675 1400.33242,1128.55466 1400.74954,1127.83891 Z M1413.93782,1104.24148 C1414.41216,1103.35564 1414.88472,1102.46883 1415.35551,1101.58107 C1415.74363,1100.84919 1415.46495,1099.94124 1414.73307,1099.55312 C1414.00118,1099.165 1413.09324,1099.44368 1412.70512,1100.17556 C1412.23622,1101.05977 1411.76555,1101.94302 1411.29311,1102.82532 C1410.90205,1103.55564 1411.17707,1104.4647 1411.90738,1104.85576 C1412.6377,1105.24682 1413.54676,1104.9718 1413.93782,1104.24148 Z M1426.29269,1080.13077 C1426.73214,1079.23355 1427.1698,1078.33543 1427.60567,1077.43643 C1427.96708,1076.691 1427.65576,1075.79372 1426.91033,1075.43231 C1426.16489,1075.0709 1425.26762,1075.38221 1424.90621,1076.12764 C1424.47209,1077.02304 1424.03618,1077.91756 1423.59849,1078.81119 C1423.2341,1079.55517 1423.54182,1080.45368 1424.2858,1080.81808 C1425.02978,1081.18247 1425.9283,1080.87476 1426.29269,1080.13077 Z M1437.73657,1055.65666 C1438.14439,1054.74175 1438.55039,1053.826 1438.95455,1052.90942 C1439.28879,1052.15141 1438.94525,1051.26597 1438.18725,1050.93173 C1437.42924,1050.59749 1436.5438,1050.94103 1436.20956,1051.69904 C1435.80702,1052.61194 1435.40266,1053.52401 1434.99647,1054.43525 C1434.65918,1055.19191 1434.99915,1056.07872 1435.75581,1056.416 C1436.51247,1056.75329 1437.39928,1056.41332 1437.73657,1055.65666 Z M1448.2638,1030.84589 C1448.63856,1029.91634 1449.01146,1028.98602 1449.38249,1028.05492 C1449.68916,1027.28535 1449.3139,1026.41288 1448.54432,1026.10621 C1447.77475,1025.79954 1446.90228,1026.1748 1446.59561,1026.94438 C1446.22607,1027.87174 1445.85467,1028.79832 1445.48142,1029.72413 C1445.17166,1030.49246 1445.5434,1031.36643 1446.31173,1031.6762 C1447.08007,1031.98596 1447.95404,1031.61422 1448.2638,1030.84589 Z M1457.91816,1005.58942 C1458.25897,1004.64697 1458.5979,1003.7038 1458.93494,1002.7599 C1459.21352,1001.97972 1458.80689,1001.12142 1458.0267,1000.84284 C1457.24652,1000.56426 1456.38823,1000.97089 1456.10965,1001.75107 C1455.77396,1002.69117 1455.4364,1003.63055 1455.09696,1004.56921 C1454.81524,1005.34827 1455.2184,1006.20819 1455.99745,1006.48992 C1456.77651,1006.77164 1457.63644,1006.36848 1457.91816,1005.58942 Z M1466.65873,979.974819 C1466.9649,979.021279 1467.26917,978.067072 1467.57153,977.112202 C1467.82162,976.322424 1467.38411,975.479448 1466.59433,975.229363 C1465.80456,974.979278 1464.96158,975.416785 1464.7115,976.206562 C1464.41035,977.15759 1464.1073,978.107958 1463.80236,979.057661 C1463.5491,979.846424 1463.9832,980.691156 1464.77197,980.944422 C1465.56073,981.197688 1466.40546,980.763582 1466.65873,979.974819 Z M1474.47395,954.02411 C1474.74536,953.059718 1475.01485,952.094715 1475.28242,951.129103 C1475.50363,950.330758 1475.03578,949.504241 1474.23743,949.283025 C1473.43909,949.06181 1472.61257,949.529666 1472.39135,950.328011 C1472.12487,951.289737 1471.85646,952.250859 1471.58613,953.21137 C1471.3617,954.008817 1471.82622,954.837214 1472.62367,955.061646 C1473.42112,955.286078 1474.24951,954.821557 1474.47395,954.02411 Z M1481.31822,927.900477 C1481.55444,926.927332 1481.78872,925.95363 1482.02107,924.979376 C1482.21324,924.173548 1481.71578,923.364505 1480.90995,923.172328 C1480.10412,922.980152 1479.29508,923.477616 1479.1029,924.283444 C1478.87149,925.253782 1478.63815,926.22357 1478.40288,927.192803 C1478.20746,927.997852 1478.70166,928.808891 1479.50671,929.004309 C1480.31176,929.199728 1481.1228,928.705526 1481.31822,927.900477 Z M1487.22488,901.487703 C1487.42573,900.506412 1487.62463,899.524617 1487.82158,898.542323 C1487.98443,897.730061 1487.45798,896.939573 1486.64572,896.776718 C1485.83346,896.613863 1485.04297,897.140312 1484.88012,897.952574 C1484.68396,898.930926 1484.48586,899.90878 1484.28581,900.886133 C1484.1197,901.697734 1484.64296,902.490333 1485.45456,902.656452 C1486.26616,902.822571 1487.05876,902.299304 1487.22488,901.487703 Z M1492.17133,874.879179 C1492.3366,873.891087 1492.4999,872.902544 1492.66124,871.913555 C1492.79462,871.095936 1492.23993,870.324997 1491.42231,870.191616 C1490.6047,870.058234 1489.83376,870.612918 1489.70038,871.430537 C1489.53968,872.415567 1489.37704,873.400153 1489.21243,874.384289 C1489.07577,875.201367 1489.62736,875.974524 1490.44444,876.111184 C1491.26152,876.247844 1492.03467,875.696257 1492.17133,874.879179 Z M1496.1551,848.097972 C1496.28452,847.105189 1496.41199,846.112007 1496.53748,845.118432 C1496.6413,844.296535 1496.05917,843.546099 1495.23728,843.442287 C1494.41538,843.338474 1493.66495,843.920597 1493.56113,844.742494 C1493.43614,845.732106 1493.30918,846.721325 1493.18027,847.710147 C1493.07318,848.531623 1493.65229,849.284378 1494.47377,849.391473 C1495.29525,849.498568 1496.048,848.919448 1496.1551,848.097972 Z M1499.17419,821.166554 C1499.26789,820.169024 1499.35963,819.171145 1499.44939,818.172921 C1499.52358,817.347823 1498.91486,816.618802 1498.08976,816.544607 C1497.26466,816.470412 1496.53564,817.079139 1496.46144,817.904237 C1496.37204,818.898497 1496.28067,819.892412 1496.18734,820.885979 C1496.10986,821.710775 1496.71568,822.442214 1497.54047,822.519692 C1498.36527,822.597171 1499.09671,821.99135 1499.17419,821.166554 Z M1501.22276,794.181716 C1501.28074,793.181687 1501.33675,792.181358 1501.39079,791.180732 C1501.43547,790.353511 1500.80109,789.646699 1499.97387,789.602023 C1499.14665,789.557348 1498.43983,790.191727 1498.39516,791.018949 C1498.34133,792.015622 1498.28554,793.012 1498.22779,794.008077 C1498.17984,794.835116 1498.81142,795.544433 1499.63846,795.592382 C1500.4655,795.640331 1501.17482,795.008754 1501.22276,794.181716 Z M1502.30778,767.166808 C1502.33023,766.165343 1502.35071,765.163623 1502.36923,764.161654 C1502.38454,763.333368 1501.72549,762.6495 1500.89721,762.634192 C1500.06892,762.618884 1499.38505,763.277932 1499.36974,764.106218 C1499.3513,765.104256 1499.33089,766.102045 1499.30853,767.09958 C1499.28997,767.927799 1499.94632,768.614253 1500.77454,768.632817 C1501.60276,768.651382 1502.28922,767.995027 1502.30778,767.166808 Z M1502.4361,740.097945 C1502.423,739.083548 1502.40788,738.069399 1502.39076,737.055503 C1502.37677,736.227194 1501.69395,735.567059 1500.86564,735.581049 C1500.03733,735.595039 1499.3772,736.277858 1499.39119,737.106166 C1499.40824,738.116088 1499.4233,739.126261 1499.43635,740.136684 C1499.44704,740.965042 1500.12723,741.627887 1500.95559,741.61719 C1501.78395,741.606492 1502.44679,740.926303 1502.4361,740.097945 Z M1501.60955,713.093354 C1501.56082,712.085745 1501.5101,711.078428 1501.45738,710.071408 C1501.41407,709.244114 1500.70831,708.608569 1499.88101,708.65188 C1499.05372,708.69519 1498.41817,709.400954 1498.46148,710.228248 C1498.51399,711.231293 1498.56452,712.234634 1498.61306,713.238268 C1498.65307,714.065728 1499.3563,714.704077 1500.18376,714.66406 C1501.01122,714.624043 1501.64957,713.920814 1501.60955,713.093354 Z M1499.82244,686.112426 C1499.73836,685.11361 1499.6523,684.115131 1499.56427,683.116992 C1499.49149,682.291769 1498.76351,681.681793 1497.93828,681.754573 C1497.11306,681.827354 1496.50309,682.55533 1496.57587,683.380554 C1496.66355,684.37473 1496.74927,685.369246 1496.83302,686.364099 C1496.90252,687.189606 1497.62806,687.802473 1498.45357,687.732975 C1499.27908,687.663478 1499.89194,686.937933 1499.82244,686.112426 Z M1497.06763,659.178246 C1496.94861,658.190221 1496.82764,657.202577 1496.70474,656.215319 C1496.60239,655.393238 1495.853,654.809775 1495.03092,654.912118 C1494.20884,655.014461 1493.62538,655.763855 1493.72772,656.585936 C1493.85013,657.569258 1493.97062,658.552963 1494.08917,659.537049 C1494.18825,660.35953 1494.93532,660.945961 1495.7578,660.84688 C1496.58028,660.747799 1497.16671,660.000726 1497.06763,659.178246 Z M1493.35007,632.387563 C1493.19333,631.390306 1493.03459,630.393493 1492.87386,629.397128 C1492.74193,628.579274 1491.97197,628.023225 1491.15412,628.155158 C1490.33627,628.287091 1489.78022,629.057046 1489.91215,629.8749 C1490.07224,630.867277 1490.23034,631.860101 1490.38645,632.853368 C1490.51508,633.671749 1491.28278,634.230903 1492.10117,634.102274 C1492.91955,633.973646 1493.4787,633.205944 1493.35007,632.387563 Z M1488.67156,605.762621 C1488.48068,604.780709 1488.28785,603.799286 1488.09307,602.818355 C1487.93173,602.005792 1487.14222,601.477877 1486.32965,601.639224 C1485.51709,601.800571 1484.98918,602.590081 1485.15052,603.402644 C1485.34452,604.379639 1485.53658,605.357125 1485.72669,606.335098 C1485.88478,607.148302 1486.67216,607.67938 1487.48537,607.521295 C1488.29857,607.36321 1488.82965,606.575825 1488.67156,605.762621 Z M1483.01792,579.255269 C1482.78909,578.27034 1482.55828,577.285965 1482.32549,576.302148 C1482.13474,575.495982 1481.32658,574.997091 1480.52041,575.187845 C1479.71424,575.378599 1479.21535,576.186763 1479.40611,576.992929 C1479.63796,577.972792 1479.86784,578.953211 1480.09575,579.934181 C1480.28323,580.741116 1481.08936,581.243287 1481.89629,581.05581 C1482.70323,580.868334 1483.2054,580.062204 1483.01792,579.255269 Z M1476.42244,553.031881 C1476.16102,552.066746 1475.89766,551.102208 1475.63239,550.13827 C1475.41259,549.339536 1474.58689,548.870224 1473.78816,549.090031 C1472.98943,549.309839 1472.52011,550.13553 1472.73992,550.934264 C1473.00413,551.894324 1473.26642,552.854982 1473.52679,553.816235 C1473.74339,554.615846 1474.56718,555.088476 1475.3668,554.871883 C1476.16641,554.65529 1476.63904,553.831493 1476.42244,553.031881 Z M1468.87444,527.044587 C1468.57591,526.082323 1468.27545,525.120721 1467.97306,524.159785 C1467.72439,523.369561 1466.8822,522.930546 1466.09197,523.179218 C1465.30175,523.42789 1464.86273,524.270082 1465.11141,525.060306 C1465.41258,526.017375 1465.71184,526.975108 1466.00916,527.9335 C1466.25463,528.724726 1467.09503,529.167151 1467.88626,528.921684 C1468.67748,528.676218 1469.11991,527.835813 1468.87444,527.044587 Z M1460.40152,501.385913 C1460.0727,500.447607 1459.74202,499.510002 1459.40949,498.573101 C1459.13239,497.792391 1458.27486,497.384135 1457.49415,497.661235 C1456.71344,497.938335 1456.30519,498.795859 1456.58229,499.576568 C1456.91349,500.5097 1457.24284,501.443534 1457.57033,502.378065 C1457.8443,503.159876 1458.70019,503.571559 1459.482,503.297584 C1460.26381,503.023609 1460.67549,502.167724 1460.40152,501.385913 Z M1450.98892,476.010967 C1450.62472,475.081208 1450.25866,474.152211 1449.89076,473.223982 C1449.58551,472.453842 1448.71373,472.076973 1447.94359,472.382221 C1447.17345,472.68747 1446.79659,473.559244 1447.10183,474.329383 C1447.46826,475.253881 1447.83285,476.179144 1448.19559,477.105166 C1448.49774,477.876524 1449.368,478.256889 1450.13935,477.954735 C1450.91071,477.65258 1451.29108,476.782326 1450.98892,476.010967 Z M1440.64139,450.945483 C1440.24276,450.027472 1439.8423,449.110285 1439.44,448.193926 C1439.10698,447.43538 1438.2221,447.090419 1437.46355,447.423434 C1436.70501,447.756449 1436.36004,448.641335 1436.69306,449.399881 C1437.09374,450.312561 1437.4926,451.226065 1437.88963,452.14039 C1438.2196,452.900268 1439.10309,453.248782 1439.86297,452.918818 C1440.62284,452.588853 1440.97136,451.705361 1440.64139,450.945483 Z M1429.42565,426.344382 C1428.9939,425.440996 1428.56034,424.538491 1428.12498,423.636873 C1427.76476,422.890863 1426.86798,422.578121 1426.12197,422.938344 C1425.37596,423.298567 1425.06322,424.195346 1425.42344,424.941356 C1425.85706,425.839359 1426.28888,426.738245 1426.7189,427.638009 C1427.07612,428.385459 1427.97164,428.701799 1428.71909,428.344574 C1429.46654,427.987348 1429.78288,427.091832 1429.42565,426.344382 Z M1417.32792,402.163847 C1416.86453,401.277979 1416.39938,400.393046 1415.93246,399.509056 C1415.54554,398.776534 1414.63806,398.496365 1413.90554,398.883281 C1413.17301,399.270197 1412.89285,400.17768 1413.27976,400.910201 C1413.74481,401.790653 1414.20811,402.672043 1414.66964,403.554364 C1415.05362,404.288429 1415.95997,404.572227 1416.69404,404.188247 C1417.4281,403.804266 1417.7119,402.897912 1417.32792,402.163847 Z M1404.36085,378.427099 C1403.86754,377.561532 1403.3725,376.696951 1402.87574,375.833363 C1402.46268,375.115262 1401.54569,374.867984 1400.82759,375.28105 C1400.10949,375.694117 1399.86221,376.611108 1400.27527,377.329208 C1400.77004,378.189345 1401.2631,379.05047 1401.75444,379.912578 C1402.16465,380.632317 1403.08065,380.883245 1403.80039,380.473042 C1404.52013,380.062838 1404.77105,379.146838 1404.36085,378.427099 Z M1390.50013,355.097469 C1389.9707,354.241936 1389.43956,353.387467 1388.9067,352.534068 C1388.46794,351.831372 1387.5426,351.61741 1386.83991,352.056169 C1386.13721,352.494929 1385.92325,353.420262 1386.36201,354.122957 C1386.89274,354.972951 1387.42177,355.82401 1387.94908,356.676129 C1388.38502,357.380581 1389.30948,357.598256 1390.01394,357.162322 C1390.71839,356.726387 1390.93606,355.801921 1390.50013,355.097469 Z M1375.91006,332.438144 C1375.35467,331.60861 1374.79763,330.78018 1374.23894,329.95286 C1373.77532,329.266313 1372.84292,329.085597 1372.15638,329.549219 C1371.46983,330.012841 1371.28912,330.945237 1371.75274,331.631783 C1372.3092,332.455808 1372.86402,333.280937 1373.41719,334.107165 C1373.87808,334.79555 1374.80975,334.979974 1375.49814,334.519086 C1376.18652,334.058199 1376.37094,333.126529 1375.91006,332.438144 Z M1360.45714,310.230902 C1359.8698,309.418347 1359.28084,308.606962 1358.69025,307.796753 C1358.20227,307.127301 1357.26399,306.98019 1356.59453,307.468171 C1355.92508,307.956152 1355.77797,308.894437 1356.26595,309.563889 C1356.85419,310.370874 1357.44081,311.179031 1358.02581,311.988352 C1358.51112,312.659745 1359.44881,312.810599 1360.1202,312.325292 C1360.7916,311.839986 1360.94245,310.902295 1360.45714,310.230902 Z M1344.1923,288.560259 C1343.57544,287.768402 1342.957,286.977774 1342.33698,286.18838 C1341.82527,285.536884 1340.88231,285.423564 1340.23081,285.935272 C1339.57932,286.446981 1339.466,287.389943 1339.97771,288.041439 C1340.59526,288.827696 1341.21124,289.615181 1341.82565,290.403891 C1342.33476,291.057423 1343.27726,291.174503 1343.93079,290.665398 C1344.58432,290.156293 1344.70141,289.21379 1344.1923,288.560259 Z M1327.22005,267.558878 C1326.57641,266.79094 1325.93124,266.024281 1325.28455,265.258907 C1324.74989,264.626117 1323.80347,264.546572 1323.17068,265.081238 C1322.53789,265.615904 1322.45835,266.562315 1322.99302,267.195105 C1323.63714,267.95744 1324.27974,268.721055 1324.92083,269.485943 C1325.45297,270.120855 1326.39906,270.204165 1327.03397,269.672021 C1327.66888,269.139876 1327.75219,268.19379 1327.22005,267.558878 Z M1309.47163,247.136954 C1308.80421,246.396213 1308.13534,245.656793 1307.465,244.918697 C1306.90803,244.305439 1305.95938,244.259802 1305.34613,244.816763 C1304.73287,245.373725 1304.68723,246.322375 1305.24419,246.935633 C1305.91187,247.6708 1306.5781,248.407287 1307.24286,249.145087 C1307.79739,249.760544 1308.74585,249.809935 1309.36131,249.255404 C1309.97677,248.700873 1310.02616,247.752411 1309.47163,247.136954 Z M1290.9613,227.319433 C1290.26506,226.600317 1289.56739,225.882583 1288.86829,225.166237 C1288.28969,224.573354 1287.34001,224.561778 1286.74713,225.140382 C1286.15425,225.718985 1286.14267,226.668662 1286.72127,227.261544 C1287.41759,227.975049 1288.1125,228.689935 1288.80598,229.406199 C1289.38222,230.001374 1290.33185,230.016721 1290.92702,229.440477 C1291.5222,228.864232 1291.53754,227.914609 1290.9613,227.319433 Z M1271.80518,208.229213 C1271.08379,207.535572 1270.36103,206.843364 1269.63689,206.152593 C1269.03746,205.580779 1268.08797,205.603168 1267.51616,206.202601 C1266.94435,206.802034 1266.96674,207.751518 1267.56617,208.323332 C1268.28743,209.011362 1269.00733,209.700824 1269.72585,210.391713 C1270.32301,210.965903 1271.27257,210.947284 1271.84676,210.350126 C1272.42095,209.752968 1272.40233,208.803403 1271.80518,208.229213 Z M1251.97601,189.833866 C1251.22539,189.162101 1250.47343,188.491838 1249.72013,187.823082 C1249.10061,187.273092 1248.15254,187.329455 1247.60255,187.948972 C1247.05256,188.56849 1247.10892,189.516563 1247.72844,190.066554 C1248.47874,190.732656 1249.22772,191.400258 1249.97536,192.069357 C1250.59268,192.62182 1251.54097,192.569248 1252.09343,191.951934 C1252.64589,191.33462 1252.59332,190.386329 1251.97601,189.833866 Z M1231.4937,172.153301 C1230.72646,171.514628 1229.95797,170.877479 1229.18821,170.241857 C1228.54942,169.714376 1227.60397,169.804612 1227.07649,170.443405 C1226.54901,171.082197 1226.63924,172.027648 1227.27804,172.555129 C1228.04473,173.188227 1228.81018,173.822846 1229.57437,174.458982 C1230.21106,174.988991 1231.15686,174.902504 1231.68687,174.265807 C1232.21688,173.629111 1232.13039,172.68331 1231.4937,172.153301 Z M1210.37815,155.207429 C1209.58347,154.592769 1208.78756,153.979698 1207.99043,153.36822 C1207.33313,152.863999 1206.39152,152.9881 1205.8873,153.645407 C1205.38308,154.302714 1205.50718,155.244319 1206.16449,155.74854 C1206.95845,156.357587 1207.75119,156.96822 1208.54271,157.580437 C1209.198,158.087279 1210.1401,157.96694 1210.64694,157.311652 C1211.15378,156.656364 1211.03344,155.714271 1210.37815,155.207429 Z M1188.70664,139.057331 C1187.8903,138.47143 1187.07279,137.887164 1186.25412,137.304536 C1185.57916,136.824192 1184.64261,136.981953 1184.16227,137.656905 C1183.68192,138.331857 1183.83968,139.26841 1184.51463,139.748755 C1185.33005,140.329064 1186.14431,140.911005 1186.9574,141.494573 C1187.63043,141.977613 1188.5676,141.823599 1189.05064,141.150573 C1189.53368,140.477547 1189.37967,139.540371 1188.70664,139.057331 Z M1166.38587,123.638545 C1165.55423,123.085919 1164.72149,122.534949 1163.88765,121.985639 C1163.19585,121.529896 1162.26558,121.721259 1161.80984,122.41306 C1161.3541,123.104862 1161.54546,124.035131 1162.23726,124.490874 C1163.06777,125.037995 1163.89719,125.586769 1164.72552,126.137193 C1165.4155,126.595686 1166.34653,126.408026 1166.80502,125.718044 C1167.26351,125.028061 1167.07585,124.097038 1166.38587,123.638545 Z M1143.61222,109.088226 C1142.75785,108.563736 1141.90243,108.040956 1141.04596,107.519888 C1140.33823,107.089306 1139.41544,107.313985 1138.98486,108.021721 C1138.55428,108.729458 1138.77895,109.652247 1139.48669,110.082829 C1140.33974,110.601816 1141.19174,111.12251 1142.0427,111.644906 C1142.74871,112.078316 1143.67239,111.857333 1144.1058,111.151325 C1144.53921,110.445317 1144.31823,109.521636 1143.61222,109.088226 Z M1120.29057,95.343655 C1119.41512,94.8487537 1118.53867,94.3556104 1117.66123,93.8642283 C1116.93843,93.4594473 1116.02434,93.7172549 1115.61956,94.4400577 C1115.21478,95.1628605 1115.47258,96.0769477 1116.19539,96.4817287 C1117.06932,96.971146 1117.94227,97.4623176 1118.81422,97.9552401 C1119.53539,98.3629242 1120.4505,98.1087942 1120.85819,97.3876249 C1121.26587,96.6664555 1121.01174,95.751339 1120.29057,95.343655 Z M1096.50363,82.4571725 C1095.61648,81.9970707 1094.72839,81.5387399 1093.83939,81.0821831 C1093.10246,80.7037279 1092.19826,80.9943276 1091.8198,81.7312558 C1091.44135,82.4681839 1091.73195,83.3723808 1092.46888,83.7508361 C1093.35432,84.2055644 1094.23885,84.6620597 1095.12245,85.1203189 C1095.85786,85.5017206 1096.76321,85.214742 1097.14462,84.4793345 C1097.52602,83.7439269 1097.23904,82.8385741 1096.50363,82.4571725 Z M1072.27492,70.4417005 C1071.36809,70.0122246 1070.46039,69.5845665 1069.55181,69.1587293 C1068.80168,68.8071566 1067.90858,69.1302474 1067.55701,69.8803728 C1067.20543,70.6304982 1067.52852,71.523601 1068.27865,71.8751737 C1069.18358,72.2993029 1070.08765,72.7252456 1070.99084,73.152999 C1071.73954,73.5075878 1072.63394,73.1880939 1072.98853,72.4393895 C1073.34312,71.6906851 1073.02362,70.7962892 1072.27492,70.4417005 Z M1047.62764,59.3098744 C1046.70825,58.9145087 1045.78805,58.5209812 1044.86704,58.1292945 C1044.10469,57.8050829 1043.22386,58.1602647 1042.89965,58.9226153 C1042.57544,59.6849658 1042.93062,60.5657985 1043.69297,60.8900101 C1044.61028,61.2801235 1045.52678,61.6720705 1046.44248,62.0658484 C1047.20352,62.3931216 1048.08577,62.0414832 1048.41304,61.280442 C1048.74032,60.5194008 1048.38868,59.6371476 1047.62764,59.3098744 Z M1022.65153,49.0999654 C1021.71806,48.7379227 1020.78382,48.3777465 1019.84883,48.0194395 C1019.07527,47.7229914 1018.20784,48.1097749 1017.9114,48.8833446 C1017.61495,49.6569143 1018.00173,50.5243351 1018.7753,50.8207831 C1019.70653,51.1776496 1020.63701,51.5363777 1021.56673,51.8969648 C1022.3391,52.1965245 1023.20807,51.8132359 1023.50763,51.0408659 C1023.80719,50.2684958 1023.4239,49.3995251 1022.65153,49.0999654 Z M997.236643,39.7698413 C996.287718,39.4408964 995.338086,39.1138537 994.387752,38.7887156 C993.60393,38.5205465 992.751123,38.9385657 992.482953,39.7223876 C992.214784,40.5062096 992.632804,41.3590168 993.416625,41.6271859 C994.363137,41.951016 995.308948,42.2767429 996.254055,42.6043644 C997.036787,42.8756985 997.891277,42.4611287 998.162611,41.6783967 C998.433945,40.8956648 998.019375,40.0411754 997.236643,39.7698413 Z M971.539978,31.3806884 C970.579936,31.0864133 969.619243,30.7940605 968.657904,30.5036322 C967.864876,30.2640521 967.027782,30.71271 966.788202,31.5057376 C966.548622,32.2987653 966.99728,33.1358593 967.790308,33.3754394 C968.747778,33.664699 969.704605,33.9558754 970.660785,34.2489665 C971.452838,34.491749 972.291738,34.0464772 972.53452,33.2544241 C972.777303,32.462371 972.332031,31.623471 971.539978,31.3806884 Z M945.516523,23.9179613 C944.548805,23.6593652 943.580495,23.4026998 942.611598,23.1479669 C941.810398,22.9373233 940.990137,23.4160636 940.779494,24.2172632 C940.56885,25.0184628 941.04759,25.8387238 941.84879,26.0493673 C942.81379,26.3030756 943.778205,26.5587087 944.742031,26.8162646 C945.542375,27.0301347 946.364558,26.5547033 946.578428,25.7543589 C946.792298,24.9540146 946.316867,24.1318313 945.516523,23.9179613 Z M919.258878,17.4090091 C918.28303,17.1858004 917.306646,16.9645342 916.329729,16.7452124 C915.521422,16.5637441 914.71905,17.0718975 914.537582,17.8802048 C914.356113,18.6885122 914.864267,19.4908839 915.672574,19.6723522 C916.645566,19.8907929 917.618027,20.1111701 918.589955,20.3334819 C919.397526,20.5182001 920.201935,20.0132782 920.386653,19.2057073 C920.571371,18.3981365 920.066449,17.5937273 919.258878,17.4090091 Z M892.791056,11.8571021 C891.805721,11.668959 890.819901,11.4827776 889.8336,11.2985596 C889.019256,11.146459 888.235797,11.6833138 888.083697,12.4976583 C887.931596,13.3120028 888.468451,14.0954612 889.282795,14.2475618 C890.265141,14.4310411 891.247008,14.6164759 892.228392,14.8038645 C893.042118,14.95924 893.82773,14.4255416 893.983105,13.6118156 C894.138481,12.7980897 893.604782,12.0124777 892.791056,11.8571021 Z M866.136462,7.26500662 C865.145391,7.112627 864.153888,6.96221528 863.161957,6.81377295 C862.342653,6.69116428 861.579082,7.25594722 861.456474,8.07525096 C861.333865,8.8945547 861.898648,9.65812557 862.717952,9.78073425 C863.705916,9.92858301 864.693454,10.0783932 865.680562,10.2301634 C866.499367,10.3560568 867.265197,9.79434059 867.39109,8.97553515 C867.516984,8.1567297 866.955267,7.39089999 866.136462,7.26500662 Z M839.317901,3.63499207 C838.323137,3.5185363 837.327993,3.40404831 836.332473,3.29152944 C835.509287,3.19848871 834.766538,3.79038827 834.673498,4.61357411 C834.580457,5.43675995 835.172357,6.17950833 835.995542,6.27254906 C836.987097,6.38461972 837.978277,6.49865159 838.969077,6.61464335 C839.791885,6.71096845 840.53699,6.12203771 840.633315,5.29922973 C840.72964,4.47642175 840.140709,3.73131717 839.317901,3.63499207 Z M812.357589,0.968838073 C811.358739,0.88812294 810.359558,0.809378856 809.36005,0.732607011 C808.534055,0.669162725 807.813023,1.28733152 807.749579,2.11332567 C807.686135,2.93931981 808.304303,3.66035212 809.130297,3.7237964 C810.125844,3.80026391 811.121063,3.8786958 812.115952,3.95909087 C812.941688,4.02581696 813.665171,3.41051826 813.731897,2.58478275 C813.798623,1.75904724 813.183324,1.03556416 812.357589,0.968838073 Z M785.352316,-0.728780598 C784.351652,-0.773802728 783.350704,-0.816857661 782.349476,-0.85794434 C781.521746,-0.891911347 780.823202,-0.248438916 780.789235,0.579291561 C780.755268,1.40702204 781.39874,2.10556587 782.226471,2.13953288 C783.223753,2.18045765 784.220756,2.2233429 785.217476,2.26818755 C786.045066,2.30542266 786.746145,1.66471351 786.78338,0.837123602 C786.820616,0.00953369926 786.179906,-0.691545492 785.352316,-0.728780598 Z M758.325129,-1.46503806 C757.32343,-1.47460364 756.321494,-1.48220712 755.319324,-1.48784757 C754.49091,-1.49251008 753.815568,-0.82472755 753.810906,0.00368645442 C753.806243,0.832100458 754.474026,1.50744241 755.30244,1.51210492 C756.300689,1.5177233 757.298704,1.52529703 758.296482,1.53482516 C759.124871,1.54273574 759.802826,0.877606282 759.810737,0.0492169268 C759.818648,-0.779172428 759.153518,-1.45712748 758.325129,-1.46503806 Z M731.264293,-1.24587664 C730.261151,-1.220015 729.258269,-1.19218164 728.255651,-1.16237756 C727.42759,-1.13776239 726.776268,-0.446531507 726.800883,0.38152984 C726.825499,1.20959119 727.516729,1.86091301 728.344791,1.83629784 C729.343468,1.80661091 730.342409,1.77888693 731.341609,1.75312689 C732.169761,1.7317766 732.823803,1.04311896 732.802453,0.214967006 C732.781103,-0.613184952 732.092445,-1.26722693 731.264293,-1.24587664 Z M704.19777,-0.0662882912 C703.201946,-0.00509695216 702.206427,0.0580473165 701.211215,0.123143398 C700.384555,0.17721467 699.758247,0.891188946 699.812319,1.71784958 C699.86639,2.54451021 700.580364,3.17081763 701.407025,3.11674636 C702.3983,3.05190779 703.389881,2.98901327 704.381767,2.92806391 C705.208634,2.87725455 705.837753,2.16575686 705.786944,1.33888933 C705.736135,0.512021802 705.024637,-0.117097649 704.19777,-0.0662882912 Z M677.238652,2.07408031 C676.25206,2.17019553 675.265815,2.26823915 674.279922,2.36820995 C673.455721,2.4517849 672.855325,3.18768244 672.9389,4.0118831 C673.022475,4.83608376 673.758373,5.43647952 674.582573,5.35290457 C675.564546,5.25333132 676.54687,5.15567754 677.529539,5.05994445 C678.354063,4.97961818 678.957354,4.24609242 678.877028,3.42156881 C678.796701,2.59704519 678.063176,1.99375404 677.238652,2.07408031 Z M650.334808,5.1840882 C649.33702,5.31766672 648.33964,5.45323143 647.342674,5.59078089 C646.522021,5.70400483 645.948536,6.46106192 646.06176,7.28171522 C646.174984,8.10236852 646.932041,8.67585332 647.752695,8.56262938 C648.745679,8.42562921 649.739076,8.29060582 650.73288,8.15756062 C651.553982,8.04763593 652.130505,7.29288988 652.02058,6.47178815 C651.910655,5.65068641 651.155909,5.07416351 650.334808,5.1840882 Z M623.655455,9.24524135 C622.671467,9.41319608 621.687932,9.58309776 620.704854,9.75494484 C619.888801,9.89759515 619.3429,10.6747777 619.485551,11.4908306 C619.628201,12.3068835 620.405384,12.8527842 621.221437,12.7101339 C622.200576,12.5389753 623.180171,12.3697542 624.160218,12.2024722 C624.976835,12.0630857 625.525838,11.288092 625.386452,10.4714753 C625.247065,9.65485851 624.472072,9.10585489 623.655455,9.24524135 Z M597.077259,14.2777457 C596.088207,14.4836161 595.099673,14.6914712 594.111662,14.9013091 C593.301309,15.0734151 592.783908,15.8698551 592.956014,16.6802075 C593.128121,17.4905599 593.92456,18.0079608 594.734913,17.8358548 C595.718957,17.6268593 596.703522,17.4198388 597.688603,17.2147949 C598.499647,17.0459768 599.020274,16.2516418 598.851456,15.4405981 C598.682638,14.6295543 597.888303,14.1089276 597.077259,14.2777457 Z M570.625996,20.286682 C569.655436,20.5257873 568.685437,20.766823 567.716004,21.009787 C566.91243,21.2111827 566.424268,22.0258717 566.625664,22.8294457 C566.827059,23.6330198 567.641748,24.1211818 568.445322,23.9197861 C569.410857,23.677799 570.376956,23.4377325 571.343614,23.1995885 C572.147991,23.0014237 572.639423,22.1887031 572.441258,21.3843262 C572.243093,20.5799492 571.430373,20.0885172 570.625996,20.286682 Z M544.467618,27.2367118 C543.498037,27.5132505 542.529083,27.791737 541.560761,28.0721691 C540.765032,28.3026173 540.306781,29.1344985 540.537229,29.9302278 C540.767677,30.7259572 541.599558,31.1842081 542.395288,30.9537599 C543.359714,30.6744561 544.324769,30.39709 545.290449,30.121664 C546.087106,29.8944455 546.548728,29.0644299 546.321509,28.2677724 C546.094291,27.4711148 545.264275,27.0094933 544.467618,27.2367118 Z M518.623425,35.1169467 C517.676462,35.4245498 516.730165,35.7340335 515.784539,36.0453956 C514.997669,36.3044849 514.569818,37.1524023 514.828908,37.9392722 C515.087997,38.7261421 515.935914,39.1539929 516.722784,38.8949036 C517.664605,38.5847944 518.607094,38.2765559 519.550247,37.9701905 C520.338149,37.7142556 520.769393,36.8680589 520.513458,36.0801574 C520.257523,35.2922559 519.411326,34.8610117 518.623425,35.1169467 Z M493.04755,43.9408716 C492.107315,44.2844703 491.167812,44.6299476 490.229043,44.9773012 C489.452095,45.2647794 489.055302,46.1276672 489.34278,46.9046149 C489.630258,47.6815626 490.493146,48.078356 491.270094,47.7908778 C492.205087,47.4449212 493.140812,47.1008333 494.077265,46.7586166 C494.855364,46.4742686 495.255628,45.6129853 494.97128,44.8348865 C494.686932,44.0567877 493.825648,43.6565236 493.04755,43.9408716 Z M467.83167,53.6770583 C466.901294,54.0557886 465.971711,54.436385 465.042925,54.8188451 C464.276902,55.1342819 463.91163,56.0109782 464.227067,56.7770011 C464.542504,57.5430241 465.4192,57.9082963 466.185223,57.5928595 C467.110277,57.2119362 468.036125,56.8328691 468.962762,56.4556607 C469.730052,56.1433183 470.09886,55.2681034 469.786517,54.5008136 C469.474175,53.7335237 468.59896,53.3647159 467.83167,53.6770583 Z M442.933057,64.3429364 C442.015708,64.7557406 441.099213,65.1703878 440.183576,65.5868753 C439.429493,65.9298778 439.096247,66.8192412 439.439249,67.5733239 C439.782252,68.3274066 440.671615,68.6606529 441.425698,68.3176503 C442.337661,67.9028343 443.250478,67.4898512 444.164144,67.0787037 C444.919606,66.7387482 445.25644,65.8507374 444.916484,65.0952761 C444.576529,64.3398148 443.688518,64.0029809 442.933057,64.3429364 Z M418.441993,75.9015857 C417.540633,76.347108 416.640183,76.7944402 415.740649,77.2435792 C414.999474,77.6136489 414.698634,78.5144905 415.068704,79.2556652 C415.438774,79.9968398 416.339615,80.2976798 417.08079,79.9276101 C417.97672,79.480271 418.873561,79.0347314 419.771308,78.5909946 C420.513968,78.2239142 420.818435,77.3242921 420.451355,76.5816324 C420.084275,75.8389726 419.184653,75.5345053 418.441993,75.9015857 Z M394.444091,88.3067069 C393.561448,88.7833224 392.679769,89.2617054 391.799058,89.7418526 C391.071702,90.1383938 390.803524,91.0494923 391.200065,91.7768483 C391.596606,92.5042042 392.507704,92.7723826 393.23506,92.3758414 C394.112247,91.8976152 394.990399,91.4211463 395.86951,90.9464379 C396.598452,90.5528192 396.870285,89.6428043 396.476666,88.9138627 C396.083048,88.1849212 395.173033,87.9130882 394.444091,88.3067069 Z M370.836439,101.610786 C369.97538,102.116731 369.115333,102.624391 368.256304,103.133763 C367.543731,103.556293 367.308604,104.476475 367.731134,105.189048 C368.153663,105.901621 369.073846,106.136748 369.786419,105.714218 C370.642017,105.20688 371.498628,104.701248 372.356247,104.197325 C373.0705,103.777642 373.309296,102.858404 372.889612,102.144151 C372.469929,101.429898 371.550692,101.191103 370.836439,101.610786 Z M347.766269,115.73114 C346.916499,116.272503 346.067817,116.815574 345.220229,117.360347 C344.523335,117.808265 344.3215,118.736318 344.769418,119.433212 C345.217336,120.130106 346.145389,120.331942 346.842283,119.884024 C347.686491,119.341423 348.531787,118.800518 349.378168,118.261314 C350.076857,117.8162 350.282419,116.888966 349.837306,116.190277 C349.392192,115.491589 348.464957,115.286026 347.766269,115.73114 Z M325.253186,130.648154 C324.430591,131.21469 323.609122,131.782862 322.788783,132.352667 C322.108387,132.825268 321.939936,133.759958 322.412538,134.440354 C322.885139,135.120751 323.819829,135.289201 324.500225,134.8166 C325.317297,134.249064 326.135495,133.683154 326.954814,133.118875 C327.637085,132.648984 327.809252,131.714972 327.33936,131.032701 C326.869469,130.35043 325.935457,130.178263 325.253186,130.648154 Z M303.260139,146.384305 C302.455781,146.981926 301.652612,147.581152 300.850638,148.181977 C300.187636,148.678687 300.05283,149.618818 300.549539,150.28182 C301.046249,150.944822 301.98638,151.079628 302.649382,150.582918 C303.448167,149.984482 304.248141,149.38764 305.0493,148.792396 C305.714276,148.298333 305.852828,147.358746 305.358765,146.69377 C304.864701,146.028794 303.925115,145.890242 303.260139,146.384305 Z M281.811498,162.925871 C281.029022,163.552039 280.24779,164.179766 279.467808,164.809048 C278.823056,165.329227 278.722071,166.273591 279.24225,166.918343 C279.76243,167.563094 280.706793,167.66408 281.351545,167.1439 C282.128428,166.517119 282.906556,165.891886 283.685924,165.268206 C284.332741,164.750598 284.437486,163.806644 283.919878,163.159826 C283.40227,162.513008 282.458316,162.408263 281.811498,162.925871 Z M260.985362,180.212865 C260.228052,180.864742 259.472033,181.518122 258.717311,182.173 C258.091601,182.715935 258.024497,183.663309 258.567432,184.289019 C259.110366,184.91473 260.05774,184.981833 260.683451,184.438899 C261.435177,183.78662 262.188194,183.135834 262.942498,182.486545 C263.570357,181.946097 263.641218,180.998996 263.10077,180.371137 C262.560322,179.743278 261.613221,179.672417 260.985362,180.212865 Z M240.801636,198.225374 C240.063484,198.908236 239.326694,199.592572 238.59127,200.278376 C237.985401,200.843367 237.952263,201.792536 238.517254,202.398405 C239.082244,203.004274 240.031413,203.037412 240.637282,202.472421 C241.369788,201.789338 242.103655,201.107718 242.838878,200.427565 C243.446996,199.864996 243.483921,198.915967 242.921353,198.307849 C242.358784,197.69973 241.409754,197.662805 240.801636,198.225374 Z M221.280226,216.943487 C220.565423,217.653843 219.852041,218.365628 219.140084,219.078836 C218.554812,219.665137 218.555645,220.614884 219.141946,221.200156 C219.728246,221.785428 220.677993,221.784594 221.263265,221.198294 C221.972398,220.487915 222.682951,219.778954 223.394918,219.071416 C223.982529,218.48746 223.985492,217.537717 223.401536,216.950106 C222.81758,216.362494 221.867838,216.359531 221.280226,216.943487 Z M202.441039,236.347297 C201.753454,237.081309 201.067335,237.816693 200.382686,238.553441 C199.818749,239.160292 199.853538,240.109402 200.460388,240.673338 C201.067238,241.237275 202.016349,241.202486 202.580285,240.595636 C203.262217,239.86181 203.945615,239.129345 204.630472,238.398245 C205.196825,237.79365 205.165824,236.844408 204.561229,236.278055 C203.956634,235.711701 203.007393,235.742702 202.441039,236.347297 Z M184.303984,256.416896 C183.647142,257.170402 182.991797,257.925209 182.337953,258.681312 C181.796076,259.307938 181.864778,260.255198 182.491404,260.797075 C183.11803,261.338953 184.065289,261.270251 184.607167,260.643625 C185.258415,259.890523 185.911158,259.138713 186.565393,258.388198 C187.109753,257.763727 187.04481,256.816202 186.420339,256.271842 C185.795868,255.727483 184.848344,255.792425 184.303984,256.416896 Z M166.888969,277.132379 C166.259646,277.908792 165.631866,278.686452 165.005634,279.465353 C164.486549,280.110986 164.589136,281.055177 165.234769,281.574262 C165.880403,282.093347 166.824593,281.99076 167.343678,281.345126 C167.967422,280.56932 168.592708,279.794749 169.219531,279.02142 C169.741176,278.377853 169.642338,277.433263 168.998771,276.911618 C168.355204,276.389974 167.410613,276.488812 166.888969,277.132379 Z M150.215907,298.473839 C149.612336,299.275657 149.010367,300.078678 148.410004,300.882895 C147.914428,301.546744 148.050841,302.486644 148.71469,302.98222 C149.378539,303.477796 150.318439,303.341383 150.814015,302.677534 C151.41199,301.876515 152.011565,301.076688 152.612736,300.278058 C153.110958,299.616192 152.978298,298.675755 152.316432,298.177534 C151.654565,297.679312 150.714128,297.811972 150.215907,298.473839 Z M134.345141,320.363444 C133.771872,321.184723 133.200241,322.007143 132.630254,322.830699 C132.158798,323.511889 132.328821,324.446294 133.010012,324.91775 C133.691203,325.389206 134.625608,325.219182 135.097064,324.537991 C135.664781,323.717716 136.234135,322.898571 136.805122,322.080562 C137.279291,321.401257 137.112996,320.466182 136.433691,319.992013 C135.754386,319.517844 134.81931,319.684139 134.345141,320.363444 Z M119.252042,342.836216 C118.708589,343.677694 118.166818,344.520256 117.626731,345.363898 C117.180073,346.061599 117.383584,346.989287 118.081286,347.435945 C118.778988,347.882603 119.706675,347.679092 120.153334,346.98139 C120.691266,346.141113 121.230877,345.301911 121.772163,344.463789 C122.221604,343.767876 122.021801,342.839384 121.325889,342.389942 C120.629976,341.9405 119.701484,342.140304 119.252042,342.836216 Z M104.956374,365.872399 C104.443266,366.733515 103.931881,367.59566 103.422222,368.458828 C103.001019,369.172186 103.237857,370.091929 103.951215,370.513132 C104.664573,370.934336 105.584316,370.697497 106.005519,369.98414 C106.513142,369.124419 107.022485,368.265718 107.533543,367.408041 C107.957599,366.696376 107.724445,365.775691 107.01278,365.351635 C106.301114,364.927579 105.38043,365.160733 104.956374,365.872399 Z M91.5461312,389.327726 C91.0643659,390.206722 90.5843601,391.086689 90.1061171,391.967622 C89.710867,392.69568 89.9806614,393.606301 90.7087197,394.001551 C91.436778,394.396802 92.3473994,394.127007 92.7426494,393.398949 C93.2189791,392.52154 93.6970645,391.645094 94.1769025,390.769614 C94.575069,390.043147 94.3089286,389.131451 93.5824612,388.733284 C92.8559937,388.335118 91.9442978,388.601258 91.5461312,389.327726 Z M78.9640366,413.301591 C78.515565,414.194978 78.0688775,415.089274 77.6239771,415.984473 C77.2552837,416.726334 77.5577953,417.626615 78.2996556,417.995309 C79.0415159,418.364002 79.9417976,418.06149 80.3104909,417.31963 C80.7536085,416.428018 81.1985061,415.537306 81.6451807,414.647498 C82.0168427,413.90712 81.7179398,413.005634 80.9775623,412.633972 C80.2371848,412.26231 79.3356986,412.561213 78.9640366,413.301591 Z M67.2592268,437.709667 C66.843567,438.618255 66.4297209,439.527694 66.0176913,440.437978 C65.6760789,441.192691 66.0109634,442.081439 66.7656769,442.423051 C67.5203904,442.764664 68.4091381,442.429779 68.7507506,441.675066 C69.1611266,440.768435 69.573312,439.862646 69.9873039,438.957703 C70.3319397,438.204366 70.0006214,437.314282 69.2472837,436.969647 C68.493946,436.625011 67.6038627,436.956329 67.2592268,437.709667 Z M56.4716721,462.462708 C56.0873422,463.389998 55.7048715,464.318088 55.324263,465.246974 C55.0101621,466.013545 55.3769622,466.889604 56.1435339,467.203704 C56.9101056,467.517805 57.7861638,467.151005 58.1002647,466.384433 C58.4793439,465.45928 58.8602778,464.534919 59.2430636,463.611354 C59.5602536,462.846056 59.1969899,461.968525 58.4316912,461.651335 C57.6663926,461.334145 56.7888622,461.697409 56.4716721,462.462708 Z M46.581618,487.601618 C46.2313172,488.541625 45.8828993,489.482373 45.5363668,490.423859 C45.2502155,491.201296 45.6484816,492.063505 46.4259191,492.349657 C47.2033565,492.635808 48.0655655,492.237542 48.3517168,491.460104 C48.6968556,490.522405 49.0438723,489.58544 49.3927643,488.649214 C49.6820498,487.872937 49.2872655,487.009128 48.5109889,486.719843 C47.7347123,486.430557 46.8709035,486.825342 46.581618,487.601618 Z M37.6009449,513.104019 C37.2848135,514.056512 36.9705894,515.009691 36.6582749,515.96355 C36.4004957,516.75085 36.8297571,517.598054 37.6170571,517.855834 C38.4043572,518.113613 39.2515614,517.684352 39.5093406,516.897051 C39.8203984,515.94703 40.1333581,514.997687 40.4482176,514.049027 C40.7091741,513.262774 40.2833374,512.413843 39.4970848,512.152887 C38.7108321,511.89193 37.8619014,512.317767 37.6009449,513.104019 Z M29.5412527,538.947834 C29.2601278,539.910427 28.980927,540.873648 28.7036524,541.837493 C28.4746228,542.633632 28.9343556,543.464695 29.7304943,543.693725 C30.5266331,543.922754 31.3576963,543.463021 31.5867259,542.666883 C31.8628849,541.706916 32.1409623,540.74757 32.4209561,539.78885 C32.6531964,538.993642 32.1968207,538.160731 31.4016126,537.928491 C30.6064045,537.69625 29.773493,538.152626 29.5412527,538.947834 Z M22.4316898,565.040828 C22.1862285,566.010696 21.9426987,566.981134 21.7011024,567.952139 C21.5010792,568.756056 21.9906317,569.56991 22.7945485,569.769933 C23.5984653,569.969956 24.4123195,569.480404 24.6123426,568.676487 C24.8529676,567.709387 25.0955181,566.74285 25.3399924,565.776882 C25.5432481,564.973776 25.0569738,564.157959 24.2538682,563.954703 C23.4507626,563.751448 22.6349455,564.237722 22.4316898,565.040828 Z M16.2758206,591.358645 C16.0654879,592.337424 15.8571023,593.31672 15.6506657,594.296528 C15.4798734,595.107158 15.9985646,595.902758 16.8091949,596.073551 C17.6198252,596.244343 18.4154255,595.725652 18.5862178,594.915022 C18.7918254,593.939147 18.9993742,592.963784 19.2088624,591.988935 C19.3829123,591.178998 18.8674238,590.381319 18.0574867,590.207269 C17.2475496,590.033219 16.4498705,590.548708 16.2758206,591.358645 Z M11.0638804,617.949855 C10.8892128,618.935236 10.7165009,619.921081 10.5457461,620.907385 C10.4044261,621.723669 10.9515928,622.499961 11.7678772,622.641281 C12.5841616,622.782601 13.3604533,622.235434 13.5017733,621.419149 C13.6718439,620.436797 13.8438639,619.454902 14.0178317,618.47347 C14.1624238,617.657758 13.6183743,616.879279 12.8026632,616.734687 C11.9869521,616.590095 11.2084725,617.134144 11.0638804,617.949855 Z M6.8266243,644.647535 C6.68731623,645.64053 6.54997807,646.633938 6.41461127,647.627755 C6.30280447,648.448603 6.87759559,649.204668 7.69844317,649.316475 C8.51929074,649.428282 9.2753565,648.853491 9.38716329,648.032643 C9.5219895,647.042795 9.65877914,646.053355 9.79753076,645.064326 C9.91262443,644.243933 9.34086622,643.485571 8.52047305,643.370478 C7.70007989,643.255384 6.94171797,643.827142 6.8266243,644.647535 Z M3.55077232,671.50055 C3.44736095,672.496826 3.34591842,673.493464 3.24644602,674.49046 C3.16420044,675.314795 3.76578228,676.049723 4.59011666,676.131969 C5.41445103,676.214214 6.1493793,675.612632 6.23162487,674.788298 C6.33070168,673.795267 6.43174072,672.802593 6.53474073,671.81028 C6.62027024,670.98628 6.02162153,670.248961 5.1976214,670.163431 C4.37362128,670.077902 3.63630183,670.67655 3.55077232,671.50055 Z M1.23790052,698.486942 C1.1702584,699.486104 1.10458433,700.485579 1.04087946,701.485364 C0.988200068,702.312114 1.61570869,703.025033 2.44245918,703.077713 C3.26920968,703.130392 3.98212846,702.502883 4.03480785,701.676133 C4.0982607,700.680303 4.16367492,699.684783 4.23104936,698.689575 C4.28700484,697.863039 3.66232653,697.147639 2.8357913,697.091684 C2.00925607,697.035728 1.293856,697.660407 1.23790052,698.486942 Z M-0.108483712,725.509923 C-0.140534226,726.510949 -0.170619678,727.51224 -0.198739061,728.513794 C-0.221988621,729.341895 0.430472235,730.03205 1.25857305,730.0553 C2.08667386,730.078549 2.7768297,729.426089 2.80007926,728.597988 C2.82808812,727.600371 2.85805529,726.603016 2.88997977,725.605927 C2.91649051,724.777924 2.26675279,724.085204 1.43874996,724.058694 C0.610747136,724.032183 -0.0819729762,724.681921 -0.108483712,725.509923 Z M-0.495782484,752.544786 C-0.492475621,753.542315 -0.487224388,754.539615 -0.480029695,755.536683 C-0.474052044,756.365088 0.202349192,757.031798 1.03075475,757.02582 C1.85916031,757.019843 2.52586986,756.343441 2.51989221,755.515036 C2.51272566,754.521869 2.50749496,753.528469 2.50420103,752.534841 C2.50145477,751.706419 1.82765929,751.037076 0.999236718,751.039822 C0.170814146,751.042568 -0.49852875,751.716364 -0.495782484,752.544786 Z M0.0727993058,779.613457 C0.111231951,780.605229 0.151595232,781.596729 0.193888132,782.587955 C0.229202732,783.415629 0.928793283,784.057963 1.75646736,784.022649 C2.58414144,783.987334 3.22647571,783.287744 3.19116111,782.460069 C3.14903485,781.47275 3.10883059,780.485155 3.07054932,779.49729 C3.0384706,778.669484 2.34139645,778.02442 1.51359064,778.056499 C0.685784835,778.088577 0.0407205809,778.785652 0.0727993058,779.613457 Z M1.60420961,806.663449 C1.67933422,807.671168 1.75646286,808.678557 1.83559431,809.685613 C1.90048963,810.511494 2.62260684,811.128396 3.44848824,811.0635 C4.27436965,810.998605 4.89127077,810.276488 4.82637545,809.450606 C4.74755767,808.447543 4.67073473,807.444146 4.59590783,806.440421 C4.53432016,805.614286 3.81467903,804.994498 2.98854438,805.056086 C2.16240973,805.117674 1.54262194,805.837315 1.60420961,806.663449 Z M4.09752202,833.597972 C4.20789916,834.595242 4.32025146,835.592137 4.4345776,836.588655 C4.5290001,837.411683 5.27274108,838.002335 6.09576957,837.907913 C6.91879806,837.81349 7.50944991,837.069749 7.4150274,836.246721 C7.30115666,835.254173 7.18925184,834.261248 7.07931426,833.267949 C6.98818099,832.44455 6.24680595,831.850931 5.42340676,831.942065 C4.60000757,832.033198 4.00638875,832.774573 4.09752202,833.597972 Z M7.55158576,860.395596 C7.69658434,861.380522 7.84352359,862.365029 7.99240206,863.349114 C8.11632155,864.168221 8.88079516,864.731781 9.69990166,864.607862 C10.5190082,864.483942 11.0825686,863.719469 10.9586491,862.900362 C10.8103659,861.920212 10.6640141,860.939641 10.5195952,859.958652 C10.3989365,859.139059 9.63671181,858.572461 8.81711863,858.693119 C7.99752545,858.813778 7.43092708,859.576003 7.55158576,860.395596 Z M11.9780677,887.10646 C12.1609301,888.0984 12.3457772,889.089858 12.5326075,890.080829 C12.6860891,890.894914 13.4704571,891.430439 14.2845424,891.276958 C15.0986277,891.123476 15.6341528,890.339108 15.4806713,889.525023 C15.2945901,888.538025 15.1104841,887.550543 14.9283549,886.56258 C14.7781665,885.74788 13.9959705,885.209188 13.1812712,885.359376 C12.3665719,885.509565 11.8278793,886.291761 11.9780677,887.10646 Z M17.3665832,913.633988 C17.5830876,914.608963 17.8015274,915.583412 18.0219009,916.557331 C18.2047311,917.365331 19.0079581,917.872132 19.8159584,917.689302 C20.6239588,917.506471 21.1307593,916.703244 20.947929,915.895244 C20.7284409,914.925238 20.5108787,913.954704 20.295244,912.983645 C20.1156568,912.174918 19.3144695,911.664899 18.5057422,911.844486 C17.6970148,912.024073 17.186996,912.825261 17.3665832,913.633988 Z M23.7144173,939.954825 C23.9685994,940.930733 24.2247409,941.90605 24.4828396,942.880771 C24.6948928,943.681598 25.515995,944.158894 26.3168226,943.946841 C27.1176503,943.734788 27.5949463,942.913686 27.3828931,942.112858 C27.1258325,941.142058 26.8707213,940.170664 26.6175614,939.198681 C26.4087579,938.397 25.5895983,937.916377 24.7879172,938.125181 C23.9862361,938.333984 23.5056138,939.153144 23.7144173,939.954825 Z M30.9976058,965.975764 C31.2835623,966.93042 31.5714152,967.884444 31.8611624,968.83783 C32.1020536,969.63046 32.9398883,970.077733 33.7325187,969.836842 C34.5251491,969.595951 34.9724221,968.758116 34.7315309,967.965486 C34.4429497,967.015936 34.1562551,966.065751 33.8714492,965.114936 C33.6337382,964.321346 32.7977036,963.870718 32.0041137,964.108429 C31.2105237,964.34614 30.7598948,965.182174 30.9976058,965.975764 Z M39.2283497,991.743628 C39.5508259,992.6934 39.8752028,993.642476 40.2014781,994.590849 C40.4709838,995.374213 41.3245028,995.790777 42.1078662,995.521271 C42.8912296,995.251765 43.3077935,994.398246 43.0382878,993.614883 C42.7133252,992.670325 42.3902533,991.725068 42.0690745,990.779117 C41.802732,989.994672 40.9509009,989.574668 40.1664563,989.84101 C39.3820118,990.107353 38.9620072,990.959184 39.2283497,991.743628 Z M48.377002,1017.16635 C48.7352828,1018.10806 49.0954579,1019.04902 49.4575246,1019.98921 C49.7552388,1020.76229 50.6232916,1021.14765 51.3963749,1020.84994 C52.1694582,1020.55222 52.5548211,1019.68417 52.2571069,1018.91109 C51.8964959,1017.97468 51.537769,1017.03751 51.1809287,1016.09958 C50.8863488,1015.32529 50.0198641,1014.93642 49.2455812,1015.231 C48.4712982,1015.52558 48.082422,1016.39206 48.377002,1017.16635 Z M58.4597633,1042.28767 C58.8529397,1043.21812 59.247993,1044.14774 59.6449205,1045.07653 C59.9704735,1045.83831 60.85193,1046.19194 61.6137086,1045.86638 C62.3754873,1045.54083 62.729118,1044.65937 62.403565,1043.8976 C62.0082318,1042.97253 61.6147652,1042.04665 61.2231681,1041.11994 C60.9007083,1040.35685 60.0206938,1039.99965 59.2576006,1040.32211 C58.4945074,1040.64457 58.1373035,1041.52458 58.4597633,1042.28767 Z M69.441449,1067.01688 C69.8610107,1067.91737 70.282359,1068.81701 70.7054912,1069.71579 C71.0583531,1070.46531 71.9520101,1070.78686 72.7015299,1070.434 C73.4510497,1070.08114 73.7726045,1069.18748 73.4197425,1068.43796 C72.9983076,1067.54279 72.5786494,1066.64676 72.1607707,1065.74988 C71.8108983,1064.99896 70.9185298,1064.67384 70.1676098,1065.02372 C69.4166898,1065.37359 69.0915766,1066.26596 69.441449,1067.01688 Z M81.3097346,1091.33108 C81.768824,1092.23002 82.2297253,1093.12801 82.6924353,1094.02507 C83.0722018,1094.76132 83.9769146,1095.05031 84.7131679,1094.67055 C85.4494212,1094.29078 85.7384107,1093.38607 85.3586442,1092.64981 C84.8977874,1091.75635 84.4387321,1090.86195 83.9814815,1089.96661 C83.6046945,1089.22883 82.7011574,1088.93618 81.9633748,1089.31297 C81.2255923,1089.68976 80.9329476,1090.59329 81.3097346,1091.33108 Z M94.0520105,1115.2071 C94.5416558,1116.08601 95.033066,1116.96393 95.5262379,1117.84086 C95.9323214,1118.56293 96.846872,1118.81909 97.5689438,1118.41301 C98.2910156,1118.00692 98.5471747,1117.09237 98.1410912,1116.3703 C97.6498913,1115.49688 97.1604461,1114.62247 96.6727589,1113.74707 C96.2695837,1113.02337 95.3560711,1112.76353 94.6323714,1113.16671 C93.9086717,1113.56988 93.6488353,1114.4834 94.0520105,1115.2071 Z M107.655381,1138.62144 C108.173686,1139.47764 108.693701,1140.33279 109.215422,1141.18691 C109.647261,1141.89388 110.570448,1142.11692 111.277418,1141.68508 C111.984388,1141.25324 112.207425,1140.33005 111.775585,1139.62308 C111.255948,1138.77237 110.738009,1137.92063 110.221773,1137.06785 C109.792762,1136.35916 108.870473,1136.13244 108.161783,1136.56145 C107.453094,1136.99046 107.22637,1137.91275 107.655381,1138.62144 Z M122.067889,1161.49117 C122.620916,1162.33472 123.175638,1163.17715 123.732053,1164.01847 C124.189041,1164.70945 125.119653,1164.89913 125.810633,1164.44215 C126.501613,1163.98516 126.691301,1163.05455 126.234313,1162.36357 C125.680116,1161.5256 125.127605,1160.68653 124.576783,1159.84634 C124.122577,1159.15353 123.192735,1158.9601 122.499923,1159.41431 C121.807111,1159.86852 121.613683,1160.79836 122.067889,1161.49117 Z M137.310736,1183.85431 C137.888109,1184.66953 138.467104,1185.4836 139.047716,1186.29651 C139.529206,1186.97065 140.466026,1187.12682 141.140161,1186.64533 C141.814297,1186.16384 141.970467,1185.22702 141.488976,1184.55288 C140.910675,1183.7432 140.333985,1182.93237 139.758911,1182.1204 C139.280105,1181.44436 138.343914,1181.28447 137.667869,1181.76327 C136.991824,1182.24208 136.831931,1183.17827 137.310736,1183.85431 Z M153.327483,1205.63053 C153.935038,1206.42627 154.544177,1207.22081 155.154898,1208.01414 C155.660243,1208.67058 156.602058,1208.79307 157.258502,1208.28773 C157.914945,1207.78238 158.037435,1206.84057 157.53209,1206.18412 C156.923798,1205.39395 156.31708,1204.60257 155.711941,1203.80999 C155.209212,1203.15154 154.267892,1203.0253 153.609442,1203.52803 C152.950993,1204.03076 152.824755,1204.97208 153.327483,1205.63053 Z M170.143127,1226.85452 C170.778222,1227.62723 171.414853,1228.39868 172.053016,1229.16886 C172.581572,1229.80677 173.527174,1229.89541 174.165077,1229.36685 C174.80298,1228.8383 174.891623,1227.8927 174.363067,1227.25479 C173.727438,1226.48767 173.093336,1225.71928 172.460763,1224.94964 C171.934745,1224.30964 170.989503,1224.21724 170.349505,1224.74326 C169.709508,1225.26928 169.617109,1226.21452 170.143127,1226.85452 Z M187.696937,1247.44875 C188.356641,1248.19522 189.017822,1248.94039 189.680475,1249.68425 C190.231522,1250.30283 191.17969,1250.35757 191.798268,1249.80653 C192.416846,1249.25548 192.47159,1248.30731 191.920543,1247.68873 C191.260521,1246.94782 190.601964,1246.20561 189.944879,1245.4621 C189.396282,1244.84135 188.448337,1244.78286 187.827585,1245.33145 C187.206833,1245.88005 187.14834,1246.828 187.696937,1247.44875 Z M205.969004,1267.39331 C206.658483,1268.11938 207.349404,1268.84409 208.041763,1269.56742 C208.614597,1270.16588 209.564117,1270.18665 210.162576,1269.61382 C210.761035,1269.04099 210.781808,1268.09147 210.208974,1267.49301 C209.519362,1266.77255 208.831182,1266.05072 208.144438,1265.32752 C207.573987,1264.72679 206.624556,1264.70225 206.023827,1265.2727 C205.423097,1265.84315 205.398552,1266.79258 205.969004,1267.39331 Z M224.939417,1286.6683 C225.655068,1287.36989 226.372112,1288.07006 227.090547,1288.7688 C227.684416,1289.34639 228.634072,1289.3332 229.211662,1288.73933 C229.789253,1288.14546 229.776056,1287.1958 229.182187,1286.61821 C228.466603,1285.92224 227.752403,1285.22485 227.039591,1284.52604 C226.448023,1283.94609 225.498322,1283.95551 224.918375,1284.54708 C224.338428,1285.13865 224.347849,1286.08835 224.939417,1286.6683 Z M244.588268,1305.25381 C245.326149,1305.92716 246.065363,1306.59905 246.805906,1307.26948 C247.420045,1307.82547 248.368622,1307.77833 248.924611,1307.16419 C249.480601,1306.55005 249.433461,1305.60147 248.819322,1305.04548 C248.081718,1304.37772 247.345437,1303.70849 246.610484,1303.03781 C245.998553,1302.47939 245.049797,1302.52277 244.491377,1303.1347 C243.932958,1303.74663 243.976337,1304.69539 244.588268,1305.25381 Z M264.895651,1323.12992 C265.659501,1323.77843 266.424638,1324.42541 267.191058,1325.07087 C267.82471,1325.60451 268.770991,1325.52344 269.304635,1324.88979 C269.838279,1324.25614 269.757207,1323.30986 269.123555,1322.77621 C268.360178,1322.13332 267.598079,1321.4889 266.837262,1320.84297 C266.205738,1320.30681 265.259142,1320.38412 264.722981,1321.01564 C264.18682,1321.64717 264.264127,1322.59376 264.895651,1323.12992 Z M285.84166,1340.27674 C286.626541,1340.8961 287.412648,1341.5139 288.199979,1342.13013 C288.852345,1342.64073 289.795113,1342.52581 290.305711,1341.87344 C290.816309,1341.22107 290.701383,1340.27831 290.049018,1339.76771 C289.264816,1339.15392 288.481833,1338.53858 287.700072,1337.92168 C287.04974,1337.4085 286.106522,1337.51967 285.593336,1338.17001 C285.08015,1338.82034 285.191328,1339.76356 285.84166,1340.27674 Z M307.406389,1356.67435 C308.214574,1357.26628 309.023935,1357.85661 309.834468,1358.44532 C310.50475,1358.93216 311.442783,1358.78345 311.929624,1358.11317 C312.416465,1357.44289 312.267757,1356.50486 311.597475,1356.01801 C310.790167,1355.43165 309.984026,1354.84367 309.179057,1354.25409 C308.510721,1353.76458 307.572103,1353.90955 307.082594,1354.57788 C306.593085,1355.24622 306.738054,1356.18484 307.406389,1356.67435 Z M329.511453,1372.26314 C330.344184,1372.82829 331.178046,1373.39176 332.013033,1373.95356 C332.700366,1374.41602 333.632453,1374.23372 334.094909,1373.54639 C334.557364,1372.85905 334.375065,1371.92697 333.687733,1371.46451 C332.856072,1370.90495 332.025533,1370.34372 331.19612,1369.78082 C330.510647,1369.31561 329.577835,1369.49417 329.112628,1370.17965 C328.64742,1370.86512 328.82598,1371.79793 329.511453,1372.26314 Z M352.192463,1387.06704 C353.042609,1387.60036 353.893824,1388.13197 354.7461,1388.66188 C355.449628,1389.09931 356.374553,1388.88359 356.811977,1388.18006 C357.249401,1387.47653 357.033681,1386.55161 356.330153,1386.11418 C355.481277,1385.58639 354.63346,1385.05689 353.786705,1384.52571 C353.084934,1384.08547 352.159153,1384.29748 351.718915,1384.99925 C351.278678,1385.70102 351.490692,1386.6268 352.192463,1387.06704 Z M375.368283,1401.0308 C376.235095,1401.53201 377.102912,1402.03149 377.97173,1402.52923 C378.690551,1402.94104 379.607109,1402.69216 380.018919,1401.97334 C380.430729,1401.25452 380.181847,1400.33796 379.463026,1399.92615 C378.597681,1399.4304 377.733332,1398.93292 376.869984,1398.43371 C376.152816,1398.01902 375.23527,1398.26424 374.820587,1398.9814 C374.405903,1399.69857 374.651115,1400.61612 375.368283,1401.0308 Z M399.015042,1414.14117 C399.902775,1414.61263 400.791464,1415.08231 401.681103,1415.5502 C402.414308,1415.93582 403.321294,1415.65405 403.706914,1414.92085 C404.092534,1414.18764 403.810761,1413.28066 403.077557,1412.89504 C402.191479,1412.42901 401.306348,1411.96121 400.422168,1411.49164 C399.690521,1411.10307 398.782408,1411.38119 398.393841,1412.11284 C398.005274,1412.84449 398.283395,1413.7526 399.015042,1414.14117 Z M423.173241,1426.41628 C424.077356,1426.85527 424.982368,1427.29245 425.888273,1427.72781 C426.63495,1428.08665 427.531147,1427.77224 427.889984,1427.02556 C428.248822,1426.27889 427.934415,1425.38269 427.187738,1425.02385 C426.285466,1424.59024 425.384082,1424.15481 424.483592,1423.71758 C423.738366,1423.35574 422.84091,1423.66653 422.479066,1424.41176 C422.117223,1425.15698 422.428015,1426.05444 423.173241,1426.41628 Z M447.692773,1437.779 C448.607314,1438.1829 449.522686,1438.58497 450.438882,1438.98521 C451.198033,1439.31684 452.08229,1438.97027 452.413925,1438.21112 C452.74556,1437.45197 452.39899,1436.56771 451.639839,1436.23608 C450.727321,1435.83745 449.815624,1435.43699 448.904755,1435.03471 C448.146941,1434.70004 447.261301,1435.04305 446.926621,1435.80087 C446.591942,1436.55868 446.934959,1437.44432 447.692773,1437.779 Z M472.546922,1448.2237 C473.480003,1448.59614 474.413864,1448.96671 475.3485,1449.33541 C476.119134,1449.63941 476.990296,1449.26113 477.294296,1448.4905 C477.598296,1447.71986 477.220015,1446.8487 476.449382,1446.5447 C475.518502,1446.17749 474.588394,1445.8084 473.659064,1445.43746 C472.889665,1445.13035 472.016982,1445.50511 471.709873,1446.27451 C471.402763,1447.04391 471.777523,1447.91659 472.546922,1448.2237 Z M497.844956,1457.79372 C498.788976,1458.1314 499.733717,1458.46719 500.679173,1458.80109 C501.460318,1459.07696 502.317198,1458.66736 502.59307,1457.88621 C502.868941,1457.10507 502.459336,1456.24819 501.678191,1455.97232 C500.736538,1455.63976 499.795598,1455.30532 498.855375,1454.96899 C498.07535,1454.68998 497.216824,1455.09612 496.937805,1455.87615 C496.658785,1456.65617 497.064931,1457.5147 497.844956,1457.79372 Z M523.499228,1466.44837 C524.452105,1466.75068 525.405641,1467.05108 526.359833,1467.34959 C527.150476,1467.59692 527.991925,1467.15649 528.239264,1466.36585 C528.486603,1465.57521 528.046168,1464.73376 527.255526,1464.48642 C526.305173,1464.18912 525.355473,1463.88992 524.406431,1463.58883 C523.61679,1463.33832 522.773575,1463.77536 522.523058,1464.565 C522.272541,1465.35464 522.709587,1466.19786 523.499228,1466.44837 Z M549.417891,1474.15674 C550.383247,1474.42489 551.349209,1474.69111 552.315774,1474.9554 C553.114867,1475.1739 553.939789,1474.70324 554.158289,1473.90414 C554.376788,1473.10505 553.906124,1472.28013 553.107031,1472.06163 C552.144355,1471.7984 551.182278,1471.53325 550.220806,1471.26618 C549.4226,1471.04446 548.595788,1471.5118 548.374069,1472.31 C548.152351,1473.10821 548.619685,1473.93502 549.417891,1474.15674 Z M575.647054,1480.93187 C576.620728,1481.16461 577.594952,1481.3954 578.569724,1481.62426 C579.376222,1481.8136 580.183514,1481.3133 580.372861,1480.50681 C580.562208,1479.70031 580.061908,1478.89302 579.25541,1478.70367 C578.284556,1478.47574 577.314248,1478.24587 576.344488,1478.01407 C575.538758,1477.82148 574.729459,1478.31853 574.536868,1479.12426 C574.344277,1479.92999 574.841324,1480.73928 575.647054,1480.93187 Z M602.093692,1486.74851 C603.076566,1486.94607 604.059939,1487.14169 605.043806,1487.33534 C605.856637,1487.49533 606.645264,1486.9661 606.805253,1486.15327 C606.965243,1485.34043 606.436009,1484.55181 605.623178,1484.39182 C604.643259,1484.19894 603.663832,1484.00411 602.684902,1483.80734 C601.872721,1483.64408 601.081971,1484.17014 600.918713,1484.98232 C600.755455,1485.7945 601.281511,1486.58525 602.093692,1486.74851 Z M628.66153,1491.59179 C629.649569,1491.75356 630.638052,1491.91336 631.626977,1492.07121 C632.445049,1492.20178 633.214078,1491.64445 633.344652,1490.82638 C633.475226,1490.00831 632.917898,1489.23928 632.099826,1489.10871 C631.114859,1488.95149 630.130332,1488.79233 629.146248,1488.63121 C628.328706,1488.49736 627.557449,1489.0516 627.423598,1489.86914 C627.289746,1490.68668 627.843988,1491.45794 628.66153,1491.59179 Z M655.471963,1495.48563 C656.466029,1495.61175 657.460489,1495.73589 658.45534,1495.85807 C659.27759,1495.95904 660.026014,1495.37434 660.126991,1494.55209 C660.227969,1493.72984 659.643263,1492.98141 658.821013,1492.88044 C657.83013,1492.75875 656.839635,1492.6351 655.849534,1492.50949 C655.027695,1492.40523 654.276939,1492.98694 654.172676,1493.80878 C654.068413,1494.63062 654.650123,1495.38137 655.471963,1495.48563 Z M682.356552,1498.40693 C683.353709,1498.49722 684.351209,1498.58555 685.34905,1498.67191 C686.174391,1498.74334 686.901369,1498.13217 686.972799,1497.30683 C687.044229,1496.48149 686.433062,1495.75451 685.60772,1495.68308 C684.613841,1495.59707 683.620301,1495.50909 682.627104,1495.41915 C681.802052,1495.34444 681.072651,1495.95271 680.99794,1496.77776 C680.923229,1497.60282 681.5315,1498.33222 682.356552,1498.40693 Z M709.366226,1500.36619 C710.366234,1500.4208 711.366538,1500.47343 712.367134,1500.52411 C713.194501,1500.566 713.89918,1499.92925 713.941078,1499.10189 C713.982975,1498.27452 713.346227,1497.56984 712.51886,1497.52794 C711.522214,1497.47747 710.525859,1497.42504 709.529799,1497.37065 C708.702604,1497.32548 707.995413,1497.95944 707.950244,1498.78664 C707.905074,1499.61383 708.539031,1500.32102 709.366226,1500.36619 Z M736.404209,1501.36108 C737.405697,1501.38016 738.407434,1501.39728 739.409417,1501.41243 C740.23775,1501.42495 740.919399,1500.76361 740.931923,1499.93528 C740.944448,1499.10694 740.283105,1498.42529 739.454773,1498.41277 C738.456718,1498.39768 737.458909,1498.38063 736.461349,1498.36163 C735.633072,1498.34585 734.94883,1499.00451 734.933051,1499.83279 C734.917272,1500.66106 735.575932,1501.34531 736.404209,1501.36108 Z" opacity=".3" transform="rotate(180 750.97 750.006)"/>
</svg>
