<svg xmlns="http://www.w3.org/2000/svg" width="1902" height="1902" viewBox="0 0 1902 1902">
  <path fill="#FFF" d="M951,1901.5 C950.171573,1901.5 949.5,1900.82843 949.5,1900 C949.5,1899.17157 950.171573,1898.5 951,1898.5 C952.006991,1898.5 953.013801,1898.49843 954.020427,1898.49529 C954.84885,1898.49271 955.522513,1899.16219 955.525095,1899.99061 C955.527677,1900.81903 954.858201,1901.4927 954.029778,1901.49528 C953.020035,1901.49843 952.010108,1901.5 951,1901.5 Z M977.995859,1901.1244 C978.981988,1901.09693 979.967915,1901.06795 980.95364,1901.03746 C981.781671,1901.01186 982.432165,1900.31985 982.406559,1899.49182 C982.380952,1898.66379 981.688942,1898.01329 980.860911,1898.0389 C979.878247,1898.06929 978.89538,1898.09818 977.912313,1898.12556 C977.084207,1898.14863 976.431598,1898.83865 976.454668,1899.66675 C976.477739,1900.49486 977.167754,1901.14747 977.995859,1901.1244 Z M1005.04302,1899.99096 C1006.03536,1899.93539 1007.02746,1899.8783 1008.01933,1899.81967 C1008.84631,1899.7708 1009.47709,1899.06077 1009.42821,1898.23378 C1009.37933,1897.4068 1008.6693,1896.77602 1007.84232,1896.8249 C1006.85355,1896.88334 1005.86454,1896.94026 1004.87531,1896.99565 C1004.04817,1897.04196 1003.4152,1897.75003 1003.46151,1898.57716 C1003.50783,1899.40429 1004.21589,1900.03727 1005.04302,1899.99096 Z M1032.07904,1898.09397 C1033.07574,1898.00986 1034.07217,1897.9242 1035.06833,1897.83699 C1035.8936,1897.76474 1036.50405,1897.03716 1036.4318,1896.21189 C1036.35955,1895.38662 1035.63197,1894.77617 1034.8067,1894.84842 C1033.81366,1894.93536 1032.82035,1895.02075 1031.82678,1895.10459 C1031.00128,1895.17425 1030.38856,1895.89992 1030.45822,1896.72541 C1030.52788,1897.5509 1031.25355,1898.16363 1032.07904,1898.09397 Z M1058.9957,1895.43859 C1059.995,1895.3257 1060.994,1895.21123 1061.9927,1895.0952 C1062.81559,1894.9996 1063.40518,1894.25501 1063.30957,1893.43212 C1063.21397,1892.60923 1062.46938,1892.01964 1061.64649,1892.11525 C1060.65093,1892.23091 1059.65508,1892.34501 1058.65892,1892.45755 C1057.83573,1892.55055 1057.24379,1893.29327 1057.33679,1894.11646 C1057.42979,1894.93965 1058.17251,1895.53159 1058.9957,1895.43859 Z M1085.78015,1892.02754 C1086.7803,1891.88572 1087.78012,1891.74233 1088.77961,1891.59735 C1089.59945,1891.47844 1090.16767,1890.71742 1090.04875,1889.89757 C1089.92983,1889.07772 1089.16881,1888.5095 1088.34896,1888.62842 C1087.35264,1888.77294 1086.35597,1888.91588 1085.35897,1889.05725 C1084.53875,1889.17356 1083.96811,1889.93276 1084.08442,1890.75299 C1084.20072,1891.57321 1084.95992,1892.14385 1085.78015,1892.02754 Z M1112.51105,1887.84804 C1113.51021,1887.67719 1114.50901,1887.50476 1115.50743,1887.33074 C1116.32355,1887.18849 1116.86984,1886.41158 1116.72759,1885.59546 C1116.58535,1884.77934 1115.80844,1884.23305 1114.99231,1884.37529 C1113.99705,1884.54876 1113.00142,1884.72065 1112.00541,1884.89096 C1111.18884,1885.03058 1110.64006,1885.80574 1110.77969,1886.62231 C1110.91932,1887.43889 1111.69447,1887.98767 1112.51105,1887.84804 Z M1139.08157,1882.91381 C1140.05143,1882.71935 1141.02092,1882.52339 1141.99001,1882.32592 C1142.80176,1882.16051 1143.32572,1881.36837 1143.16032,1880.55663 C1142.99491,1879.74488 1142.20277,1879.22092 1141.39103,1879.38632 C1140.425,1879.58317 1139.45859,1879.77851 1138.4918,1879.97236 C1137.67953,1880.13522 1137.15309,1880.92571 1137.31595,1881.73797 C1137.47881,1882.55023 1138.26931,1883.07667 1139.08157,1882.91381 Z M1165.56796,1877.20753 C1166.53408,1876.98486 1167.49978,1876.76069 1168.46506,1876.53501 C1169.27173,1876.34641 1169.77278,1875.53959 1169.58418,1874.73291 C1169.39559,1873.92624 1168.58876,1873.42519 1167.78209,1873.61379 C1166.81987,1873.83875 1165.85724,1874.06221 1164.89419,1874.28418 C1164.08692,1874.47023 1163.58334,1875.27548 1163.7694,1876.08274 C1163.95545,1876.89001 1164.7607,1877.39359 1165.56796,1877.20753 Z M1191.77551,1870.77176 C1192.73628,1870.52123 1193.69659,1870.26919 1194.65644,1870.01565 C1195.4574,1869.80409 1195.9352,1868.98328 1195.72363,1868.18232 C1195.51207,1867.38136 1194.69126,1866.90357 1193.8903,1867.11513 C1192.93349,1867.36786 1191.97623,1867.6191 1191.01852,1867.86884 C1190.2169,1868.07788 1189.73652,1868.89718 1189.94555,1869.6988 C1190.15459,1870.50042 1190.97389,1870.9808 1191.77551,1870.77176 Z M1217.86887,1863.56644 C1218.82249,1863.28833 1219.77562,1863.00874 1220.72827,1862.72766 C1221.52283,1862.49322 1221.9769,1861.65904 1221.74245,1860.86448 C1221.50801,1860.06992 1220.67384,1859.61585 1219.87928,1859.85029 C1218.92967,1860.13048 1217.97956,1860.40919 1217.02897,1860.68641 C1216.23368,1860.91834 1215.77698,1861.75107 1216.00891,1862.54637 C1216.24084,1863.34167 1217.07357,1863.79837 1217.86887,1863.56644 Z M1243.74362,1855.61636 C1244.68843,1855.31118 1245.63271,1855.00451 1246.57648,1854.69637 C1247.36399,1854.43924 1247.79396,1853.5924 1247.53683,1852.80488 C1247.27971,1852.01737 1246.43286,1851.5874 1245.64534,1851.84453 C1244.70458,1852.15169 1243.76329,1852.45738 1242.82149,1852.7616 C1242.03317,1853.01624 1241.60053,1853.86173 1241.85517,1854.65005 C1242.10981,1855.43837 1242.9553,1855.871 1243.74362,1855.61636 Z M1269.29922,1846.9563 C1270.23369,1846.62467 1271.16761,1846.29158 1272.10098,1845.95703 C1272.88082,1845.67751 1273.28642,1844.81872 1273.00689,1844.03888 C1272.72737,1843.25903 1271.86858,1842.85344 1271.08874,1843.13296 C1270.15834,1843.46645 1269.22739,1843.79848 1268.29588,1844.12905 C1267.51516,1844.40611 1267.10686,1845.26362 1267.38393,1846.04434 C1267.66099,1846.82506 1268.51849,1847.23336 1269.29922,1846.9563 Z M1294.6934,1837.53221 C1295.63752,1837.16635 1296.58103,1836.79898 1297.52393,1836.43011 C1298.29542,1836.12829 1298.67616,1835.2582 1298.37434,1834.48671 C1298.07252,1833.71522 1297.20243,1833.33447 1296.43094,1833.63629 C1295.49104,1834.004 1294.55053,1834.3702 1293.6094,1834.7349 C1292.83694,1835.03423 1292.45341,1835.90309 1292.75274,1836.67555 C1293.05208,1837.44801 1293.92094,1837.83155 1294.6934,1837.53221 Z M1319.74059,1827.41201 C1320.6704,1827.02078 1321.59956,1826.62807 1322.52808,1826.23388 C1323.29063,1825.91014 1323.64636,1825.02953 1323.32263,1824.26698 C1322.9989,1823.50443 1322.11829,1823.14869 1321.35574,1823.47242 C1320.43017,1823.86536 1319.50395,1824.25683 1318.57709,1824.64682 C1317.8135,1824.96811 1317.45495,1825.84757 1317.77624,1826.61116 C1318.09753,1827.37475 1318.977,1827.7333 1319.74059,1827.41201 Z M1344.51122,1816.57009 C1345.42519,1816.15439 1346.33848,1815.73725 1347.25109,1815.31866 C1348.00409,1814.97328 1348.33453,1814.08287 1347.98915,1813.32987 C1347.64377,1812.57687 1346.75336,1812.24643 1346.00036,1812.59181 C1345.09064,1813.00908 1344.18024,1813.4249 1343.26917,1813.83928 C1342.51508,1814.18226 1342.18181,1815.07162 1342.52479,1815.82571 C1342.86777,1816.5798 1343.75713,1816.91307 1344.51122,1816.57009 Z M1368.9897,1805.01151 C1369.88634,1804.57235 1370.78227,1804.13178 1371.6775,1803.68979 C1372.42033,1803.32305 1372.7252,1802.42356 1372.35846,1801.68074 C1371.99171,1800.93791 1371.09223,1800.63303 1370.3494,1800.99978 C1369.45701,1801.44036 1368.56391,1801.87955 1367.67012,1802.31732 C1366.92613,1802.68171 1366.61842,1803.58023 1366.98281,1804.32421 C1367.34721,1805.06819 1368.24572,1805.37591 1368.9897,1805.01151 Z M1393.16019,1792.74156 C1394.03806,1792.28002 1394.91519,1791.81711 1395.7916,1791.35282 C1396.52365,1790.96501 1396.80271,1790.05719 1396.4149,1789.32514 C1396.02709,1788.59309 1395.11927,1788.31403 1394.38722,1788.70184 C1393.51358,1789.16465 1392.63922,1789.6261 1391.76413,1790.08618 C1391.03087,1790.47169 1390.74896,1791.37864 1391.13447,1792.1119 C1391.51998,1792.84516 1392.42693,1793.12707 1393.16019,1792.74156 Z M1416.85002,1779.85381 C1417.72567,1779.36119 1418.60053,1778.86719 1419.47461,1778.37181 C1420.19533,1777.96334 1420.44846,1777.04794 1420.03999,1776.32722 C1419.63152,1775.6065 1418.71613,1775.35337 1417.9954,1775.76184 C1417.12409,1776.25566 1416.25198,1776.7481 1415.3791,1777.23916 C1414.65708,1777.64534 1414.40105,1778.55993 1414.80723,1779.28194 C1415.21341,1780.00396 1416.128,1780.25999 1416.85002,1779.85381 Z M1440.205,1766.27447 C1441.05863,1765.76178 1441.91145,1765.24775 1442.76346,1764.73238 C1443.4723,1764.30361 1443.69935,1763.3814 1443.27058,1762.67257 C1442.84182,1761.96373 1441.91961,1761.73668 1441.21077,1762.16545 C1440.36144,1762.67919 1439.51131,1763.1916 1438.66038,1763.70267 C1437.95019,1764.12921 1437.72025,1765.0507 1438.14679,1765.76088 C1438.57333,1766.47106 1439.49482,1766.701 1440.205,1766.27447 Z M1463.20881,1752.00927 C1464.05527,1751.46755 1464.90087,1750.92449 1465.74561,1750.38009 C1466.44196,1749.93133 1466.64267,1749.00303 1466.1939,1748.30668 C1465.74514,1747.61033 1464.81684,1747.40963 1464.12049,1747.85839 C1463.27841,1748.40108 1462.43547,1748.94242 1461.59168,1749.48244 C1460.89391,1749.929 1460.69027,1750.85666 1461.13683,1751.55442 C1461.58339,1752.25219 1462.51105,1752.45583 1463.20881,1752.00927 Z M1485.77089,1737.11453 C1486.59221,1736.55543 1487.41266,1735.99505 1488.23224,1735.43339 C1488.9156,1734.96508 1489.08993,1734.03147 1488.62161,1733.34811 C1488.1533,1732.66475 1487.21969,1732.49042 1486.53634,1732.95874 C1485.71934,1733.51863 1484.90147,1734.07725 1484.08273,1734.63458 C1483.39791,1735.10075 1483.22067,1736.03382 1483.68684,1736.71863 C1484.15301,1737.40345 1485.08607,1737.5807 1485.77089,1737.11453 Z M1507.87897,1721.6025 C1508.68876,1721.01705 1509.49762,1720.43032 1510.30556,1719.84232 C1510.97538,1719.35485 1511.1232,1718.41667 1510.63573,1717.74685 C1510.14825,1717.07703 1509.21008,1716.92921 1508.54026,1717.41669 C1507.73486,1718.00284 1506.92853,1718.58772 1506.1213,1719.17133 C1505.44995,1719.6567 1505.29918,1720.59441 1505.78455,1721.26576 C1506.26992,1721.9371 1507.20763,1722.08787 1507.87897,1721.6025 Z M1529.59167,1705.4311 C1530.38735,1704.82077 1531.18206,1704.20919 1531.97582,1703.59635 C1532.63154,1703.09008 1532.7527,1702.1481 1532.24643,1701.49237 C1531.74016,1700.83664 1530.79817,1700.71548 1530.14244,1701.22175 C1529.35118,1701.83266 1528.55897,1702.44232 1527.76579,1703.05074 C1527.10847,1703.55494 1526.98434,1704.49654 1527.48855,1705.15386 C1527.99275,1705.81118 1528.93435,1705.93531 1529.59167,1705.4311 Z M1550.82264,1688.66307 C1551.60189,1688.02952 1552.38013,1687.39474 1553.15738,1686.75874 C1553.79852,1686.23411 1553.89297,1685.28907 1553.36834,1684.64793 C1552.84371,1684.0068 1551.89867,1683.91235 1551.25754,1684.43697 C1550.48273,1685.07098 1549.70692,1685.70377 1548.93012,1686.33533 C1548.28733,1686.85794 1548.18991,1687.80267 1548.71251,1688.44546 C1549.23512,1689.08825 1550.17985,1689.18568 1550.82264,1688.66307 Z M1571.55949,1671.31079 C1572.3201,1670.65582 1573.07968,1669.99966 1573.83823,1669.3423 C1574.46429,1668.79976 1574.53199,1667.85243 1573.98945,1667.22638 C1573.44691,1666.60032 1572.49958,1666.53262 1571.87353,1667.07516 C1571.11735,1667.73046 1570.36015,1668.38456 1569.60193,1669.03747 C1568.97417,1669.57804 1568.90348,1670.52515 1569.44405,1671.15291 C1569.98461,1671.78067 1570.93173,1671.85135 1571.55949,1671.31079 Z M1591.78983,1653.38665 C1592.52973,1652.71221 1593.26857,1652.03661 1594.00634,1651.35985 C1594.61683,1650.79986 1594.65776,1649.85099 1594.09777,1649.2405 C1593.53777,1648.63001 1592.58891,1648.58908 1591.97842,1649.14908 C1591.24295,1649.82371 1590.50643,1650.49719 1589.76885,1651.16952 C1589.15661,1651.7276 1589.1127,1652.67633 1589.67078,1653.28857 C1590.22885,1653.90081 1591.17759,1653.94472 1591.78983,1653.38665 Z M1611.56547,1634.84111 C1612.28254,1634.1493 1612.99854,1633.45637 1613.71345,1632.76232 C1614.30785,1632.18527 1614.32191,1631.23562 1613.74486,1630.64123 C1613.16781,1630.04683 1612.21817,1630.03277 1611.62378,1630.60982 C1610.9111,1631.30169 1610.19735,1631.99246 1609.48252,1632.6821 C1608.88632,1633.25729 1608.8693,1634.20689 1609.44449,1634.80308 C1610.01968,1635.39927 1610.96927,1635.4163 1611.56547,1634.84111 Z M1630.74388,1615.80862 C1631.44672,1615.09115 1632.14844,1614.37258 1632.84902,1613.65291 C1633.42689,1613.05931 1633.41412,1612.10965 1632.82052,1611.53178 C1632.22691,1610.95392 1631.27725,1610.96669 1630.69939,1611.56029 C1630.001,1612.27771 1629.30148,1612.99403 1628.60084,1613.70924 C1628.02111,1614.30103 1628.03088,1615.25072 1628.62267,1615.83045 C1629.21445,1616.41018 1630.16415,1616.4004 1630.74388,1615.80862 Z M1649.37859,1596.24146 C1650.05459,1595.51127 1650.72946,1594.78002 1651.40318,1594.04773 C1651.96408,1593.43807 1651.92455,1592.48914 1651.31489,1591.92825 C1650.70523,1591.36735 1649.7563,1591.40688 1649.1954,1592.01654 C1648.52379,1592.74654 1647.85104,1593.47549 1647.17716,1594.2034 C1646.61436,1594.81131 1646.65093,1595.76035 1647.25884,1596.32315 C1647.86675,1596.88594 1648.81579,1596.84937 1649.37859,1596.24146 Z M1667.51595,1576.08487 C1668.17237,1575.33425 1668.82762,1574.58261 1669.48169,1573.82994 C1670.02509,1573.20463 1669.95868,1572.25721 1669.33337,1571.71381 C1668.70807,1571.17042 1667.76064,1571.23682 1667.21725,1571.86213 C1666.56523,1572.61244 1665.91203,1573.36172 1665.25767,1574.10999 C1664.71232,1574.7336 1664.77576,1575.68122 1665.39937,1576.22657 C1666.02298,1576.77192 1666.9706,1576.70848 1667.51595,1576.08487 Z M1685.02422,1555.48388 C1685.65857,1554.71573 1686.29172,1553.94659 1686.92367,1553.17647 C1687.44918,1552.53606 1687.35603,1551.59089 1686.71562,1551.06538 C1686.0752,1550.53987 1685.13004,1550.63301 1684.60452,1551.27343 C1683.97456,1552.04113 1683.3434,1552.80786 1682.71103,1553.5736 C1682.18352,1554.21236 1682.27372,1555.15782 1682.91248,1555.68533 C1683.55125,1556.21284 1684.49671,1556.12264 1685.02422,1555.48388 Z M1701.95159,1534.38541 C1702.56911,1533.593 1703.18539,1532.79963 1703.80041,1532.00528 C1704.30758,1531.35024 1704.1877,1530.40809 1703.53266,1529.90092 C1702.87762,1529.39376 1701.93547,1529.51364 1701.42831,1530.16868 C1700.81521,1530.96053 1700.20087,1531.75142 1699.58528,1532.54134 C1699.07606,1533.19477 1699.19296,1534.1373 1699.8464,1534.64652 C1700.49983,1535.15575 1701.44236,1535.03885 1701.95159,1534.38541 Z M1718.28567,1512.80186 C1718.87589,1511.99854 1719.46485,1511.19431 1720.05255,1510.38915 C1720.54097,1509.72002 1720.39447,1508.78164 1719.72533,1508.29322 C1719.0562,1507.80481 1718.11782,1507.95131 1717.6294,1508.62044 C1717.04355,1509.42307 1716.45644,1510.22478 1715.86807,1511.02557 C1715.37756,1511.69317 1715.52112,1512.632 1716.18873,1513.12251 C1716.85633,1513.61302 1717.79516,1513.46946 1718.28567,1512.80186 Z M1733.96319,1490.81916 C1734.53079,1489.99897 1735.09711,1489.17788 1735.66214,1488.35591 C1736.13143,1487.67323 1735.95844,1486.73937 1735.27575,1486.27008 C1734.59306,1485.8008 1733.6592,1485.97379 1733.18992,1486.65648 C1732.62666,1487.47586 1732.06212,1488.29436 1731.4963,1489.11198 C1731.02488,1489.79319 1731.19494,1490.72758 1731.87615,1491.19901 C1732.55736,1491.67044 1733.49176,1491.50037 1733.96319,1490.81916 Z M1749.02675,1468.37914 C1749.57483,1467.53711 1750.12158,1466.69422 1750.66699,1465.85047 C1751.11671,1465.15474 1750.91729,1464.22616 1750.22156,1463.77644 C1749.52583,1463.32671 1748.59726,1463.52614 1748.14753,1464.22186 C1747.60384,1465.06296 1747.05881,1465.9032 1746.51246,1466.74257 C1746.06054,1467.43688 1746.25702,1468.36608 1746.95132,1468.818 C1747.64563,1469.26993 1748.57483,1469.07344 1749.02675,1468.37914 Z M1763.4641,1445.49406 C1763.98903,1444.63515 1764.51261,1443.77541 1765.03481,1442.91485 C1765.46458,1442.20661 1765.23884,1441.28408 1764.53061,1440.85432 C1763.82238,1440.42455 1762.89985,1440.65029 1762.47008,1441.35852 C1761.94952,1442.21638 1761.4276,1443.0734 1760.90432,1443.9296 C1760.4723,1444.63646 1760.69512,1445.55971 1761.40198,1445.99172 C1762.10884,1446.42373 1763.03208,1446.20092 1763.4641,1445.49406 Z M1777.21833,1422.25409 C1777.71707,1421.38342 1778.21443,1420.51196 1778.7104,1419.6397 C1779.11989,1418.91956 1778.86805,1418.00381 1778.1479,1417.59432 C1777.42776,1417.18483 1776.51201,1417.43667 1776.10252,1418.15682 C1775.60811,1419.02632 1775.11232,1419.89503 1774.61516,1420.76295 C1774.20339,1421.4818 1774.45233,1422.39834 1775.17118,1422.81011 C1775.89002,1423.22187 1776.80657,1422.97294 1777.21833,1422.25409 Z M1790.32615,1398.59633 C1790.80023,1397.71119 1791.2729,1396.82529 1791.74417,1395.93863 C1792.13298,1395.20711 1791.85516,1394.2989 1791.12364,1393.91009 C1790.39213,1393.52128 1789.48392,1393.7991 1789.09511,1394.53062 C1788.62533,1395.41448 1788.15415,1396.29758 1787.68158,1397.17993 C1787.29045,1397.91021 1787.56538,1398.81929 1788.29566,1399.21042 C1789.02594,1399.60155 1789.93502,1399.32661 1790.32615,1398.59633 Z M1802.73515,1374.61354 C1803.18138,1373.72018 1803.6262,1372.82611 1804.06961,1371.93133 C1804.43745,1371.18904 1804.1339,1370.28911 1803.39161,1369.92127 C1802.64933,1369.55343 1801.7494,1369.85698 1801.38156,1370.59926 C1800.93955,1371.49121 1800.49614,1372.38245 1800.05133,1373.27298 C1799.68114,1374.0141 1799.98184,1374.91499 1800.72296,1375.28517 C1801.46408,1375.65536 1802.36497,1375.35466 1802.73515,1374.61354 Z M1814.47792,1350.23981 C1814.90033,1349.33005 1815.3213,1348.41959 1815.74082,1347.50846 C1816.0873,1346.75597 1815.75816,1345.86508 1815.00567,1345.5186 C1814.25318,1345.17212 1813.36229,1345.50126 1813.01581,1346.25375 C1812.59761,1347.16199 1812.17798,1348.06956 1811.75691,1348.97644 C1811.40804,1349.72783 1811.73435,1350.61977 1812.48573,1350.96863 C1813.23712,1351.3175 1814.12905,1350.9912 1814.47792,1350.23981 Z M1825.5067,1325.57032 C1825.9014,1324.65246 1826.29467,1323.73396 1826.68648,1322.81482 C1827.01134,1322.05275 1826.65691,1321.17162 1825.89483,1320.84676 C1825.13276,1320.5219 1824.25162,1320.87633 1823.92676,1321.6384 C1823.53619,1322.55463 1823.14418,1323.47021 1822.75072,1324.38516 C1822.42345,1325.1462 1822.77509,1326.02845 1823.53613,1326.35573 C1824.29717,1326.683 1825.17942,1326.33136 1825.5067,1325.57032 Z M1835.84981,1300.53636 C1836.21869,1299.60598 1836.58611,1298.675 1836.95205,1297.74341 C1837.25494,1296.97234 1836.8754,1296.10172 1836.10433,1295.79884 C1835.33326,1295.49595 1834.46264,1295.87549 1834.15975,1296.64656 C1833.79497,1297.57519 1833.42873,1298.50322 1833.06102,1299.43064 C1832.75568,1300.20074 1833.13245,1301.07256 1833.90255,1301.3779 C1834.67266,1301.68323 1835.54448,1301.30646 1835.84981,1300.53636 Z M1845.46428,1275.23533 C1845.80559,1274.29688 1846.14542,1273.35787 1846.48377,1272.41828 C1846.76444,1271.63885 1846.36012,1270.77946 1845.58069,1270.49879 C1844.80126,1270.21811 1843.94188,1270.62243 1843.6612,1271.40186 C1843.32392,1272.33846 1842.98517,1273.27449 1842.64495,1274.20996 C1842.3618,1274.98849 1842.76339,1275.84916 1843.54193,1276.13231 C1844.32046,1276.41546 1845.18113,1276.01386 1845.46428,1275.23533 Z M1854.34534,1249.68249 C1854.66097,1248.73058 1854.97509,1247.77813 1855.28771,1246.82515 C1855.54594,1246.03799 1855.11715,1245.19055 1854.32999,1244.93233 C1853.54284,1244.6741 1852.69539,1245.10289 1852.43717,1245.89005 C1852.12555,1246.84 1851.81242,1247.78943 1851.49779,1248.73831 C1851.23706,1249.52464 1851.66314,1250.37344 1852.44947,1250.63417 C1853.2358,1250.8949 1854.08461,1250.46882 1854.34534,1249.68249 Z M1862.48844,1223.89286 C1862.77681,1222.93185 1863.06365,1221.97034 1863.34898,1221.00832 C1863.58455,1220.21409 1863.13166,1219.37928 1862.33743,1219.14372 C1861.5432,1218.90815 1860.70839,1219.36104 1860.47282,1220.15527 C1860.1884,1221.11423 1859.90246,1222.07269 1859.61501,1223.03064 C1859.37692,1223.82411 1859.82714,1224.66037 1860.62062,1224.89846 C1861.41409,1225.13656 1862.25034,1224.68634 1862.48844,1223.89286 Z M1869.88925,1197.88122 C1870.14956,1196.9139 1870.40834,1195.94612 1870.66559,1194.97787 C1870.87831,1194.17722 1870.4017,1193.35572 1869.60106,1193.14299 C1868.80041,1192.93027 1867.9789,1193.40688 1867.76618,1194.20753 C1867.50974,1195.1727 1867.25179,1196.13741 1866.99231,1197.10165 C1866.77704,1197.90162 1867.25103,1198.72463 1868.051,1198.9399 C1868.85097,1199.15518 1869.67398,1198.68118 1869.88925,1197.88122 Z M1876.54365,1171.66209 C1876.77623,1170.68738 1877.00728,1169.71225 1877.23678,1168.73668 C1877.4265,1167.93026 1876.92656,1167.12274 1876.12015,1166.93303 C1875.31374,1166.74332 1874.50622,1167.24325 1874.31651,1168.04967 C1874.08773,1169.02214 1873.85742,1169.99418 1873.62558,1170.96579 C1873.4333,1171.7716 1873.93066,1172.5807 1874.73647,1172.77298 C1875.54227,1172.96526 1876.35138,1172.46789 1876.54365,1171.66209 Z M1882.42882,1145.34038 C1882.63321,1144.36086 1882.83606,1143.38094 1883.03737,1142.40061 C1883.20401,1141.58912 1882.68125,1140.79619 1881.86976,1140.62954 C1881.05827,1140.4629 1880.26533,1140.98566 1880.09869,1141.79715 C1879.89802,1142.77437 1879.69581,1143.75118 1879.49207,1144.7276 C1879.32286,1145.53856 1879.8431,1146.33315 1880.65406,1146.50236 C1881.46502,1146.67158 1882.25961,1146.15134 1882.42882,1145.34038 Z M1887.58138,1118.74983 C1887.75761,1117.7652 1887.9323,1116.7802 1888.10544,1115.79484 C1888.24881,1114.97891 1887.70359,1114.20125 1886.88767,1114.05788 C1886.07174,1113.91451 1885.29408,1114.45972 1885.15071,1115.27565 C1884.97811,1116.25789 1884.80398,1117.23978 1884.62831,1118.22129 C1884.48236,1119.03676 1885.02511,1119.81614 1885.84058,1119.9621 C1886.65604,1120.10805 1887.43543,1119.5653 1887.58138,1118.74983 Z M1891.9626,1092.08629 C1892.1111,1091.09449 1892.25805,1090.10235 1892.40344,1089.10987 C1892.52352,1088.2902 1891.95638,1087.52837 1891.1367,1087.40829 C1890.31702,1087.28822 1889.5552,1087.85535 1889.43512,1088.67503 C1889.29019,1089.66437 1889.1437,1090.65338 1888.99567,1091.64205 C1888.873,1092.46135 1889.43772,1093.22496 1890.25701,1093.34763 C1891.07631,1093.47031 1891.83992,1092.90558 1891.9626,1092.08629 Z M1895.58815,1065.27262 C1895.70836,1064.27727 1895.827,1063.28161 1895.94409,1062.28564 C1896.04082,1061.46288 1895.45226,1060.71749 1894.62949,1060.62076 C1893.80673,1060.52404 1893.06134,1061.1126 1892.96461,1061.93536 C1892.84789,1062.92819 1892.72962,1063.92072 1892.60979,1064.91294 C1892.51047,1065.73539 1893.09668,1066.48263 1893.91913,1066.58196 C1894.74158,1066.68128 1895.48883,1066.09507 1895.58815,1065.27262 Z M1898.45503,1038.32205 C1898.54678,1037.32521 1898.63699,1036.32809 1898.72563,1035.3307 C1898.79897,1034.50553 1898.18949,1033.77714 1897.36432,1033.7038 C1896.53915,1033.63046 1895.81075,1034.23994 1895.73741,1035.06511 C1895.64904,1036.05937 1895.55913,1037.05336 1895.46766,1038.04708 C1895.39173,1038.87202 1895.99892,1039.60232 1896.82386,1039.67825 C1897.6488,1039.75418 1898.3791,1039.14699 1898.45503,1038.32205 Z M1900.55439,1011.34229 C1900.618,1010.34252 1900.68006,1009.34251 1900.74057,1008.34226 C1900.79059,1007.51534 1900.16079,1006.80445 1899.33387,1006.75443 C1898.50696,1006.70441 1897.79606,1007.33421 1897.74604,1008.16112 C1897.68573,1009.15825 1897.62386,1010.15514 1897.56044,1011.15178 C1897.50784,1011.97854 1898.13541,1012.6914 1898.96216,1012.74401 C1899.78892,1012.79661 1900.50178,1012.16904 1900.55439,1011.34229 Z M1901.89155,984.348198 C1901.92707,983.347149 1901.96104,982.345886 1901.99345,981.344412 C1902.02025,980.516418 1901.37076,979.823472 1900.54276,979.796672 C1899.71477,979.769873 1899.02182,980.419369 1898.99502,981.247363 C1898.96271,982.245725 1898.92885,983.243877 1898.89344,984.241814 C1898.86406,985.06972 1899.5114,985.764686 1900.3393,985.794063 C1901.16721,985.823439 1901.86217,985.176104 1901.89155,984.348198 Z M1902.47217,957.354183 C1902.47975,956.352807 1902.48578,955.351246 1902.49027,954.349501 C1902.49398,953.521082 1901.82542,952.846511 1900.997,952.842803 C1900.16858,952.839095 1899.49401,953.507656 1899.4903,954.336074 C1899.48583,955.334724 1899.47982,956.333191 1899.47226,957.331473 C1899.46599,958.159876 1900.13246,958.836513 1900.96086,958.842785 C1901.78926,958.849056 1902.4659,958.182586 1902.47217,957.354183 Z M1902.29959,930.274636 C1902.27941,929.282021 1902.2577,928.2896 1902.23446,927.297378 C1902.21507,926.469178 1901.52796,925.81351 1900.69976,925.832903 C1899.87156,925.852295 1899.21589,926.539405 1899.23529,927.367605 C1899.25845,928.356751 1899.28009,929.346094 1899.30021,930.335634 C1899.31706,931.163889 1900.00215,931.821669 1900.8304,931.804825 C1901.65866,931.787981 1902.31644,931.102892 1902.29959,930.274636 Z M1901.37257,903.270904 C1901.32425,902.271754 1901.27438,901.272831 1901.22296,900.274139 C1901.18036,899.446807 1900.47515,898.810654 1899.64782,898.85325 C1898.82049,898.895846 1898.18433,899.601061 1898.22693,900.428393 C1898.27819,901.423972 1898.3279,902.419781 1898.37607,903.415818 C1898.41609,904.243278 1899.11932,904.881627 1899.94678,904.84161 C1900.77424,904.801593 1901.41259,904.098364 1901.37257,903.270904 Z M1899.68593,876.273758 C1899.609,875.269916 1899.5305,874.266334 1899.45043,873.263015 C1899.38453,872.437213 1898.66166,871.821194 1897.83585,871.887099 C1897.01005,871.953003 1896.39403,872.675873 1896.45994,873.501674 C1896.53976,874.501852 1896.61801,875.502291 1896.6947,876.502991 C1896.758,877.328996 1897.47893,877.94729 1898.30493,877.88399 C1899.13094,877.820689 1899.74923,877.099764 1899.68593,876.273758 Z M1897.23418,849.297826 C1897.12829,848.291139 1897.0208,847.284748 1896.91173,846.278654 C1896.82244,845.455052 1896.0824,844.859773 1895.2588,844.949061 C1894.4352,845.038349 1893.83992,845.778392 1893.9292,846.601993 C1894.03793,847.604925 1894.14508,848.608153 1894.25064,849.611675 C1894.33731,850.435556 1895.07546,851.033186 1895.89934,850.946519 C1896.72322,850.859852 1897.32085,850.121707 1897.23418,849.297826 Z M1894.02459,822.451014 C1893.89338,821.471624 1893.76066,820.492545 1893.62642,819.51378 C1893.51386,818.693036 1892.75726,818.118942 1891.93652,818.231505 C1891.11577,818.344068 1890.54168,819.100664 1890.65424,819.921408 C1890.78805,820.897086 1890.92036,821.873077 1891.05116,822.849379 C1891.16117,823.67047 1891.91597,824.246918 1892.73706,824.136913 C1893.55815,824.026907 1894.1346,823.272105 1894.02459,822.451014 Z M1890.06004,795.746377 C1889.90036,794.766853 1889.73916,793.787674 1889.57644,792.808843 C1889.44058,791.991631 1888.66797,791.439282 1887.85076,791.575136 C1887.03355,791.71099 1886.4812,792.483602 1886.61705,793.300814 C1886.77926,794.27655 1886.93995,795.252632 1887.09912,796.22906 C1887.23241,797.046694 1888.00329,797.601465 1888.82092,797.468176 C1889.63856,797.334887 1890.19333,796.564011 1890.06004,795.746377 Z M1885.32606,769.106092 C1885.13786,768.128269 1884.94813,767.150826 1884.75688,766.173766 C1884.59775,765.360767 1883.80967,764.830707 1882.99668,764.989844 C1882.18368,765.148981 1881.65362,765.937052 1881.81275,766.750051 C1882.0034,767.724015 1882.19252,768.698362 1882.38012,769.673087 C1882.53669,770.486584 1883.32309,771.019127 1884.13659,770.862556 C1884.95008,770.705985 1885.48263,769.919589 1885.32606,769.106092 Z M1879.83843,742.636615 C1879.62186,741.66222 1879.40376,740.68824 1879.18413,739.714678 C1879.00182,738.906559 1878.19892,738.399237 1877.39081,738.581542 C1876.58269,738.763848 1876.07536,739.566745 1876.25767,740.374864 C1876.4766,741.345337 1876.69401,742.316227 1876.9099,743.287531 C1877.08964,744.096223 1877.89093,744.606085 1878.69962,744.42634 C1879.50832,744.246595 1880.01818,743.445308 1879.83843,742.636615 Z M1873.5782,716.262593 C1873.33342,715.293443 1873.08712,714.324743 1872.8393,713.356495 C1872.63389,712.553939 1871.81677,712.069859 1871.01421,712.275272 C1870.21165,712.480685 1869.72757,713.297806 1869.93299,714.100363 C1870.18002,715.065535 1870.42554,716.031158 1870.66954,716.99723 C1870.8724,717.800435 1871.68798,718.287107 1872.49119,718.084242 C1873.29439,717.881377 1873.78106,717.065797 1873.5782,716.262593 Z M1866.59173,690.177582 C1866.31918,689.215264 1866.04512,688.253431 1865.76954,687.292086 C1865.54126,686.495732 1864.71063,686.035218 1863.91428,686.263498 C1863.11792,686.491778 1862.65741,687.322408 1862.88569,688.118762 C1863.16039,689.077052 1863.43358,690.035829 1863.70526,690.995088 C1863.93101,691.792164 1864.76017,692.255316 1865.55725,692.029568 C1866.35432,691.80382 1866.81748,690.974657 1866.59173,690.177582 Z M1858.86294,664.305743 C1858.56308,663.351926 1858.26171,662.398628 1857.95885,661.445852 C1857.70789,660.656353 1856.86443,660.219782 1856.07493,660.470745 C1855.28543,660.721707 1854.84886,661.565168 1855.09982,662.354668 C1855.40172,663.304416 1855.70213,664.254684 1856.00104,665.205469 C1856.24949,665.995762 1857.09156,666.43501 1857.88185,666.186558 C1858.67214,665.938105 1859.11139,665.096036 1858.86294,664.305743 Z M1850.36621,638.575573 C1850.03953,637.632012 1849.71137,636.689004 1849.38173,635.746552 C1849.10821,634.964579 1848.25257,634.552392 1847.4706,634.825906 C1846.68862,635.09942 1846.27644,635.955062 1846.54995,636.737034 C1846.87855,637.676492 1847.20567,638.616504 1847.53131,639.557067 C1847.80234,640.339904 1848.65667,640.754803 1849.43951,640.483771 C1850.22234,640.212739 1850.63724,639.35841 1850.36621,638.575573 Z M1841.16318,613.175204 C1840.81041,612.2434 1840.45618,611.312181 1840.10048,610.38155 C1839.80472,609.607719 1838.93764,609.220168 1838.16381,609.515932 C1837.38998,609.811696 1837.00243,610.678774 1837.29819,611.452606 C1837.65276,612.380281 1838.00586,613.308542 1838.35751,614.237388 C1838.65082,615.012151 1839.51667,615.402443 1840.29143,615.109129 C1841.0662,614.815815 1841.45649,613.949967 1841.16318,613.175204 Z M1831.23102,588.032531 C1830.85292,587.114062 1830.47338,586.196209 1830.09241,585.278977 C1829.77464,584.513918 1828.89684,584.151318 1828.13178,584.469087 C1827.36672,584.786855 1827.00412,585.66466 1827.32189,586.429719 C1827.70165,587.344041 1828.07999,588.258981 1828.45688,589.174535 C1828.77224,589.940591 1829.6489,590.305956 1830.41495,589.990601 C1831.18101,589.675245 1831.54638,588.798587 1831.23102,588.032531 Z M1820.57456,563.162871 C1820.16294,562.238975 1819.74984,561.315755 1819.33528,560.393215 C1818.99571,559.637578 1818.10788,559.300284 1817.35224,559.639848 C1816.5966,559.979412 1816.25931,560.867248 1816.59887,561.622885 C1817.01212,562.542501 1817.42391,563.462794 1817.83422,564.383761 C1818.17136,565.140483 1819.05811,565.480622 1819.81483,565.143483 C1820.57156,564.806343 1820.9117,563.919593 1820.57456,563.162871 Z M1809.19881,538.581788 C1808.76335,537.675075 1808.32645,536.769068 1807.88811,535.863768 C1807.52708,535.118146 1806.62997,534.806368 1805.88434,535.167393 C1805.13872,535.528418 1804.82694,536.425532 1805.18797,537.171155 C1805.62492,538.073587 1806.06044,538.976726 1806.49452,539.880567 C1806.85317,540.627335 1807.74929,540.941969 1808.49606,540.583321 C1809.24283,540.224673 1809.55746,539.328556 1809.19881,538.581788 Z M1797.1503,514.385095 C1796.69212,513.496893 1796.23253,512.609422 1795.77154,511.722686 C1795.38942,510.987652 1794.48379,510.70156 1793.74875,511.08368 C1793.01372,511.465801 1792.72763,512.371434 1793.10975,513.106468 C1793.56928,513.9904 1794.02741,514.875063 1794.48415,515.760457 C1794.86394,516.496695 1795.76867,516.785649 1796.50491,516.405853 C1797.24115,516.026058 1797.5301,515.121334 1797.1503,514.385095 Z M1784.39761,490.506164 C1783.91785,489.637872 1783.43674,488.770337 1782.95428,487.903561 C1782.55137,487.179713 1781.63795,486.919541 1780.9141,487.322451 C1780.19025,487.725361 1779.93008,488.638778 1780.33299,489.362625 C1780.81394,490.226664 1781.29353,491.091458 1781.77176,491.957007 C1782.1724,492.682114 1783.085,492.945146 1783.81011,492.544507 C1784.53521,492.143868 1784.79825,491.23127 1784.39761,490.506164 Z M1771.03752,467.115716 C1770.52741,466.25131 1770.01594,465.387714 1769.5031,464.524931 C1769.07981,463.812808 1768.15938,463.578661 1767.44725,464.001949 C1766.73513,464.425236 1766.50098,465.345669 1766.92427,466.057791 C1767.43549,466.917853 1767.94536,467.778725 1768.45385,468.640404 C1768.87489,469.353863 1769.79457,469.590924 1770.50803,469.169893 C1771.22149,468.748862 1771.45855,467.829176 1771.03752,467.115716 Z M1756.94538,443.994084 C1756.41612,443.152878 1755.88555,442.312502 1755.35367,441.472959 C1754.91031,440.773154 1753.9836,440.56526 1753.28379,441.008616 C1752.58399,441.451971 1752.37609,442.378686 1752.81945,443.078492 C1753.34966,443.91539 1753.87856,444.753118 1754.40615,445.591673 C1754.84731,446.292863 1755.77337,446.503658 1756.47456,446.062496 C1757.17575,445.621333 1757.38654,444.695274 1756.94538,443.994084 Z M1742.22036,421.310852 C1741.663,420.478377 1741.10433,419.64678 1740.54435,418.816065 C1740.08129,418.129136 1739.14905,417.947651 1738.46212,418.410707 C1737.77519,418.873762 1737.5937,419.806008 1738.05676,420.492937 C1738.61498,421.321038 1739.17189,422.150018 1739.72749,422.979873 C1740.18838,423.668258 1741.12005,423.852682 1741.80844,423.391794 C1742.49682,422.930907 1742.68125,421.999237 1742.22036,421.310852 Z M1726.82289,399.005429 C1726.23872,398.184374 1725.65325,397.364243 1725.06648,396.545039 C1724.58408,395.871552 1723.64706,395.716644 1722.97357,396.199041 C1722.30008,396.681439 1722.14517,397.618468 1722.62757,398.291955 C1723.2125,399.108583 1723.79613,399.926137 1724.37846,400.744611 C1724.85872,401.419622 1725.79526,401.577498 1726.47027,401.097236 C1727.14528,400.616974 1727.30316,399.68044 1726.82289,399.005429 Z M1710.86692,377.237343 C1710.26803,376.444058 1709.6679,375.651706 1709.06653,374.860291 C1708.56532,374.200686 1707.62429,374.072282 1706.96469,374.573493 C1706.30508,375.074704 1706.17668,376.015731 1706.67789,376.675337 C1707.27737,377.464266 1707.87562,378.25413 1708.47263,379.044923 C1708.97178,379.70609 1709.9124,379.837431 1710.57357,379.338281 C1711.23473,378.839132 1711.36607,377.89851 1710.86692,377.237343 Z M1694.25913,355.874785 C1693.63658,355.09697 1693.0128,354.320127 1692.38782,353.544259 C1691.86813,352.899111 1690.92384,352.797406 1690.2787,353.317094 C1689.63355,353.836782 1689.53184,354.781068 1690.05153,355.426216 C1690.67456,356.19965 1691.29637,356.974055 1691.91697,357.749429 C1692.43464,358.396198 1693.37861,358.500855 1694.02538,357.983186 C1694.67215,357.465518 1694.7768,356.521554 1694.25913,355.874785 Z M1677.06374,335.002994 C1676.41927,334.242892 1675.77361,333.483796 1675.12677,332.725708 C1674.58905,332.095512 1673.64227,332.020545 1673.01207,332.558266 C1672.38187,333.095986 1672.30691,334.04277 1672.84463,334.672967 C1673.48944,335.428677 1674.13308,336.185393 1674.77552,336.943112 C1675.31127,337.574986 1676.25782,337.652911 1676.88969,337.117162 C1677.52157,336.581414 1677.59949,335.634868 1677.06374,335.002994 Z M1659.29314,314.634355 C1658.62865,313.894088 1657.963,313.154855 1657.29621,312.416661 C1656.7409,311.8019 1655.79238,311.753699 1655.17762,312.309001 C1654.56286,312.864304 1654.51466,313.812827 1655.06996,314.427588 C1655.73467,315.163469 1656.39822,315.900384 1657.06063,316.638331 C1657.61402,317.254821 1658.56238,317.305979 1659.17887,316.752596 C1659.79536,316.199213 1659.84652,315.250845 1659.29314,314.634355 Z M1640.89828,294.716598 C1640.20523,293.987173 1639.51104,293.25884 1638.81569,292.531603 C1638.24318,291.932835 1637.29367,291.911549 1636.6949,292.484059 C1636.09613,293.05657 1636.07485,294.006078 1636.64736,294.604847 C1637.34052,295.329805 1638.03255,296.055855 1638.72342,296.782995 C1639.29404,297.383565 1640.24348,297.407845 1640.84405,296.837225 C1641.44462,296.266605 1641.4689,295.317168 1640.89828,294.716598 Z M1622.01261,275.393178 C1621.30382,274.688139 1620.59393,273.984211 1619.88293,273.281396 C1619.29376,272.699009 1618.34403,272.704505 1617.76164,273.293672 C1617.17926,273.882838 1617.18475,274.83257 1617.77392,275.414957 C1618.48269,276.115569 1619.19036,276.817292 1619.89693,277.520122 C1620.48427,278.104351 1621.43401,278.10183 1622.01824,277.514491 C1622.60247,276.927151 1622.59995,275.977407 1622.01261,275.393178 Z M1602.58893,256.610103 C1601.85632,255.921391 1601.12262,255.233834 1600.38784,254.547436 C1599.78247,253.981917 1598.83327,254.014229 1598.26775,254.619606 C1597.70223,255.224982 1597.73454,256.17418 1598.33992,256.739698 C1599.07239,257.423946 1599.80379,258.109348 1600.53411,258.795902 C1601.1377,259.363325 1602.08699,259.334004 1602.65442,258.730412 C1603.22184,258.126821 1603.19252,257.177526 1602.58893,256.610103 Z M1582.57291,238.320522 C1581.81923,237.651179 1581.06448,236.983029 1580.30868,236.316074 C1579.68753,235.767934 1578.73962,235.827125 1578.19148,236.44828 C1577.64334,237.069436 1577.70254,238.017337 1578.32369,238.565477 C1579.07712,239.230342 1579.8295,239.896398 1580.58083,240.563642 C1581.20025,241.113742 1582.14833,241.057546 1582.69843,240.438126 C1583.24853,239.818705 1583.19234,238.870622 1582.57291,238.320522 Z M1562.10868,220.65718 C1561.33678,220.009734 1560.56387,219.36351 1559.78993,218.718509 C1559.15354,218.188136 1558.20769,218.274082 1557.67732,218.910475 C1557.14694,219.546868 1557.23289,220.492719 1557.86928,221.023092 C1558.64079,221.666069 1559.41128,222.310267 1560.18075,222.955682 C1560.81547,223.488063 1561.76159,223.405106 1562.29397,222.770393 C1562.82635,222.135679 1562.74339,221.189561 1562.10868,220.65718 Z M1541.14362,203.571382 C1540.3566,202.948305 1539.56861,202.326471 1538.77964,201.70588 C1538.1285,201.193711 1537.18546,201.306363 1536.67329,201.957496 C1536.16112,202.608629 1536.27377,203.551672 1536.92491,204.063841 C1537.7114,204.682484 1538.49692,205.302367 1539.28147,205.923488 C1539.93099,206.437706 1540.87438,206.328025 1541.3886,205.678509 C1541.90282,205.028993 1541.79314,204.0856 1541.14362,203.571382 Z M1519.69012,187.075515 C1518.89125,186.479061 1518.09144,185.88386 1517.2907,185.289913 C1516.62533,184.796378 1515.68586,184.935675 1515.19232,185.601042 C1514.69878,186.266409 1514.83808,187.205886 1515.50345,187.699422 C1516.30167,188.291503 1517.09897,188.884834 1517.89533,189.479414 C1518.55915,189.975032 1519.49906,189.838678 1519.99468,189.174859 C1520.49029,188.51104 1520.35394,187.571132 1519.69012,187.075515 Z M1497.83372,171.233418 C1497.01689,170.658804 1496.19916,170.085474 1495.38054,169.513431 C1494.70148,169.038912 1493.76632,169.204725 1493.2918,169.883786 C1492.81728,170.562846 1492.9831,171.498007 1493.66216,171.972526 C1494.4782,172.542771 1495.29336,173.114298 1496.10762,173.687105 C1496.78518,174.163754 1497.72086,174.000878 1498.19751,173.323311 C1498.67416,172.645744 1498.51128,171.710067 1497.83372,171.233418 Z M1475.44201,155.952531 C1474.60223,155.396772 1473.76158,154.842344 1472.92004,154.289251 C1472.22775,153.834248 1471.29769,154.026605 1470.84269,154.718894 C1470.38768,155.411182 1470.58004,156.341246 1471.27233,156.79625 C1472.11121,157.347601 1472.94922,157.900283 1473.78635,158.454293 C1474.4772,158.911489 1475.40786,158.722081 1475.86506,158.031238 C1476.32226,157.340396 1476.13285,156.409727 1475.44201,155.952531 Z M1452.7512,141.393345 C1451.90209,140.865342 1451.05214,140.338676 1450.20137,139.81335 C1449.49648,139.37811 1448.57223,139.596697 1448.13699,140.301578 C1447.70175,141.00646 1447.92034,141.930711 1448.62522,142.365951 C1449.47332,142.889621 1450.32058,143.414626 1451.16702,143.940966 C1451.87053,144.378425 1452.79546,144.162752 1453.23292,143.459246 C1453.67038,142.75574 1453.45471,141.830805 1452.7512,141.393345 Z M1429.54963,127.419908 C1428.68721,126.917102 1427.82401,126.415653 1426.96001,125.915564 C1426.24302,125.500567 1425.32537,125.745378 1424.91037,126.462364 C1424.49537,127.17935 1424.74018,128.097003 1425.45717,128.512 C1426.31844,129.010511 1427.17892,129.510377 1428.03862,130.011596 C1428.75429,130.42885 1429.67271,130.186932 1430.08997,129.471257 C1430.50722,128.755582 1430.2653,127.837162 1429.54963,127.419908 Z M1406.08202,114.179992 C1405.20321,113.700491 1404.32364,113.222377 1403.4433,112.745653 C1402.71483,112.351165 1401.80449,112.621913 1401.41001,113.350384 C1401.01552,114.078856 1401.28627,114.989194 1402.01474,115.383682 C1402.89229,115.8589 1403.76908,116.335502 1404.64511,116.813489 C1405.37233,117.210279 1406.28352,116.942413 1406.68031,116.215193 C1407.0771,115.487973 1406.80924,114.576782 1406.08202,114.179992 Z M1382.12792,101.550123 C1381.23914,101.097603 1380.34963,100.646481 1379.45941,100.19676 C1378.71998,99.8232151 1377.81774,100.119824 1377.4442,100.859253 C1377.07065,101.598683 1377.36726,102.500926 1378.10669,102.874471 C1378.99409,103.322769 1379.88078,103.772464 1380.76675,104.223553 C1381.505,104.599428 1382.40818,104.305669 1382.78405,103.567421 C1383.15993,102.829174 1382.86617,101.925999 1382.12792,101.550123 Z M1357.85856,89.6262844 C1356.9512,89.1964482 1356.04314,88.7680495 1355.13439,88.34109 C1354.38459,87.9888129 1353.49119,88.3110648 1353.13891,89.0608596 C1352.78663,89.8106545 1353.10889,90.7040604 1353.85868,91.0563374 C1354.76455,91.4819443 1355.66973,91.908986 1356.57422,92.3374607 C1357.32289,92.6921207 1358.21732,92.3727121 1358.57198,91.6240414 C1358.92664,90.8753708 1358.60723,89.9809445 1357.85856,89.6262844 Z M1333.28985,78.4138166 C1332.37214,78.0107171 1331.45376,77.609069 1330.53474,77.208874 C1329.7752,76.8781287 1328.89135,77.2257344 1328.5606,77.9852731 C1328.22986,78.7448118 1328.57746,79.6286616 1329.337,79.9594069 C1330.25311,80.3583328 1331.16857,80.7587072 1332.08338,81.1605284 C1332.84186,81.4936864 1333.72681,81.1488919 1334.05997,80.3904084 C1334.39313,79.6319249 1334.04833,78.7469746 1333.28985,78.4138166 Z M1308.35345,67.8837771 C1307.42737,67.5082448 1306.50068,67.1341724 1305.57337,66.7615616 C1304.80467,66.4526863 1303.93113,66.8254414 1303.62226,67.5941335 C1303.31338,68.3628256 1303.68614,69.2363666 1304.45483,69.5452419 C1305.3792,69.91667 1306.30295,70.2895551 1307.22609,70.6638955 C1307.9938,70.9752075 1308.86852,70.6052251 1309.17983,69.8375166 C1309.49114,69.0698082 1309.12116,68.1950892 1308.35345,67.8837771 Z M1283.14644,58.0798028 C1282.20907,57.730588 1281.27112,57.3828518 1280.33259,57.0365958 C1279.55537,56.749853 1278.69286,57.1474629 1278.40612,57.9246824 C1278.11937,58.7019019 1278.51698,59.5644137 1279.2942,59.8511564 C1280.22975,60.1963126 1281.16472,60.5429442 1282.09911,60.8910499 C1282.87542,61.1802608 1283.73919,60.7853934 1284.0284,60.0090889 C1284.31761,59.2327845 1283.92274,58.3690137 1283.14644,58.0798028 Z M1257.68411,49.0066842 C1256.73546,48.6838716 1255.78625,48.3625573 1254.8365,48.0427429 C1254.05139,47.7783691 1253.20062,48.2005093 1252.93624,48.9856195 C1252.67187,49.7707297 1253.09401,50.6215045 1253.87912,50.8858784 C1254.82585,51.2046765 1255.77204,51.5249697 1256.71768,51.8467565 C1257.50195,52.1136291 1258.35406,51.6942002 1258.62093,50.9099359 C1258.88781,50.1256716 1258.46838,49.2735568 1257.68411,49.0066842 Z M1231.98152,40.6689986 C1231.02465,40.3736667 1230.06727,40.0798439 1229.10938,39.7875318 C1228.31702,39.5457357 1227.47868,39.9920517 1227.23688,40.7844065 C1226.99509,41.5767613 1227.4414,42.4151063 1228.23376,42.6569024 C1229.18861,42.9482855 1230.14295,43.2411745 1231.09678,43.5355679 C1231.88836,43.7798846 1232.72812,43.336239 1232.97243,42.5446578 C1233.21675,41.7530766 1232.77311,40.9133153 1231.98152,40.6689986 Z M1205.96507,33.0465782 C1205.00162,32.7792614 1204.03769,32.5134604 1203.07328,32.2491765 C1202.27431,32.0302276 1201.44913,32.5004275 1201.23018,33.2993974 C1201.01123,34.0983673 1201.48143,34.9235535 1202.2804,35.1425024 C1203.24174,35.4059466 1204.2026,35.6709031 1205.16299,35.9373705 C1205.96126,36.1588566 1206.78794,35.6912807 1207.00943,34.8930104 C1207.23091,34.0947402 1206.76334,33.2680643 1205.96507,33.0465782 Z M1179.82513,26.1951063 C1178.85194,25.9548516 1177.87831,25.7161301 1176.90424,25.4789432 C1176.09934,25.2829475 1175.28794,25.7765686 1175.09195,26.5814768 C1174.89595,27.3863849 1175.38957,28.1977779 1176.19448,28.3937736 C1177.16546,28.6302074 1178.136,28.8681708 1179.10609,29.1076627 C1179.91037,29.3062195 1180.72333,28.8151836 1180.92189,28.0109034 C1181.12044,27.2066231 1180.62941,26.3936631 1179.82513,26.1951063 Z M1153.48866,20.0915694 C1152.51073,19.8796183 1151.53239,19.669203 1150.55364,19.4603249 C1149.74346,19.2874206 1148.94651,19.8040366 1148.77361,20.6142191 C1148.6007,21.4244015 1149.11732,22.2213508 1149.9275,22.3942551 C1150.90314,22.6024708 1151.87838,22.8122186 1152.85321,23.0234975 C1153.66284,23.1989724 1154.46142,22.6848885 1154.6369,21.8752589 C1154.81237,21.0656293 1154.29829,20.2670443 1153.48866,20.0915694 Z M1126.96974,14.7397101 C1125.98627,14.5558148 1125.00241,14.3734616 1124.01818,14.1926515 C1123.20339,14.042968 1122.42153,14.5821452 1122.27185,15.3969375 C1122.12216,16.2117297 1122.66134,16.9935917 1123.47613,17.1432751 C1124.45724,17.3235127 1125.43798,17.5052885 1126.41835,17.6886015 C1127.23266,17.8408658 1128.01623,17.3041686 1128.16849,16.4898547 C1128.32075,15.6755409 1127.78406,14.8919744 1126.96974,14.7397101 Z M1100.28224,10.1430662 C1099.29209,9.98704113 1098.30159,9.83256867 1097.31075,9.67964978 C1096.49202,9.5532923 1095.72587,10.1145743 1095.59951,10.9333083 C1095.47316,11.7520422 1096.03444,12.5181902 1096.85317,12.6445477 C1097.84088,12.7969835 1098.82825,12.9509679 1099.81527,13.1065 C1100.6336,13.23545 1101.40152,12.6765975 1101.53047,11.8582679 C1101.65942,11.0399383 1101.10057,10.2720163 1100.28224,10.1430662 Z M1073.53272,6.31692157 C1072.53969,6.18924968 1071.54634,6.06313003 1070.55268,5.9385635 C1069.73069,5.83551724 1068.98079,6.41833897 1068.87775,7.24033226 C1068.7747,8.06232555 1069.35752,8.81221827 1070.17952,8.91526452 C1071.17004,9.03943861 1072.16026,9.16516089 1073.15017,9.29243048 C1073.97184,9.39806955 1074.72356,8.81761659 1074.8292,7.99595249 C1074.93484,7.17428839 1074.35439,6.42256065 1073.53272,6.31692157 Z M1046.64319,3.24726331 C1045.64756,3.1478871 1044.65164,3.05006275 1043.65545,2.95379105 C1042.83086,2.87410354 1042.09781,3.47796275 1042.01812,4.30254834 C1041.93843,5.12713394 1042.54229,5.86019212 1043.36688,5.93987963 C1044.35994,6.03584908 1045.35273,6.13336627 1046.34524,6.23243041 C1047.16957,6.3147085 1047.90452,5.71315565 1047.9868,4.88882452 C1048.06908,4.06449339 1047.46753,3.3295414 1046.64319,3.24726331 Z M1019.72119,0.943683077 C1018.72292,0.872435194 1017.7244,0.802739801 1016.72564,0.734597619 C1015.89913,0.678208108 1015.18341,1.30251066 1015.12702,2.12901639 C1015.07063,2.95552212 1015.69493,3.67125013 1016.52143,3.72763964 C1017.51708,3.79556876 1018.51247,3.86504622 1019.50762,3.93607128 C1020.33394,3.99504747 1021.05162,3.3729882 1021.1106,2.54666301 C1021.16957,1.72033783 1020.54751,1.00265926 1019.72119,0.943683077 Z M992.68642,-0.603194048 C991.68618,-0.646314254 990.685719,-0.687882508 989.685038,-0.727898158 C988.857273,-0.760999208 988.159403,-0.116796339 988.126302,0.71096922 C988.093201,1.53873478 988.737403,2.23660505 989.565169,2.2697061 C990.562736,2.30959724 991.560084,2.35103614 992.55721,2.39402214 C993.384869,2.42970239 994.084743,1.78767725 994.120423,0.960018851 C994.156104,0.132360455 993.514078,-0.567513799 992.68642,-0.603194048 Z M965.647233,-1.3895452 C964.645941,-1.4046559 963.644456,-1.41821715 962.642781,-1.43022837 C961.814413,-1.44016142 961.134836,-0.776689161 961.124903,0.0516784117 C961.11497,0.880045984 961.778442,1.55962292 962.60681,1.56955598 C963.605386,1.58153003 964.603772,1.59504932 965.601964,1.61011324 C966.430297,1.62261378 967.111927,0.96125105 967.124428,0.132918244 C967.136928,-0.695414563 966.475566,-1.37704466 965.647233,-1.3895452 Z M938.654417,-1.42154623 C937.655238,-1.40884059 936.656249,-1.3945925 935.657454,-1.37880255 C934.82913,-1.36570759 934.168257,-0.683603053 934.181352,0.144720569 C934.194447,0.973044192 934.876551,1.6339176 935.704875,1.62082263 C936.700579,1.60508156 937.696475,1.59087757 938.692562,1.57821125 C939.520922,1.56767776 940.183902,0.887620091 940.173368,0.059259936 C940.162835,-0.769100219 939.482777,-1.43207972 938.654417,-1.42154623 Z M911.599292,-0.699013414 C910.593335,-0.658038317 909.5876,-0.615494035 908.582091,-0.571381236 C907.75446,-0.535072166 907.112966,0.165289679 907.149275,0.992920727 C907.185584,1.82055178 907.885946,2.46204499 908.713577,2.42573592 C909.715957,2.38176043 910.718561,2.33934856 911.721388,2.29850098 C912.549129,2.26478506 913.192813,1.56643646 913.159097,0.738695717 C913.125381,-0.0890450262 912.427032,-0.732729329 911.599292,-0.699013414 Z M884.547605,0.784458696 C883.536715,0.854199145 882.52608,0.925530935 881.515704,0.998453321 C880.689426,1.05808866 880.067939,1.77626322 880.127575,2.6025411 C880.18721,3.42881897 880.905385,4.05030554 881.731663,3.9906702 C882.738879,3.9179759 883.746353,3.8468672 884.754082,3.77734483 C885.580545,3.72032788 886.204304,3.00412612 886.147287,2.17766344 C886.09027,1.35120076 885.374068,0.727441746 884.547605,0.784458696 Z M857.607744,3.02528362 C856.623067,3.12121224 855.638664,3.21865803 854.654536,3.31762022 C853.830266,3.40050739 853.229256,4.13590366 853.312143,4.96017378 C853.39503,5.78444389 854.130427,6.38545352 854.954697,6.30256635 C855.935734,6.20391496 856.917046,6.10677517 857.898631,6.01114776 C858.723155,5.93082149 859.326446,5.19729572 859.24612,4.37277211 C859.165794,3.54824849 858.432268,2.94495735 857.607744,3.02528362 Z M830.69935,6.03263083 C829.71256,6.15712976 828.726077,6.28316065 827.739904,6.41072264 C826.918321,6.51699471 826.338448,7.26916942 826.44472,8.09075189 C826.550992,8.91233435 827.303167,9.49220801 828.124749,9.38593594 C829.107815,9.25877593 830.091189,9.13314218 831.07487,9.00903551 C831.896782,8.90533856 832.479009,8.15498469 832.375312,7.33307323 C832.271616,6.51116178 831.521262,5.92893388 830.69935,6.03263083 Z M803.930013,9.79713909 C802.942859,9.95030703 801.956047,10.1050173 800.969579,10.261269 C800.151352,10.3908719 799.593113,11.1592395 799.722716,11.977466 C799.852319,12.7956925 800.620686,13.3539321 801.438913,13.2243291 C802.422264,13.0685712 803.405958,12.9143498 804.389992,12.7616658 C805.208624,12.634646 805.769286,11.8680441 805.642266,11.0494127 C805.515246,10.2307812 804.748644,9.67011924 803.930013,9.79713909 Z M777.312986,14.3157687 C776.327209,14.4975949 775.341808,14.6809693 774.356786,14.865891 C773.542582,15.0187443 773.006452,15.8026987 773.159305,16.6169022 C773.312159,17.4311058 774.096113,17.967236 774.910316,17.8143827 C775.892219,17.6300467 776.8745,17.4472529 777.857155,17.2660025 C778.67184,17.1157343 779.210456,16.3334854 779.060188,15.5188009 C778.909919,14.7041163 778.127671,14.1655004 777.312986,14.3157687 Z M750.771314,19.604646 C749.788745,19.81509 748.806587,20.0270833 747.824843,20.240625 C747.015344,20.4167012 746.501853,21.2156678 746.677929,22.0251668 C746.854005,22.8346658 747.652972,23.3481565 748.462471,23.1720803 C749.441101,22.9592159 750.420144,22.747895 751.399597,22.5381185 C752.209653,22.364623 752.725688,21.5672969 752.552192,20.7572409 C752.378697,19.9471848 751.581371,19.4311505 750.771314,19.604646 Z M724.411052,25.6459396 C723.433408,25.8847694 722.45621,26.1251452 721.479462,26.3670659 C720.675333,26.5662325 720.184913,27.3795646 720.38408,28.1836941 C720.583247,28.9878235 721.396579,29.4782428 722.200708,29.2790762 C723.174354,29.0379237 724.148449,28.7983112 725.122989,28.5602398 C725.927751,28.3636437 726.420767,27.5518828 726.224171,26.7471211 C726.027575,25.9423593 725.215814,25.4493436 724.411052,25.6459396 Z M698.246276,32.435917 C697.275255,32.7027947 696.304717,32.9712108 695.334663,33.2411639 C694.536563,33.4632645 694.069624,34.2903 694.291725,35.0883995 C694.513825,35.8864991 695.340861,36.3534385 696.13896,36.1313379 C697.105932,35.8622426 698.073386,35.5946794 699.041322,35.3286496 C699.840128,35.1091037 700.309711,34.2835664 700.090165,33.4847603 C699.870619,32.6859543 699.045082,32.2163711 698.246276,32.435917 Z M672.291299,39.9706395 C671.328579,40.2651233 670.366376,40.5611332 669.404692,40.858668 C668.613277,41.1035234 668.170203,41.9435863 668.415059,42.7350011 C668.659914,43.5264158 669.499977,43.9694898 670.291392,43.7246344 C671.250019,43.4280453 672.209164,43.132976 673.168825,42.8394281 C673.961019,42.5971061 674.406778,41.758465 674.164456,40.9662709 C673.922134,40.1740768 673.083493,39.7283174 672.291299,39.9706395 Z M646.560676,48.2459606 C645.607907,48.567506 644.655689,48.890561 643.704025,49.2151243 C642.919944,49.4825338 642.501098,50.3349356 642.768508,51.119017 C643.035917,51.9030984 643.888319,52.3219438 644.6724,52.0545343 C645.621041,51.7310024 646.570233,51.4089739 647.519974,51.0884503 C648.304906,50.8235475 648.726473,49.9724884 648.46157,49.1875565 C648.196667,48.4026247 647.345608,47.9810578 646.560676,48.2459606 Z M621.069203,57.2575245 C620.128007,57.6054861 619.187395,57.9549367 618.24737,58.3058748 C617.471263,58.5956173 617.076988,59.4596584 617.36673,60.2357646 C617.656473,61.0118707 618.520514,61.4061464 619.29662,61.1164039 C620.233659,60.7665804 621.171284,60.4182398 622.109491,60.0713834 C622.886516,59.7841159 623.283544,58.9213359 622.996276,58.1443102 C622.709009,57.3672845 621.846229,56.9702571 621.069203,57.2575245 Z M595.831918,67.000764 C594.903884,67.3743975 593.976465,67.7494952 593.049666,68.1260556 C592.28217,68.4378908 591.912783,69.3128617 592.224619,70.0803578 C592.536454,70.847854 593.411425,71.2172401 594.178921,70.905405 C595.102779,70.5300398 596.027253,70.1561326 596.952342,69.7836851 C597.720825,69.4742885 598.092987,68.6004949 597.783591,67.8320125 C597.474194,67.06353 596.600401,66.6913674 595.831918,67.000764 Z M570.864106,77.4708989 C569.950786,77.8693628 569.038112,78.2692622 568.126089,78.6705955 C567.36783,79.0042649 567.023632,79.8894475 567.357302,80.6477062 C567.690971,81.4059648 568.576154,81.7501625 569.334412,81.4164931 C570.243544,81.0164324 571.153324,80.6178011 572.063748,80.2206009 C572.823057,79.8893291 573.17005,79.0052385 572.838778,78.2459293 C572.507506,77.4866201 571.623416,77.1396272 570.864106,77.4708989 Z M546.1813,88.6629344 C545.284207,89.0852919 544.387789,89.5090525 543.49205,89.9342144 C542.743648,90.2894425 542.424918,91.1841109 542.780147,91.9325122 C543.135375,92.6809135 544.030043,92.9996434 544.778444,92.6444153 C545.671346,92.2206 546.564925,91.7981818 547.459176,91.3771623 C548.20869,91.0242866 548.530228,90.1306237 548.177352,89.3811103 C547.824477,88.631597 546.930814,88.3100587 546.1813,88.6629344 Z M521.879637,100.530982 C520.981203,100.985734 520.083501,101.441912 519.186536,101.899516 C518.448595,102.27599 518.155568,103.179404 518.532043,103.917346 C518.908517,104.655287 519.811931,104.948314 520.549872,104.571839 C521.444,104.115684 522.338861,103.660949 523.234452,103.207636 C523.97359,102.833514 524.269493,101.931039 523.895372,101.191901 C523.52125,100.452764 522.618775,100.15686 521.879637,100.530982 Z M497.971145,113.063011 C497.09237,113.53969 496.214354,114.017754 495.337099,114.497201 C494.610156,114.894498 494.342925,115.805875 494.740222,116.532818 C495.137519,117.259761 496.048896,117.526992 496.775839,117.129695 C497.650322,116.651763 498.525564,116.175209 499.401562,115.700037 C500.129757,115.305038 500.399865,114.39451 500.004866,113.666315 C499.609868,112.938121 498.69934,112.668012 497.971145,113.063011 Z M474.390198,126.292014 C473.515115,126.799442 472.640845,127.308265 471.767391,127.818482 C471.052064,128.236331 470.81091,129.154952 471.228759,129.870279 C471.646608,130.585607 472.565229,130.826761 473.280557,130.408912 C474.151254,129.900306 475.022765,129.393089 475.895086,128.887262 C476.611744,128.471699 476.855829,127.553852 476.440266,126.837194 C476.024702,126.120536 475.106855,125.876451 474.390198,126.292014 Z M451.2293,140.165172 C450.377192,140.692148 449.525917,141.220468 448.675479,141.750131 C447.972284,142.18809 447.757267,143.113178 448.195225,143.816374 C448.633184,144.519569 449.558272,144.734586 450.261467,144.296627 C451.109225,143.768634 451.957817,143.241978 452.807239,142.716664 C453.511814,142.280928 453.729751,141.356523 453.294015,140.651948 C452.858279,139.947373 451.933875,139.729436 451.2293,140.165172 Z M428.425819,154.719565 C427.582154,155.275054 426.739373,155.831883 425.897477,156.390052 C425.207015,156.847822 425.018381,157.778648 425.476151,158.469111 C425.933921,159.159573 426.864747,159.348207 427.555209,158.890437 C428.394454,158.334025 429.234583,157.778948 430.075592,157.225209 C430.767506,156.769637 430.959099,155.839415 430.503527,155.147501 C430.047955,154.455586 429.117733,154.263993 428.425819,154.719565 Z M405.996403,169.949184 C405.178891,170.521421 404.362277,171.094941 403.546562,171.669743 C402.869374,172.14693 402.707241,173.082736 403.184429,173.759924 C403.661616,174.437113 404.597422,174.599245 405.27461,174.122058 C406.08776,173.549064 406.901807,172.977347 407.716748,172.406909 C408.39543,171.931849 408.560498,170.996556 408.085438,170.317874 C407.610378,169.639192 406.675085,169.474124 405.996403,169.949184 Z M384.101397,185.741199 C383.296617,186.339134 382.492776,186.938337 381.689879,187.538807 C381.026463,188.034962 380.89087,188.97498 381.387025,189.638397 C381.88318,190.301814 382.823199,190.437406 383.486616,189.941251 C384.286991,189.342668 385.088306,188.745347 385.890558,188.14929 C386.555534,187.655227 386.694086,186.71564 386.200023,186.050664 C385.70596,185.385688 384.766373,185.247136 384.101397,185.741199 Z M362.608153,202.187838 C361.818621,202.809912 361.030068,203.433233 360.242499,204.057798 C359.593405,204.572548 359.484497,205.51603 359.999247,206.165125 C360.513997,206.814219 361.45748,206.923127 362.106574,206.408377 C362.891672,205.785772 363.677749,205.164408 364.464804,204.544287 C365.115519,204.031587 365.227402,203.088452 364.714702,202.437737 C364.202003,201.787022 363.258868,201.675138 362.608153,202.187838 Z M341.602325,219.225431 C340.830308,219.869917 340.059307,220.515621 339.289324,221.162542 C338.655048,221.695444 338.572868,222.64163 339.105771,223.275906 C339.638673,223.910182 340.584859,223.992362 341.219135,223.459459 C341.986703,222.814567 342.755287,222.170888 343.524882,221.528424 C344.160836,220.997524 344.245999,220.051603 343.7151,219.415649 C343.184201,218.779695 342.238279,218.694532 341.602325,219.225431 Z M321.096298,236.84159 C320.343945,237.506616 319.592637,238.172827 318.842379,238.84022 C318.223408,239.390826 318.167988,240.338955 318.718594,240.957926 C319.2692,241.576896 320.217329,241.632317 320.836299,241.081711 C321.584206,240.41641 322.333158,239.752287 323.083153,239.089346 C323.703853,238.540691 323.762258,237.592741 323.213603,236.97204 C322.664948,236.35134 321.716998,236.292935 321.096298,236.84159 Z M301.102455,255.023928 C300.371788,255.707484 299.642193,256.392187 298.913673,257.078032 C298.310486,257.645885 298.281843,258.595201 298.849696,259.198388 C299.417549,259.801574 300.366865,259.830218 300.970051,259.262364 C301.696289,258.578668 302.423598,257.896112 303.151974,257.214697 C303.756938,256.648738 303.788558,255.699517 303.222599,255.094553 C302.65664,254.489589 301.707419,254.457969 301.102455,255.023928 Z M281.569807,273.822798 C280.862871,274.522724 280.157026,275.223751 279.452275,275.925878 C278.865396,276.51057 278.863624,277.460316 279.448317,278.047194 C280.033009,278.634073 280.982755,278.635845 281.569633,278.051152 C282.272176,277.351226 282.97581,276.652395 283.680531,275.954662 C284.269229,275.371802 284.273961,274.422066 283.691101,273.833368 C283.108241,273.24467 282.158505,273.239938 281.569807,273.822798 Z M262.639278,293.102104 C261.947727,293.826567 261.257313,294.552115 260.568039,295.278744 C259.997906,295.879776 260.022954,296.829193 260.623987,297.399327 C261.225019,297.96946 262.174436,297.944411 262.744569,297.343379 C263.431683,296.619027 264.119933,295.895753 264.809318,295.17356 C265.381334,294.57432 265.359266,293.624829 264.760026,293.052812 C264.160786,292.480795 263.211295,292.502864 262.639278,293.102104 Z M244.258128,312.910392 C243.584902,313.656746 242.912852,314.404159 242.241983,315.152628 C241.689049,315.769519 241.740896,316.717851 242.357788,317.270785 C242.97468,317.823719 243.923011,317.771871 244.475945,317.154979 C245.144712,316.408856 245.814655,315.663786 246.485771,314.919772 C247.040646,314.304625 246.991786,313.356135 246.376639,312.801261 C245.761493,312.246386 244.813003,312.295246 244.258128,312.910392 Z M226.380876,333.3032 C225.728876,334.068558 225.078084,334.834942 224.428503,335.602349 C223.893274,336.234663 223.971976,337.181144 224.60429,337.716374 C225.236604,338.251603 226.183084,338.172901 226.718314,337.540587 C227.365858,336.775587 228.014609,336.011606 228.664564,335.248648 C229.201785,334.618025 229.126067,333.6713 228.495444,333.13408 C227.864821,332.596859 226.918096,332.672577 226.380876,333.3032 Z M209.137556,354.133945 C208.509159,354.915311 207.881993,355.697664 207.256061,356.481 C206.738917,357.128189 206.844341,358.072068 207.49153,358.589211 C208.13872,359.106354 209.082598,359.000931 209.599741,358.353741 C210.22371,357.572864 210.848908,356.792966 211.475333,356.014052 C211.99451,355.368492 211.892057,354.424287 211.246498,353.90511 C210.600939,353.385933 209.656733,353.488386 209.137556,354.133945 Z M192.480815,375.45648 C191.878338,376.250645 191.277105,377.045751 190.67712,377.841795 C190.178494,378.503357 190.310581,379.443874 190.972143,379.9425 C191.633705,380.441125 192.574222,380.309039 193.072848,379.647477 C193.670949,378.853933 194.270293,378.061324 194.870879,377.269653 C195.371573,376.609655 195.242431,375.668729 194.582434,375.168035 C193.922436,374.667341 192.981509,374.796482 192.480815,375.45648 Z M176.475039,397.185691 C175.893608,397.998857 175.313456,398.812935 174.734586,399.627921 C174.254865,400.303316 174.41349,401.239724 175.088885,401.719445 C175.764281,402.199166 176.700688,402.040541 177.180409,401.365146 C177.75746,400.552722 178.335788,399.741203 178.91539,398.930593 C179.397232,398.256709 179.24155,397.319808 178.567666,396.837966 C177.893781,396.356125 176.95688,396.511806 176.475039,397.185691 Z M161.026583,419.45313 C160.469367,420.281183 159.913452,421.110109 159.35884,421.939905 C158.8985,422.628656 159.083663,423.560179 159.772414,424.02052 C160.461165,424.480861 161.392688,424.295698 161.853028,423.606947 C162.405894,422.779762 162.96006,421.953444 163.515523,421.127998 C163.978024,420.440696 163.795788,419.508596 163.108487,419.046094 C162.421185,418.583593 161.489085,418.765829 161.026583,419.45313 Z M146.249721,442.099521 C145.713577,442.947245 145.178774,443.795815 144.645312,444.645229 C144.204716,445.346776 144.416259,446.272664 145.117805,446.71326 C145.819351,447.153855 146.74524,446.942313 147.185835,446.240767 C147.717616,445.394029 148.250735,444.548133 148.785189,443.70308 C149.227999,443.00293 149.019384,442.076377 148.319234,441.633567 C147.619084,441.190756 146.692531,441.399371 146.249721,442.099521 Z M132.150505,465.108173 C131.638708,465.970599 131.128275,466.833836 130.619208,467.697881 C130.198685,468.41164 130.436399,469.331157 131.150157,469.751681 C131.863916,470.172204 132.783433,469.93449 133.203957,469.220732 C133.711418,468.359413 134.220241,467.498899 134.730422,466.639194 C135.153202,465.926769 134.918398,465.006504 134.205974,464.583725 C133.493549,464.160945 132.573284,464.395749 132.150505,465.108173 Z M118.691124,488.541192 C118.206727,489.413011 117.723702,490.285597 117.242049,491.158946 C116.841979,491.884367 117.105728,492.796757 117.831149,493.196827 C118.55657,493.596897 119.468961,493.333148 119.869031,492.607727 C120.349162,491.737137 120.830661,490.867308 121.313528,489.998243 C121.715882,489.274086 121.455009,488.360869 120.730852,487.958515 C120.006695,487.556162 119.093478,487.817035 118.691124,488.541192 Z M105.925186,512.306543 C105.462362,513.198327 105.000951,514.090852 104.540955,514.984116 C104.161683,515.720624 104.451279,516.625143 105.187787,517.004415 C105.924295,517.383688 106.828814,517.094091 107.208086,516.357583 C107.666627,515.467144 108.126579,514.577442 108.587939,513.688479 C108.96955,512.95318 108.682829,512.047745 107.94753,511.666134 C107.212231,511.284523 106.306797,511.571244 105.925186,512.306543 Z M93.7797007,536.550549 C93.3427051,537.45493 92.9071429,538.360015 92.4730158,539.265803 C92.114966,540.012858 92.4303174,540.908723 93.1773729,541.266773 C93.9244283,541.624822 94.8202931,541.309471 95.1783429,540.562416 C95.6110952,539.659497 96.0452781,538.757277 96.4808898,537.855761 C96.841314,537.109848 96.5288138,536.212985 95.782901,535.85256 C95.0369882,535.492136 94.1401249,535.804636 93.7797007,536.550549 Z M82.3844115,561.017601 C81.9731451,561.934571 81.5633329,562.852212 81.1549764,563.77052 C80.818369,564.527479 81.1591313,565.413989 81.9160904,565.750597 C82.6730494,566.087204 83.5595601,565.746442 83.8961675,564.989483 C84.3032293,564.074087 84.7117423,563.159355 85.1217049,562.245291 C85.4607223,561.489409 85.1227863,560.601817 84.3669036,560.262799 C83.6110209,559.923782 82.7234289,560.261718 82.3844115,561.017601 Z M71.6683237,585.85557 C71.2836882,586.783346 70.9005227,587.711755 70.518829,588.640794 C70.2040063,589.40707 70.5699812,590.283473 71.3362567,590.598296 C72.1025322,590.913118 72.9789355,590.547143 73.2937582,589.780868 C73.6742406,588.854777 74.0561901,587.929314 74.4396051,587.004482 C74.7568685,586.239214 74.3936888,585.361649 73.6284206,585.044385 C72.8631523,584.727122 71.9855871,585.090302 71.6683237,585.85557 Z M61.6757126,610.967689 C61.318907,611.903092 60.9635784,612.839087 60.6097283,613.775674 C60.316941,614.550636 60.7078214,615.416219 61.482784,615.709006 C62.2577466,616.001793 63.123329,615.610913 63.4161163,614.83595 C63.7688426,613.902339 64.1230427,612.969315 64.4787152,612.036883 C64.773965,611.262855 64.3858388,610.396034 63.611811,610.100785 C62.8377832,609.805535 61.9709624,610.193661 61.6757126,610.967689 Z M52.3813925,636.42462 C52.0520097,637.368624 51.7241148,638.313184 51.3977093,639.258298 C51.1272763,640.041341 51.5428294,640.895353 52.3258732,641.165786 C53.1089169,641.436219 53.9629285,641.020666 54.2333615,640.237622 C54.5587299,639.295512 54.885583,638.353953 55.2139192,637.412949 C55.4868385,636.630768 55.0740006,635.77544 54.2918199,635.502521 C53.5096393,635.229602 52.6543118,635.64244 52.3813925,636.42462 Z M43.8523759,662.040395 C43.5490071,662.996948 43.2471505,663.954026 42.9468074,664.911626 C42.6988865,665.702086 43.1387012,666.54386 43.929161,666.791781 C44.7196208,667.039702 45.5613947,666.599887 45.8093156,665.809427 C46.1087041,664.85487 46.4096014,663.900834 46.7120061,662.947322 C46.9624468,662.157657 46.5253192,661.314484 45.7356541,661.064043 C44.945989,660.813603 44.1028166,661.25073 43.8523759,662.040395 Z M36.0355009,687.973165 C35.7602542,688.936089 35.4865253,689.8995 35.2143157,690.863397 C34.9891692,691.660643 35.4529473,692.489456 36.2501929,692.714602 C37.0474385,692.939748 37.876251,692.47597 38.1013975,691.678725 C38.3727422,690.717891 38.6456012,689.75754 38.9199733,688.797677 C39.1476559,688.001151 38.6865179,687.170867 37.8899929,686.943185 C37.0934678,686.715502 36.2631835,687.17664 36.0355009,687.973165 Z M28.9877968,714.033077 C28.7403944,715.00267 28.4945175,715.972716 28.2501673,716.943212 C28.0478997,717.746567 28.5351773,718.561785 29.3385323,718.764052 C30.1418873,718.96632 30.9571056,718.479043 31.1593732,717.675688 C31.4029474,716.708274 31.6480434,715.741309 31.89466,714.774796 C32.0994799,713.972087 31.6147957,713.155325 30.8120876,712.950505 C30.0093795,712.745685 29.1926167,713.230369 28.9877968,714.033077 Z M22.665367,740.382965 C22.4455252,741.360774 22.2272222,742.339004 22.0104592,743.317652 C21.8313106,744.126476 22.3417639,744.927387 23.1505885,745.106535 C23.9594131,745.285684 24.7603237,744.775231 24.9394723,743.966406 C25.1555476,742.990864 25.373158,742.015737 25.5923022,741.041031 C25.774022,740.23278 25.2661183,739.43025 24.4578675,739.24853 C23.6496166,739.06681 22.8470868,739.574714 22.665367,740.382965 Z M17.1150188,766.829426 C16.9234444,767.811819 16.7334115,768.794599 16.5449214,769.777761 C16.3889377,770.591371 16.9220488,771.377382 17.7356584,771.533365 C18.549268,771.689349 19.3352787,771.156238 19.4912624,770.342628 C19.6791554,769.36258 19.8685862,768.382915 20.0595537,767.403634 C20.2181168,766.590523 19.6875009,765.802825 18.8743901,765.644262 C18.0612792,765.485699 17.2735819,766.016315 17.1150188,766.829426 Z M12.3175809,793.44772 C12.1541646,794.434894 11.9922944,795.422421 11.8319712,796.410299 C11.6992617,797.228027 12.2545791,797.99851 13.0723075,798.131219 C13.8900358,798.263929 14.660518,797.708611 14.7932276,796.890883 C14.9530439,795.906129 15.1144023,794.921724 15.2773019,793.937671 C15.412598,793.120366 14.859721,792.348131 14.0424166,792.212835 C13.2251122,792.077539 12.452877,792.630416 12.3175809,793.44772 Z M8.27641961,820.224202 C8.14094037,821.217597 8.00701697,822.211314 7.87465028,823.205351 C7.76530154,824.02653 8.34235369,824.780872 9.16353233,824.89022 C9.98471097,824.999569 10.7390524,824.422517 10.8484012,823.601338 C10.9803505,822.610435 11.1138516,821.619852 11.2489036,820.629589 C11.3608482,819.80876 10.7861841,819.052598 9.9653553,818.940654 C9.14452651,818.828709 8.38836425,819.403373 8.27641961,820.224202 Z M5.00476051,847.051908 C4.89759608,848.047982 4.7919871,849.044347 4.68793438,850.040999 C4.60191229,850.864948 5.20012012,851.602625 6.02406897,851.688647 C6.84801782,851.774669 7.58569501,851.176462 7.6717171,850.352513 C7.77544281,849.358993 7.88071985,848.36576 7.98754742,847.372816 C8.07616385,846.549143 7.48028207,845.809585 6.65660821,845.720969 C5.83293435,845.632352 5.09337694,846.228234 5.00476051,847.051908 Z M2.49027541,874.009686 C2.41136832,875.008265 2.33401664,876.007104 2.25822112,877.006199 C2.1955533,877.832253 2.8143996,878.552704 3.64045302,878.615372 C4.46650644,878.678039 5.18695734,878.059193 5.24962516,877.23314 C5.32518341,876.237171 5.40229292,875.24146 5.48095295,874.246008 C5.54621133,873.420155 4.92962773,872.697766 4.10377493,872.632508 C3.27792213,872.56725 2.55553379,873.183833 2.49027541,874.009686 Z M0.740467039,900.989677 C0.689708787,901.990043 0.640504597,902.990639 0.592855141,903.991463 C0.553458144,904.818953 1.19233359,905.521703 2.0198234,905.5611 C2.8473132,905.600497 3.55006381,904.961622 3.58946081,904.134132 C3.6369618,903.136427 3.68601265,902.138949 3.73661271,901.141701 C3.77859282,900.314338 3.14191437,899.609596 2.31455159,899.567616 C1.48718881,899.525636 0.782447153,900.162314 0.740467039,900.989677 Z M-0.250145023,927.977238 C-0.272886598,928.978536 -0.294077226,929.980036 -0.313716295,930.981733 C-0.329955138,931.810001 0.328324519,932.494609 1.15659247,932.510848 C1.98486042,932.527087 2.66946845,931.868807 2.68570729,931.040539 C2.7052855,930.041946 2.72641044,929.043551 2.74908152,928.045357 C2.76789198,927.217143 2.11174114,926.530495 1.2835276,926.511684 C0.455314056,926.492874 -0.231334564,927.149025 -0.250145023,927.977238 Z M-0.486888849,955.048399 C-0.481664285,956.054046 -0.474878624,957.059507 -0.466532452,958.064781 C-0.459654767,958.893179 0.21747043,959.559154 1.045869,959.552276 C1.87426758,959.545398 2.54024184,958.868273 2.53336416,958.039875 C2.52504378,957.037708 2.51827909,956.035353 2.51307067,955.032814 C2.50876686,954.204398 1.83371412,953.536323 1.00529817,953.540627 C0.176882226,953.54493 -0.491192659,954.219983 -0.486888849,955.048399 Z M0.0299094019,982.058064 C0.0634385169,983.070819 0.0985564267,984.083356 0.13526247,985.095674 C0.165281017,985.923557 0.860747695,986.570354 1.68863077,986.540336 C2.51651385,986.510317 3.16331084,985.814851 3.1332923,984.986968 C3.09670035,983.977796 3.06169158,982.968406 3.02826666,981.958798 C3.00085507,981.130825 2.30742845,980.481841 1.47945495,980.509253 C0.651481459,980.536664 0.00249781033,981.230091 0.0299094019,982.058064 Z M1.30946393,1009.16354 C1.37004891,1010.15109 1.43215076,1011.1384 1.49576882,1012.12547 C1.54905128,1012.95219 2.26242762,1013.57917 3.08913947,1013.52589 C3.91585132,1013.47261 4.54283972,1012.75923 4.48955726,1011.93252 C4.42613794,1010.94853 4.36423006,1009.9643 4.30383431,1008.97984 C4.25310666,1008.15296 3.54167114,1007.52377 2.71479859,1007.5745 C1.88792605,1007.62523 1.25873629,1008.33666 1.30946393,1009.16354 Z M3.34001908,1036.06616 C3.42894466,1037.05799 3.51940744,1038.04956 3.61140667,1039.04085 C3.68796154,1039.86574 4.41872077,1040.47238 5.2436031,1040.39582 C6.06848543,1040.31927 6.67512469,1039.58851 6.59856982,1038.76362 C6.50685922,1037.77544 6.41668022,1036.78698 6.32803356,1035.79826 C6.25405553,1034.97314 5.52519465,1034.36422 4.70007723,1034.4382 C3.87495982,1034.51218 3.26604104,1035.24104 3.34001908,1036.06616 Z M6.13331173,1062.9421 C6.25090268,1063.93637 6.37004653,1064.93035 6.49074244,1065.92402 C6.59063278,1066.74641 7.33828285,1067.3321 8.16066562,1067.23221 C8.98304839,1067.13232 9.56874424,1066.38467 9.4688539,1065.56229 C9.34853801,1064.57175 9.22976926,1063.5809 9.11254848,1062.58975 C9.01525056,1061.76705 8.26945015,1061.17901 7.44675664,1061.2763 C6.62406313,1061.3736 6.03601381,1062.1194 6.13331173,1062.9421 Z M9.69440989,1089.77616 C9.84087349,1090.77104 9.98890099,1091.76558 10.1384915,1092.75978 C10.2617517,1093.57899 11.0257715,1094.14316 11.8449775,1094.0199 C12.6641834,1093.89664 13.2283589,1093.13262 13.1050987,1092.31342 C12.9559806,1091.32235 12.8084205,1090.33095 12.6624194,1089.33922 C12.5417607,1088.51963 11.7795359,1087.95303 10.9599428,1088.07369 C10.1403496,1088.19434 9.57375121,1088.95657 9.69440989,1089.77616 Z M14.0118792,1116.4611 C14.1872224,1117.45483 14.3641359,1118.44819 14.5426188,1119.44117 C14.6891752,1120.25653 15.4689629,1120.79871 16.2843234,1120.65215 C17.0996839,1120.50559 17.6418567,1119.72581 17.4953003,1118.91045 C17.3173824,1117.92061 17.1410287,1116.93039 16.9662405,1115.93981 C16.8222887,1115.12398 16.0442363,1114.57932 15.228412,1114.72328 C14.4125876,1114.86723 13.8679274,1115.64528 14.0118792,1116.4611 Z M19.101199,1143.07416 C19.3053997,1144.0649 19.5111726,1145.05524 19.7185164,1146.04516 C19.8883483,1146.856 20.6833336,1147.37563 21.4941656,1147.2058 C22.3049977,1147.03597 22.8246309,1146.24098 22.654799,1145.43015 C22.4481126,1144.44336 22.2429922,1143.45616 22.0394389,1142.46856 C21.8722082,1141.65719 21.0788935,1141.13501 20.267521,1141.30224 C19.4561484,1141.46947 18.9339683,1142.26279 19.101199,1143.07416 Z M24.9452678,1169.50907 C25.1781108,1170.4951 25.4125231,1171.48069 25.6485035,1172.46584 C25.8414846,1173.27147 26.651024,1173.76813 27.4566602,1173.57515 C28.2622965,1173.38217 28.7589516,1172.57263 28.5659704,1171.76699 C28.3307392,1170.78497 28.0970711,1169.80251 27.8649672,1168.81961 C27.674578,1168.01335 26.8666401,1167.5141 26.0603874,1167.70449 C25.2541347,1167.89488 24.7548786,1168.70281 24.9452678,1169.50907 Z M31.5167235,1195.66302 C31.7778141,1196.64275 32.040467,1197.622 32.3046808,1198.60076 C32.5205831,1199.40056 33.3439713,1199.8739 34.1437698,1199.658 C34.9435684,1199.4421 35.4169099,1198.61871 35.2010076,1197.81891 C34.9376331,1196.84325 34.6758147,1195.86712 34.4155535,1194.8905 C34.2022286,1194.09001 33.3803693,1193.61402 32.5798794,1193.82735 C31.7793896,1194.04067 31.3033985,1194.86253 31.5167235,1195.66302 Z M38.856539,1221.70029 C39.1455275,1222.67192 39.4360666,1223.64304 39.7281549,1224.61363 C39.9668831,1225.40692 40.8034948,1225.85648 41.5967793,1225.61775 C42.3900638,1225.37902 42.8396205,1224.54241 42.6008923,1223.74912 C42.3097323,1222.78161 42.0201165,1221.81358 41.7320464,1220.84504 C41.4958749,1220.05099 40.6607158,1219.59874 39.8666663,1219.83491 C39.0726169,1220.07108 38.6203675,1220.90624 38.856539,1221.70029 Z M46.9394105,1247.51661 C47.2557678,1248.47848 47.5736596,1249.4398 47.8930844,1250.40058 C48.1544431,1251.1867 49.0035915,1251.6121 49.7897106,1251.35074 C50.5758296,1251.08938 51.0012319,1250.24023 50.7398732,1249.45411 C50.4214635,1248.49639 50.104582,1247.53813 49.78923,1246.57931 C49.5304022,1245.79236 48.6826269,1245.36422 47.895671,1245.62305 C47.108715,1245.88188 46.6805827,1246.72965 46.9394105,1247.51661 Z M55.761014,1273.09721 C56.1041095,1274.04769 56.4487191,1274.99759 56.7948412,1275.94691 C57.0786142,1276.72522 57.9396014,1277.12612 58.7179101,1276.84234 C59.4962188,1276.55857 59.8971193,1275.69758 59.6133463,1274.91928 C59.2683237,1273.97298 58.9248088,1273.02609 58.5828033,1272.07863 C58.3015302,1271.29941 57.4418342,1270.89575 56.6626186,1271.17703 C55.883403,1271.4583 55.4797409,1272.31799 55.761014,1273.09721 Z M65.316814,1298.42708 C65.6859175,1299.36458 66.0565107,1300.30146 66.4285918,1301.23772 C66.7345431,1302.00758 67.606661,1302.38365 68.3765215,1302.0777 C69.1463821,1301.77175 69.5224548,1300.89963 69.2165035,1300.12977 C68.8456036,1299.19648 68.476187,1298.26258 68.1082552,1297.32806 C67.8047679,1296.55722 66.9338574,1296.17836 66.1630222,1296.48185 C65.392187,1296.78534 65.0133267,1297.65625 65.316814,1298.42708 Z M75.5665125,1323.40775 C75.9607431,1324.33081 76.3564352,1325.25323 76.7535871,1326.175 C77.0813899,1326.93581 77.9638876,1327.28684 78.7247009,1326.95904 C79.4855141,1326.63123 79.8365384,1325.74873 79.5087355,1324.98792 C79.1128434,1324.06908 78.7184064,1323.14958 78.3254262,1322.22945 C78.0000472,1321.4676 77.1186715,1321.11376 76.3568185,1321.43914 C75.5949655,1321.76452 75.2411334,1322.6459 75.5665125,1323.40775 Z M86.5361354,1348.10941 C86.9545786,1349.01652 87.3744512,1349.92296 87.7957515,1350.82872 C88.1451366,1351.57987 89.037294,1351.90556 89.7884408,1351.55617 C90.5395877,1351.20679 90.8652799,1350.31463 90.5158949,1349.56348 C90.0959295,1348.6606 89.6773873,1347.75703 89.2602701,1346.85279 C88.9132644,1346.10054 88.0221424,1345.77203 87.2698934,1346.11903 C86.5176444,1346.46604 86.1891298,1347.35716 86.5361354,1348.10941 Z M98.2206012,1372.51645 C98.6622489,1373.40613 99.1052904,1374.29511 99.549724,1375.18339 C99.9204057,1375.92426 100.821495,1376.22435 101.562364,1375.85367 C102.303233,1375.48299 102.603329,1374.5819 102.232647,1373.84103 C101.78962,1372.95557 101.347981,1372.0694 100.907731,1371.18253 C100.53938,1370.4405 99.6392384,1370.13757 98.8972079,1370.50592 C98.1551775,1370.87428 97.8522504,1371.77442 98.2206012,1372.51645 Z M110.614611,1396.61299 C111.088127,1397.50215 111.563054,1398.39054 112.039393,1399.27818 C112.431118,1400.00814 113.340424,1400.28233 114.070385,1399.89061 C114.800346,1399.49888 115.07454,1398.58957 114.682814,1397.85961 C114.207982,1396.97479 113.734555,1396.0892 113.262537,1395.20285 C112.873138,1394.47165 111.964709,1394.19456 111.233505,1394.58396 C110.5023,1394.97336 110.225212,1395.88179 110.614611,1396.61299 Z M123.668196,1420.3049 C124.162823,1421.17315 124.658818,1422.04062 125.156179,1422.9073 C125.568515,1423.62582 126.485255,1423.87403 127.203774,1423.46169 C127.922294,1423.04936 128.170505,1422.13262 127.758168,1421.4141 C127.262378,1420.55015 126.767949,1419.68543 126.274883,1418.81992 C125.864815,1418.1001 124.948863,1417.849 124.229046,1418.25907 C123.50923,1418.66913 123.258128,1419.58509 123.668196,1420.3049 Z M137.369205,1443.58003 C137.8938,1444.44294 138.419768,1445.30502 138.947107,1446.16625 C139.379705,1446.87275 140.303132,1447.0948 141.009637,1446.6622 C141.716143,1446.2296 141.938189,1445.30618 141.505591,1444.59967 C140.979915,1443.74115 140.455605,1442.8818 139.932663,1442.02161 C139.502317,1441.31373 138.579603,1441.08874 137.871723,1441.51909 C137.163843,1441.94944 136.938858,1442.87215 137.369205,1443.58003 Z M151.705489,1466.42623 C152.248628,1467.26515 152.793087,1468.10321 153.338864,1468.94041 C153.791277,1469.63439 154.720615,1469.83023 155.4146,1469.37781 C156.108584,1468.9254 156.304416,1467.99606 155.852003,1467.30208 C155.307945,1466.46751 154.7652,1465.63209 154.223771,1464.79582 C153.773545,1464.10042 152.844827,1463.90166 152.149423,1464.35189 C151.454018,1464.80211 151.255262,1465.73083 151.705489,1466.42623 Z M166.766354,1488.97874 C167.33705,1489.80754 167.909057,1490.63544 168.482375,1491.46243 C168.95436,1492.14326 169.888897,1492.31256 170.569721,1491.84057 C171.250545,1491.36859 171.419843,1490.43405 170.947858,1489.75323 C170.376344,1488.92883 169.806135,1488.10354 169.237235,1487.27734 C168.767407,1486.59503 167.833411,1486.42277 167.151096,1486.8926 C166.468781,1487.36243 166.296526,1488.29642 166.766354,1488.97874 Z M182.39351,1510.99976 C182.979789,1511.80163 183.56732,1512.60259 184.156102,1513.40264 C184.647132,1514.06986 185.586078,1514.21269 186.253297,1513.72166 C186.920516,1513.23063 187.063345,1512.29168 186.572314,1511.62446 C185.985383,1510.82693 185.399697,1510.02849 184.81526,1509.22913 C184.326315,1508.56038 183.387819,1508.41462 182.719071,1508.90357 C182.050323,1509.39251 181.904564,1510.33101 182.39351,1510.99976 Z M198.678091,1532.62278 C199.288924,1533.41038 199.90099,1534.19703 200.514286,1534.98273 C201.024031,1535.63576 201.966649,1535.75192 202.619681,1535.24217 C203.272714,1534.73243 203.388872,1533.78981 202.879127,1533.13678 C202.267755,1532.35355 201.657611,1531.56937 201.048696,1530.78424 C200.540996,1530.12962 199.598747,1530.01051 198.944123,1530.51821 C198.289498,1531.02591 198.170392,1531.96816 198.678091,1532.62278 Z M215.556979,1553.76174 C216.190692,1554.53277 216.825614,1555.30281 217.461741,1556.07185 C217.98976,1556.7102 218.935287,1556.79964 219.573634,1556.27162 C220.211982,1555.7436 220.301421,1554.79807 219.773402,1554.15973 C219.13927,1553.39309 218.506341,1552.62547 217.874615,1551.85686 C217.348597,1551.21686 216.403355,1551.12446 215.763357,1551.65048 C215.12336,1552.1765 215.030961,1553.12174 215.556979,1553.76174 Z M233.017784,1574.40425 C233.67256,1575.15652 234.328513,1575.90776 234.98564,1576.65798 C235.531485,1577.28116 236.479162,1577.34384 237.102335,1576.798 C237.725508,1576.25215 237.788194,1575.30448 237.242349,1574.6813 C236.587282,1573.93343 235.933386,1573.18454 235.280663,1572.43463 C234.736769,1571.80976 233.789293,1571.74411 233.164416,1572.288 C232.53954,1572.8319 232.47389,1573.77937 233.017784,1574.40425 Z M251.048121,1594.53792 C251.722001,1595.26937 252.397021,1595.99976 253.073178,1596.7291 C253.636395,1597.33662 254.585463,1597.37253 255.192981,1596.80932 C255.800499,1596.2461 255.836411,1595.29703 255.273194,1594.68951 C254.599156,1593.96246 253.926251,1593.23435 253.254484,1592.5052 C252.693163,1591.89593 251.744211,1591.85706 251.134941,1592.41838 C250.525671,1592.9797 250.4868,1593.92865 251.048121,1594.53792 Z M269.635604,1614.15038 C270.337041,1614.86989 271.039612,1615.58829 271.743312,1616.30558 C272.323468,1616.89694 273.273172,1616.90602 273.864535,1616.32587 C274.455897,1615.74571 274.464981,1614.79601 273.884825,1614.20464 C273.18333,1613.4896 272.482961,1612.77345 271.783721,1612.0562 C271.205429,1611.46302 270.255758,1611.45094 269.662572,1612.02923 C269.069386,1612.60753 269.057312,1613.5572 269.635604,1614.15038 Z M288.831877,1633.29131 C289.547986,1633.98542 290.265179,1634.67841 290.983453,1635.37027 C291.580105,1635.94499 292.529686,1635.9272 293.104401,1635.33055 C293.679116,1634.7339 293.661333,1633.78432 293.064681,1633.2096 C292.348657,1632.5199 291.633712,1631.82909 290.919846,1631.13716 C290.324993,1630.56058 289.375361,1630.5754 288.798784,1631.17025 C288.222207,1631.7651 288.237023,1632.71473 288.831877,1633.29131 Z M308.498231,1651.82236 C309.236989,1652.49904 309.976809,1653.17457 310.717686,1653.84893 C311.330329,1654.40657 312.279029,1654.36198 312.836667,1653.74933 C313.394305,1653.13669 313.349715,1652.18799 312.737072,1651.63035 C311.998517,1650.95811 311.261016,1650.2847 310.524573,1649.61014 C309.913684,1649.05058 308.964848,1649.09219 308.405289,1649.70308 C307.84573,1650.31397 307.887342,1651.2628 308.498231,1651.82236 Z M328.684534,1669.795 C329.443156,1670.45146 330.202809,1671.10673 330.963489,1671.7608 C331.591637,1672.30091 332.538699,1672.22954 333.078812,1671.60139 C333.618924,1670.97325 333.547557,1670.02618 332.919409,1669.48607 C332.161114,1668.83405 331.403843,1668.18084 330.6476,1667.52644 C330.021154,1666.98435 329.073872,1667.05274 328.531786,1667.67918 C327.9897,1668.30563 328.058088,1669.25291 328.684534,1669.795 Z M349.447527,1687.25331 C350.222988,1687.88679 350.999442,1688.51906 351.776886,1689.1501 C352.420095,1689.67219 353.364753,1689.574 353.886839,1688.93079 C354.408925,1688.28758 354.310735,1687.34292 353.667526,1686.82084 C352.892521,1686.19177 352.118503,1685.56149 351.345475,1684.92999 C350.703909,1684.40589 349.758947,1684.50111 349.234844,1685.14268 C348.71074,1685.78424 348.805961,1686.72921 349.447527,1687.25331 Z M370.638193,1704.07002 C371.427376,1704.6783 372.217509,1705.28535 373.008588,1705.89116 C373.666307,1706.39485 374.60781,1706.26998 375.111494,1705.61226 C375.615178,1704.95454 375.490307,1704.01304 374.832589,1703.50935 C374.043993,1702.90544 373.256341,1702.3003 372.469636,1701.69392 C371.813496,1701.18818 370.871607,1701.31011 370.365868,1701.96625 C369.860129,1702.62239 369.982053,1703.56428 370.638193,1704.07002 Z M392.239305,1720.23857 C393.048526,1720.82662 393.858669,1721.4134 394.669731,1721.99891 C395.341423,1722.4838 396.279021,1722.33237 396.763914,1721.66068 C397.248807,1720.98899 397.097377,1720.05139 396.425685,1719.56649 C395.617172,1718.98283 394.809574,1718.39789 394.002897,1717.81169 C393.332732,1717.32469 392.394663,1717.47317 391.907661,1718.14333 C391.420659,1718.8135 391.569141,1719.75157 392.239305,1720.23857 Z M414.381567,1735.85368 C415.206773,1736.41826 416.032866,1736.98154 416.859842,1737.54351 C417.545032,1738.00914 418.477951,1737.83114 418.943575,1737.14595 C419.409199,1736.46076 419.231206,1735.52784 418.546016,1735.06222 C417.721642,1734.50201 416.898148,1733.94051 416.075538,1733.37771 C415.391816,1732.90993 414.458342,1733.08499 413.990564,1733.76871 C413.522787,1734.45243 413.697845,1735.38591 414.381567,1735.85368 Z M436.906529,1750.8 C437.752638,1751.3443 438.599609,1751.88726 439.447438,1752.42888 C440.145569,1752.87487 441.07306,1752.67047 441.519048,1751.97234 C441.965036,1751.27421 441.760633,1750.34671 441.062503,1749.90073 C440.217344,1749.36081 439.373041,1748.81956 438.529597,1748.27697 C437.832883,1747.82877 436.904749,1748.03024 436.456551,1748.72695 C436.008353,1749.42366 436.209815,1750.3518 436.906529,1750.8 Z M459.797468,1765.07141 C460.650821,1765.58679 461.504985,1766.10082 462.359957,1766.61352 C463.070434,1767.03956 463.991766,1766.80898 464.417811,1766.09851 C464.843856,1765.38803 464.613277,1764.4667 463.902801,1764.04065 C463.050525,1763.52958 462.199055,1763.01716 461.348393,1762.50341 C460.639259,1762.07514 459.717206,1762.30282 459.28893,1763.01195 C458.860654,1763.72108 459.088334,1764.64314 459.797468,1765.07141 Z M483.116082,1778.7063 C483.988937,1779.20017 484.862577,1779.69266 485.736999,1780.18377 C486.459302,1780.58944 487.373706,1780.33276 487.779378,1779.61046 C488.185049,1778.88815 487.928368,1777.97375 487.206064,1777.56808 C486.334404,1777.07852 485.463523,1776.58759 484.593424,1776.09528 C483.872409,1775.68732 482.957197,1775.94111 482.54924,1776.66212 C482.141283,1777.38314 482.395067,1778.29835 483.116082,1778.7063 Z M506.850227,1791.69252 C507.736427,1792.16112 508.623375,1792.62833 509.511068,1793.09413 C510.244638,1793.47905 511.151357,1793.19642 511.536282,1792.46285 C511.921208,1791.72928 511.638576,1790.82256 510.905007,1790.43764 C510.02012,1789.97331 509.135976,1789.50759 508.252578,1789.04046 C507.520233,1788.65321 506.612622,1788.93297 506.225374,1789.66532 C505.838125,1790.39766 506.117881,1791.30527 506.850227,1791.69252 Z M530.90691,1803.97807 C531.807877,1804.42212 532.709559,1804.86474 533.611954,1805.30593 C534.356193,1805.6698 535.254491,1805.36145 535.618359,1804.61721 C535.982227,1803.87297 535.673875,1802.97467 534.929636,1802.61081 C534.030098,1802.17101 533.131271,1801.72979 532.233155,1801.28715 C531.490077,1800.92091 530.590803,1801.22641 530.224571,1801.96949 C529.858338,1802.71256 530.163832,1803.61184 530.90691,1803.97807 Z M555.352274,1815.59515 C556.260546,1816.01098 557.16949,1816.42538 558.079102,1816.83834 C558.833429,1817.18081 559.722555,1816.84692 560.06502,1816.0926 C560.407485,1815.33827 560.073605,1814.44915 559.319278,1814.10668 C558.412548,1813.69502 557.506485,1813.28194 556.601091,1812.86743 C555.847852,1812.52258 554.957674,1812.85364 554.612823,1813.60688 C554.267971,1814.36012 554.599035,1815.2503 555.352274,1815.59515 Z M580.090936,1826.49641 C581.012829,1826.88701 581.93536,1827.27616 582.858527,1827.66385 C583.622334,1827.98462 584.501553,1827.62546 584.822319,1826.86165 C585.143084,1826.09785 584.783928,1825.21863 584.020121,1824.89786 C583.099884,1824.5114 582.180279,1824.12349 581.261312,1823.73412 C580.498528,1823.41093 579.618171,1823.7673 579.294981,1824.53008 C578.971791,1825.29286 579.328152,1826.17322 580.090936,1826.49641 Z M605.191832,1836.70979 C606.124188,1837.07366 607.057146,1837.43607 607.990704,1837.797 C608.763392,1838.09574 609.631955,1837.71153 609.930692,1836.93884 C610.229429,1836.16615 609.845215,1835.29759 609.072527,1834.99885 C608.141934,1834.63906 607.211938,1834.27781 606.282542,1833.91508 C605.510807,1833.61389 604.641028,1833.99534 604.339837,1834.76708 C604.038646,1835.53882 604.420097,1836.40859 605.191832,1836.70979 Z M630.471667,1846.16208 C631.416221,1846.49995 632.361344,1846.83633 633.307035,1847.17121 C634.087946,1847.44774 634.945172,1847.03886 635.221704,1846.25795 C635.498236,1845.47704 635.089356,1844.61982 634.308446,1844.34328 C633.36576,1844.00946 632.423639,1843.67415 631.482086,1843.33736 C630.702061,1843.05834 629.843535,1843.46448 629.564516,1844.24451 C629.285496,1845.02453 629.691642,1845.88306 630.471667,1846.16208 Z M656.085471,1854.91223 C657.040526,1855.22328 657.996116,1855.53281 658.95224,1855.84084 C659.740758,1856.09487 660.585909,1855.66158 660.839938,1854.87306 C661.093966,1854.08454 660.660677,1853.23939 659.872158,1852.98536 C658.919074,1852.67832 657.96652,1852.36976 657.0145,1852.0597 C656.226797,1851.80316 655.380267,1852.23375 655.123722,1853.02145 C654.867178,1853.80915 655.297767,1854.65568 656.085471,1854.91223 Z M681.933707,1862.92271 C682.894625,1863.20548 683.856042,1863.48672 684.817953,1863.76645 C685.613427,1863.99778 686.445815,1863.54045 686.677144,1862.74498 C686.908472,1861.9495 686.451143,1861.11712 685.655669,1860.88579 C684.696814,1860.60695 683.738453,1860.32659 682.780588,1860.04473 C681.985855,1859.81087 681.152015,1860.26555 680.918156,1861.06028 C680.684296,1861.85501 681.138973,1862.68885 681.933707,1862.92271 Z M708.001622,1870.18922 C708.969976,1870.44426 709.938794,1870.69777 710.908071,1870.94975 C711.709847,1871.15819 712.528788,1870.67719 712.737226,1869.87542 C712.945664,1869.07364 712.464668,1868.2547 711.662892,1868.04626 C710.696693,1867.79508 709.730953,1867.54237 708.765675,1867.28815 C707.964566,1867.07716 707.1441,1867.55555 706.933112,1868.35666 C706.722125,1869.15777 707.200513,1869.97823 708.001622,1870.18922 Z M734.184857,1876.68672 C735.160575,1876.91411 736.136722,1877.13997 737.113296,1877.36429 C737.920697,1877.54975 738.72557,1877.04557 738.911031,1876.23817 C739.096493,1875.43077 738.592311,1874.62589 737.784911,1874.44043 C736.811436,1874.21682 735.838387,1873.99168 734.865766,1873.76501 C734.05896,1873.57698 733.252487,1874.0786 733.064459,1874.88541 C732.876431,1875.69222 733.37805,1876.49869 734.184857,1876.68672 Z M760.647901,1882.45568 C761.629716,1882.65503 762.611927,1882.85285 763.594531,1883.04912 C764.406911,1883.21139 765.197019,1882.68437 765.359288,1881.87199 C765.521557,1881.05961 764.994538,1880.2695 764.182158,1880.10723 C763.202669,1879.91158 762.223571,1879.7144 761.244867,1879.51567 C760.433007,1879.35082 759.641229,1879.87533 759.476381,1880.68719 C759.311534,1881.49905 759.836041,1882.29083 760.647901,1882.45568 Z M787.196172,1887.4531 C788.182124,1887.62418 789.168438,1887.79371 790.155111,1887.9617 C790.971786,1888.10075 791.74655,1887.55142 791.885595,1886.73474 C792.02464,1885.91807 791.475313,1885.1433 790.658638,1885.00426 C789.675086,1884.8368 788.691892,1884.6678 787.709059,1884.49727 C786.892829,1884.35564 786.116329,1884.90251 785.974699,1885.71874 C785.833069,1886.53497 786.379941,1887.31147 787.196172,1887.4531 Z M813.905843,1891.69652 C814.896475,1891.83948 815.887438,1891.98088 816.878728,1892.12073 C817.699031,1892.23646 818.457837,1891.66529 818.573567,1890.84499 C818.689297,1890.02469 818.118127,1889.26588 817.297823,1889.15015 C816.309661,1889.01074 815.321826,1888.86978 814.33432,1888.72728 C813.514386,1888.60896 812.75378,1889.17773 812.635459,1889.99766 C812.517139,1890.8176 813.085909,1891.5782 813.905843,1891.69652 Z M840.763469,1895.18275 C841.758107,1895.2975 842.753044,1895.4107 843.748276,1895.52235 C844.571539,1895.6147 845.313793,1895.02218 845.406147,1894.19892 C845.4985,1893.37565 844.905981,1892.6334 844.082718,1892.54105 C843.090616,1892.42975 842.09881,1892.31691 841.107301,1892.20252 C840.284333,1892.10757 839.540216,1892.69775 839.445269,1893.52072 C839.350323,1894.34369 839.940501,1895.0878 840.763469,1895.18275 Z M867.661734,1897.90062 C868.660068,1897.98725 869.65867,1898.07232 870.657538,1898.15584 C871.483084,1898.22486 872.208276,1897.61158 872.277299,1896.78603 C872.346323,1895.96048 871.733039,1895.23529 870.907492,1895.16627 C869.911755,1895.08301 868.916283,1894.99821 867.921079,1894.91185 C867.095753,1894.84024 866.368638,1895.45124 866.297022,1896.27657 C866.225406,1897.10189 866.836408,1897.82901 867.661734,1897.90062 Z M894.680298,1899.86077 C895.679642,1899.91911 896.679223,1899.97589 897.67904,1900.03112 C898.506206,1900.07681 899.213797,1899.4433 899.259489,1898.61613 C899.305181,1897.78897 898.671671,1897.08138 897.844505,1897.03568 C896.847808,1896.98063 895.851346,1896.92402 894.855121,1896.86587 C894.028101,1896.81759 893.318534,1897.44889 893.270258,1898.27591 C893.221982,1899.10293 893.853279,1899.81249 894.680298,1899.86077 Z M921.711001,1901.05779 C922.711848,1901.08805 923.712903,1901.11676 924.714164,1901.14392 C925.542287,1901.16638 926.231822,1900.51326 926.254284,1899.68514 C926.276746,1898.85702 925.623629,1898.16748 924.795507,1898.14502 C923.797353,1898.11795 922.799405,1898.08933 921.801666,1898.05916 C920.973617,1898.03412 920.282055,1898.68509 920.257019,1899.51314 C920.231982,1900.34119 920.882952,1901.03275 921.711001,1901.05779 Z M948.73948,1901.49737 C947.911055,1901.49545 947.241046,1900.82231 947.242972,1899.99389 C947.244899,1899.16546 947.918031,1898.49545 948.746456,1898.49738 C949.497536,1898.49913 950.248717,1898.5 951,1898.5 C951.828427,1898.5 952.5,1899.17157 952.5,1900 C952.5,1900.82843 951.828427,1901.5 951,1901.5 C950.246392,1901.5 949.492885,1901.49912 948.73948,1901.49737 Z" opacity=".2"/>
</svg>
