<svg xmlns="http://www.w3.org/2000/svg" width="32" height="32" viewBox="0 0 32 32">
  <g fill="none" fill-rule="evenodd" transform="rotate(90 14.25 17.75)">
    <path fill="#D7EFE4" d="M23.281836,23.47185 C23.281836,27.5544301 19.9606497,30.8756164 15.8780696,30.8756164 L15.8513205,30.8756164 C14.1310992,30.8756164 12.2457659,30.2220151 11.2665581,29.2861154 C11.2528651,29.2730592 11.238376,29.2604808 11.22325,29.2488577 C11.221817,29.2477431 11.2205433,29.2466286 11.2191103,29.2455141 C10.8693022,28.9536624 5.23527485,23.3833233 1.53514309,19.7120105 C1.2639901,19.4406983 1.11448179,19.0800632 1.11464101,18.6965003 C1.11464101,18.3127783 1.2639901,17.951984 1.53546154,17.6806718 C1.80677375,17.4095188 2.16740882,17.2600105 2.55097168,17.2600105 C2.93469377,17.2600105 3.29516962,17.4095188 3.56648183,17.6806718 L7.49620996,21.6103999 C7.65558996,21.7697799 7.89505802,21.8173869 8.10347802,21.7310892 C8.3117388,21.6447916 8.44755413,21.4417851 8.44755413,21.2163284 L8.44755413,2.55071693 C8.44755413,1.75875276 9.09192064,1.11454548 9.88404403,1.11454548 C10.6760082,1.11454548 11.3202155,1.75875276 11.3202155,2.55071693 L11.3202155,11.2944854 L11.3202155,19.498177 C11.3202155,19.8059508 11.5697144,20.0554497 11.8774882,20.0554497 C12.185262,20.0554497 12.434761,19.8059508 12.434761,19.498177 L12.434761,11.2944854 C12.434761,10.5025212 13.0792867,9.85831395 13.8712509,9.85831395 C14.663215,9.85831395 15.3074223,10.5025212 15.3074223,11.2944854 L15.3074223,12.0944106 L15.3074223,12.8137701 L15.3074223,19.498177 C15.3074223,19.8059508 15.5569213,20.0554497 15.864695,20.0554497 C16.1724688,20.0554497 16.4219678,19.8059508 16.4219678,19.498177 L16.4219678,12.8137701 C16.4219678,12.0218059 17.0663343,11.3775987 17.8582985,11.3775987 C18.6502626,11.3775987 19.2946291,12.0218059 19.2946291,12.8137701 L19.2946291,14.3330548 L19.2946291,19.498177 C19.2946291,19.8059508 19.5441281,20.0554497 19.8519019,20.0554497 C20.1596756,20.0554497 20.4091746,19.8059508 20.4091746,19.498177 L20.4091746,14.3330548 C20.4091746,13.5410906 21.0537003,12.8968834 21.8456645,12.8968834 C22.6376287,12.8968834 23.281836,13.5410906 23.281836,14.3330548 L23.281836,23.47185 Z"/>
    <path fill="#35AE77" d="M23.281836,23.47185 C23.281836,27.5544301 19.9606497,30.8756164 15.8780696,30.8756164 L15.8513205,30.8756164 C14.1310992,30.8756164 12.2457659,30.2220151 11.2665581,29.2861154 C11.2528651,29.2730592 11.238376,29.2604808 11.22325,29.2488577 C11.221817,29.2477431 11.2205433,29.2466286 11.2191103,29.2455141 C10.8693022,28.9536624 5.23527485,23.3833233 1.53514309,19.7120105 C1.2639901,19.4406983 1.11448179,19.0800632 1.11464101,18.6965003 C1.11464101,18.3127783 1.2639901,17.951984 1.53546154,17.6806718 C1.80677375,17.4095188 2.16740882,17.2600105 2.55097168,17.2600105 C2.93469377,17.2600105 3.29516962,17.4095188 3.56648183,17.6806718 L7.49620996,21.6103999 C7.65558996,21.7697799 7.89505802,21.8173869 8.10347802,21.7310892 C8.3117388,21.6447916 8.44755413,21.4417851 8.44755413,21.2163284 L8.44755413,2.55071693 C8.44755413,1.75875276 9.09192064,1.11454548 9.88404403,1.11454548 C10.6760082,1.11454548 11.3202155,1.75875276 11.3202155,2.55071693 L11.3202155,11.2944854 L11.3202155,19.498177 C11.3202155,19.8059508 11.5697144,20.0554497 11.8774882,20.0554497 C12.185262,20.0554497 12.434761,19.8059508 12.434761,19.498177 L12.434761,11.2944854 C12.434761,10.5025212 13.0792867,9.85831395 13.8712509,9.85831395 C14.663215,9.85831395 15.3074223,10.5025212 15.3074223,11.2944854 L15.3074223,12.0944106 L15.3074223,12.8137701 L15.3074223,19.498177 C15.3074223,19.8059508 15.5569213,20.0554497 15.864695,20.0554497 C16.1724688,20.0554497 16.4219678,19.8059508 16.4219678,19.498177 L16.4219678,12.8137701 C16.4219678,12.0218059 17.0663343,11.3775987 17.8582985,11.3775987 C18.6502626,11.3775987 19.2946291,12.0218059 19.2946291,12.8137701 L19.2946291,14.3330548 L19.2946291,19.498177 C19.2946291,19.8059508 19.5441281,20.0554497 19.8519019,20.0554497 C20.1596756,20.0554497 20.4091746,19.8059508 20.4091746,19.498177 L20.4091746,14.3330548 C20.4091746,13.5410906 21.0537003,12.8968834 21.8456645,12.8968834 C22.6376287,12.8968834 23.281836,13.5410906 23.281836,14.3330548 L23.281836,23.47185 Z M21.8456645,11.7823379 L21.8455053,11.7823379 C21.2874364,11.7823379 20.770765,11.9624166 20.3502629,12.2674836 C20.0996494,11.122527 19.0772928,10.2630532 17.8581392,10.2630532 C17.3002296,10.2630532 16.7835582,10.4429727 16.3630561,10.7481989 C16.1124426,9.60324226 15.0902452,8.74376847 13.8710916,8.74376847 C13.3388166,8.74376847 12.8441176,8.90744744 12.434761,9.18751679 L12.434761,2.55071693 C12.434761,1.14416054 11.2904412,0 9.88372559,0 C8.47732842,0 7.33300866,1.14416054 7.33300866,2.55071693 L7.33300866,19.8710721 L4.3546247,16.8926881 C3.87282262,16.4107268 3.23227741,16.145465 2.55097168,16.145465 C1.86966596,16.145465 1.22896153,16.410886 0.747000222,16.8928473 C0.265357356,17.3744902 -6.36883128e-05,18.0151946 -6.36883128e-05,18.6965003 C-6.36883128e-05,19.3778061 0.265357356,20.0183513 0.74859243,20.5015864 C1.68672128,21.432391 9.79997546,29.4805239 10.4895607,30.0876328 C10.5011838,30.0989374 10.5134438,30.1096052 10.5261814,30.1199546 C11.7201781,31.2397543 13.8532589,31.9901619 15.8513205,31.9901619 L15.8780696,31.9901619 C20.5750827,31.9901619 24.3963814,28.1688631 24.3963814,23.47185 L24.3963814,14.3330548 C24.3963814,12.9264984 23.2520617,11.7823379 21.8456645,11.7823379 L21.8456645,11.7823379 Z"/>
  </g>
</svg>
