<svg xmlns="http://www.w3.org/2000/svg" width="32" height="32" viewBox="0 0 32 32">
  <g fill="none" transform="translate(0 3)">
    <path fill="#FFDD67" d="M17.7621333,2.47786667 C17.5392,4.84853333 15.6410667,5.63946667 14.7029333,5.91626667 L14.2592,6.04426667 C14.2592,6.04426667 13.9541333,6.30986667 13.4736,6.64746667 C13.4661333,6.68693333 13.456,6.7264 13.4474667,6.7664 C13.4474667,6.7664 17.5818667,7.0144 18.9434667,6.82666667 C20.4485333,6.61813333 27.0725333,6.62026667 28.6965333,6.53386667 C30.6074667,6.43306667 32,6.77866667 32,8.936 C32,11.1184 30.3082667,11.7850667 28.6965333,11.6517333 C26.4746667,11.4682667 18.9589333,11.3514667 18.9589333,11.3514667 C19.9285333,11.584 20.8181333,12.0037333 20.6528,13.6005333 C20.4634667,15.4288 19.7546667,15.7744 18.6186667,15.8576 C20.1562667,16.7546667 20.0416,17.9701333 19.8512,18.7253333 C19.5290667,20.0016 17.2304,20.3568 17.2304,20.3690667 C18.9376,20.8698667 18.6410667,21.6608 18.4762667,22.768 C18.3754667,23.4442667 17.6848,24.2336 16.5093333,24.5168 C15.3322667,24.8010667 14.4634667,25.6762667 5.2832,24.3637333 C2.87253333,24.0192 1.68533333,21.9146667 1.13653333,18.7386667 C0.766933333,16.5930667 0.178133333,13.6656 0.0128,11.4832 C-0.00122002767,11.2893718 -0.00300134131,11.0948524 0.00746666667,10.9008 C-0.056,9.6912 0.459733333,8.47466667 1.48266667,7.72266667 L7.98453333,2.94986667 C7.99306667,2.94453333 8.00106667,2.94026667 8.00853333,2.9344 C8.32,2.5936 8.7584,2.37706667 9.30453333,2.32 C11.4044156,2.1087586 13.4539998,1.54683107 15.368,0.6576 C16.2528,0.2496 17.9184,0.835733333 17.7621333,2.47786667 L17.7621333,2.47786667 Z"/>
    <path fill="#EBA352" d="M18.5872,22.0309333 C18.8912,19.9957333 15.7632,20.152 17.0789333,20.5717333 C18.4576,21.0117333 18.5872,22.0309333 18.5872,22.0309333 Z M19.9514667,18.1264 C20.2368,15.3482667 17.1402667,15.6357333 18.4128,16.1690667 C19.7045333,16.7098667 19.9514667,18.1264 19.9514667,18.1264 Z M20.6586667,13.5434667 C20.9429333,10.7642667 17.6432,11.0517333 18.9157333,11.5850667 C20.208,12.1264 20.6586667,13.5434667 20.6586667,13.5434667 Z"/>
    <g fill="#EBA352" transform="translate(0 .533)">
      <path d="M13.4474667,6.23306667 C13.4474667,6.23306667 20.1653333,5.456 28.7216,5.83413333 C29.9669333,5.8896 31.8885333,5.8944 31.9909333,8.10933333 C31.2053333,5.6224 22.7184,6.7776 13.4474667,6.23306667 L13.4474667,6.23306667 Z"/>
      <path d="M17.2954667,0.5296 C16.9109333,0.4304 16.512,0.450666667 16.2069333,0.590933333 C14.2929332,1.48016441 12.243349,2.04209193 10.1434667,2.25333333 C9.59786667,2.3104 9.15893333,2.52746667 8.84746667,2.86773333 C8.84,2.87413333 8.832,2.8784 8.82346667,2.8832 L2.3216,7.65653333 C1.29866667,8.40853333 0.782933333,9.62506667 0.8464,10.8346667 C0.8368,11.0261333 0.835733333,11.2202667 0.851733333,11.4170667 C1.0176,13.5994667 1.60586667,16.5264 1.97546667,18.6725333 C2.368,20.9392 3.088,22.656 4.3424,23.5797333 C2.55466667,22.8714667 1.60906667,20.936 1.136,18.2058667 C0.7664,16.0602667 0.1776,13.1328 0.0122666667,10.9504 C-0.001753361,10.7565718 -0.00353467464,10.5620524 0.00693333333,10.368 C-0.0565333333,9.1584 0.4592,7.94186667 1.48213333,7.18986667 L7.984,2.41706667 C7.99253333,2.41173333 8.00053333,2.40746667 8.008,2.4016 C8.31946667,2.0608 8.75786667,1.84426667 9.304,1.7872 C11.4038823,1.5759586 13.4534665,1.01403107 15.3674667,0.1248 C15.9173333,-0.128533333 16.7664,0.0016 17.2954667,0.5296 Z"/>
    </g>
    <path fill="#EBA352" d="M11.1850667,6.11093333 C11.1850667,6.11093333 13.4832,5.41066667 14.5653333,5.1296 C15.4672,4.896 17.104,4.05546667 17.7413333,2.65866667 C17.4410667,4.88906667 15.6165333,5.6464 14.7029333,5.91573333 L14.2592,6.04373333 C14.2592,6.04373333 14.0037333,6.4176 13.448,6.76586667 C13.4474667,6.7664 12.4026667,6.0288 11.1850667,6.11093333 L11.1850667,6.11093333 Z M18.3546667,11.6277333 C18.0464,11.7392 17.8074667,11.8874667 17.5616,12.0512 C17.3194667,12.2181333 17.0672,12.3930667 16.7797333,12.5456 C16.4906667,12.6896 16.1584,12.8058667 15.8138667,12.808 C15.4777877,12.8184564 15.1472386,12.7206752 14.8709333,12.5290667 C15.1978667,12.5024 15.4885333,12.4736 15.7584,12.3957333 C16.0284589,12.3148294 16.2894079,12.2061603 16.5370667,12.0714667 C16.7989333,11.9445333 17.0666667,11.7861333 17.3776,11.68 C17.6816,11.5690667 18.0432,11.5136 18.3546667,11.6277333 L18.3546667,11.6277333 Z M17.4805333,15.8202667 C17.1722667,15.9317333 16.9333333,16.0794667 16.6874667,16.2432 C16.4453333,16.4101333 16.1930667,16.5850667 15.9056,16.7381333 C15.6165333,16.8821333 15.2842667,16.9978667 14.9397333,16.9994667 C14.6036836,17.0096963 14.273204,16.9119357 13.9968,16.7205333 C14.3237333,16.6938667 14.6144,16.6650667 14.8842667,16.5872 C15.1530667,16.5093333 15.4053333,16.4005333 15.6629333,16.2634667 C15.9248,16.1365333 16.1925333,15.9781333 16.5034667,15.872 C16.8085333,15.7621333 17.1690667,15.7066667 17.4805333,15.8202667 L17.4805333,15.8202667 Z M16.2037333,20.3962667 C15.8954667,20.5077333 15.6565333,20.6554667 15.4106667,20.8192 C15.1685333,20.9861333 14.9168,21.1610667 14.6293333,21.3136 C14.3402667,21.4581333 14.008,21.5738667 13.664,21.5754667 C13.3279503,21.5856963 12.9974707,21.4879357 12.7210667,21.2965333 C13.048,21.2698667 13.3386667,21.2410667 13.6085333,21.1632 C13.8784051,21.0824791 14.1391778,20.9739877 14.3866667,20.8394667 C14.648,20.7125333 14.9162667,20.5541333 15.2272,20.448 C15.5312,20.3381333 15.8922667,20.2826667 16.2037333,20.3962667 L16.2037333,20.3962667 Z"/>
  </g>
</svg>
