<svg xmlns="http://www.w3.org/2000/svg" width="346" height="80" viewBox="0 0 346 80">
  <g fill="#35AE77" fill-rule="evenodd">
    <path d="M314.817561 64.2731707C306.857561 64.2731707 298.397073 58.2741463 298.397073 47.1560976 298.397073 36.0370732 306.857561 30.0370732 314.817561 30.0370732 325.02439 30.0370732 331.123902 38.7414634 331.123902 47.1560976 331.123902 55.5697561 325.02439 64.2731707 314.817561 64.2731707M314.817561 16C296.678049 16 283 29.3941463 283 47.1560976 283 64.9804878 296.678049 78.4214634 314.817561 78.4214634 332.828293 78.4214634 346.409756 64.9804878 346.409756 47.1560976 346.409756 29.3941463 332.828293 16 314.817561 16M272.850732 61.3229268C272.866341 61.3229268 272.881951 61.3297561 272.898537 61.3307317 272.859512 61.3287805 272.820488 61.3307317 272.782439 61.3326829 272.804878 61.3317073 272.827317 61.3229268 272.850732 61.3229268M227.05561 61.3219512C227.07122 61.3219512 227.086829 61.3297561 227.102439 61.3297561 227.063415 61.3287805 227.02439 61.3307317 226.986341 61.3326829 227.009756 61.3317073 227.032195 61.3219512 227.05561 61.3219512M277.016585 16.0682927L256.337561 16.0682927 256.337561 2.00390244C256.337561.898536585 255.439024 0 254.334634 0L242.737561 0C241.633171 0 240.734634.898536585 240.734634 2.00390244L240.734634 16.0682927 210.537561 16.0682927 210.537561 2.00390244C210.537561.898536585 209.639024 0 208.53561 0L196.937561 0C195.833171 0 194.934634.898536585 194.934634 2.00390244L194.934634 16.0682927 185.003902 16.0682927C183.898537 16.0682927 183 16.9678049 183 18.0731707L183 27.6858537C183 28.7912195 183.898537 29.6907317 185.003902 29.6907317L194.934634 29.6907317 194.934634 55.7707317C194.934634 70.0439024 202.941463 78.2312195 216.900488 78.2312195 222.052683 78.2312195 226.186341 76.96 231.644878 73.6995122 232.472195 73.2058537 232.83122 72.1912195 232.498537 71.2878049L228.92878 61.5658537C228.721951 60.9902439 228.266341 60.5463415 227.680976 60.3521951 227.480976 60.2858537 227.270244 60.2507317 227.05561 60.2507317 226.659512 60.2507317 226.278049 60.3639024 225.952195 60.577561 223.421463 62.2370732 220.251707 63.2663415 217.680976 63.2663415 212.941463 63.2663415 210.537561 60.4819512 210.537561 54.9882927L210.537561 29.6907317 240.734634 29.6907317 240.734634 55.7707317C240.734634 70.0439024 248.740488 78.2312195 262.700488 78.2312195 267.852683 78.2312195 271.986341 76.96 277.443902 73.6995122 278.274146 73.2068293 278.633171 72.1912195 278.297561 71.2868293L274.730732 61.5639024C274.520976 60.9882927 274.06439 60.5463415 273.48 60.3512195 273.272195 60.284878 273.062439 60.2507317 272.850732 60.2507317 272.453659 60.2507317 272.072195 60.3658537 271.750244 60.5795122 269.223415 62.2370732 266.052683 63.2663415 263.480976 63.2663415 258.741463 63.2663415 256.337561 60.4819512 256.337561 54.9882927L256.337561 29.6907317 277.016585 29.6907317C278.119024 29.6907317 279.017561 28.7912195 279.017561 27.6858537L279.017561 18.0731707C279.017561 16.9678049 278.119024 16.0682927 277.016585 16.0682927M135.497561 39.7453659C137.957073 33.235122 144.501463 30.2595122 149.724878 30.2595122 156.105366 30.2595122 160.863415 33.7043902 162.886829 39.7453659L135.497561 39.7453659zM149.724878 16C132.20878 16 119 29.4653659 119 47.3219512 119 65.0517073 132.017561 78.422439 149.278049 78.422439 162.552195 78.422439 172.555122 72.124878 177.447805 60.6917073 177.593171 60.4078049 177.670244 60.0907317 177.670244 59.7736585 177.670244 58.6692683 176.769756 57.7717073 175.662439 57.7717073L163.776585 57.7717073C163.140488 57.7717073 162.536585 58.0770732 162.160976 58.5882927 159.257561 62.542439 155.162927 64.3843902 149.278049 64.3843902 142.245854 64.3843902 136.533659 59.4390244 134.873171 52.0009756L177.440976 52.0009756C178.546341 52.0009756 179.445854 51.102439 179.445854 49.9980488L179.445854 45.9678049C178.87122 28.875122 166.093659 16 149.724878 16L149.724878 16zM110.48 33.977561C110.412683 33.977561 110.343415 33.9726829 110.274146 33.9619512 110.355122 33.9746341 110.434146 33.9736585 110.512195 33.9717073 110.500488 33.9717073 110.491707 33.977561 110.48 33.977561M111.818537 19.5326829C110.09561 19 108.830244 19 107.364878 19 98.275122 19 92.1931707 23.3258537 88.4780488 27.4087805L88.4780488 21.6663415C88.4780488 20.5639024 87.5834146 19.6673171 86.4839024 19.6673171L74.9931707 19.6673171C73.8936585 19.6673171 73 20.5639024 73 21.6663415L73 76.8029268C73 77.9043902 73.8936585 78.8009756 74.9931707 78.8009756L86.4839024 78.8009756C87.5834146 78.8009756 88.4780488 77.9043902 88.4780488 76.8029268L88.4780488 57.3482927C88.4780488 42.5814634 95.1463415 34.4487805 107.254634 34.4487805 108.181463 34.4487805 109.450732 34.4487805 110.200976 34.542439 110.285854 34.5560976 110.383415 34.5629268 110.48 34.5629268 110.93561 34.5629268 111.366829 34.4039024 111.726829 34.1014634 112.143415 33.7619512 112.407805 33.2497561 112.447805 32.7014634L113.222439 21.5834146C113.285854 20.6497561 112.709268 19.8078049 111.818537 19.5326829M35.7043902 37.4673171L15.9473171 37.4673171 15.9473171 14.8214634 35.7043902 14.8214634C43.5717073 14.8214634 48.6556098 19.2439024 48.6556098 26.0878049 48.6556098 33.1073171 43.6926829 37.4673171 35.7043902 37.4673171M35.7043902 0L2.00390244 0C.898536585 0 0 .898536585 0 2.00195122L0 76.715122C0 77.817561.898536585 78.7160976 2.00390244 78.7160976L13.9443902 78.7160976C15.0487805 78.7160976 15.9473171 77.817561 15.9473171 76.715122L15.9473171 52.4009756 35.7043902 52.4009756C53.2585366 52.4009756 64.6009756 42.0721951 64.6009756 26.0878049 64.6009756 10.4839024 52.9882927 0 35.7043902 0"/>
  </g>
</svg>
